<svg xmlns="http://www.w3.org/2000/svg" width="2200" height="4072" viewBox="0 0 2200 4072">
  <defs>
    <linearGradient id="bg" x1="0" x2="1" y1="0" y2="1">
      <stop offset="0%" stop-color="#07111e"/>
      <stop offset="55%" stop-color="#10233b"/>
      <stop offset="100%" stop-color="#091424"/>
    </linearGradient>
    <radialGradient id="glow" cx="0.5" cy="0.02" r="0.55">
      <stop offset="0%" stop-color="#4ddcff" stop-opacity="0.18"/>
      <stop offset="100%" stop-color="#4ddcff" stop-opacity="0"/>
    </radialGradient>
    <filter id="shadow" x="-15%" y="-15%" width="130%" height="130%">
      <feDropShadow dx="0" dy="18" stdDeviation="20" flood-color="#000000" flood-opacity="0.32"/>
    </filter>
    <style>
      text { font-family: 'Aptos', 'Segoe UI', sans-serif; fill: #f8fafc; }
      .title { font-size: 70px; font-weight: 900; letter-spacing: -1px; }
      .subtitle { fill: #adbbcf; font-size: 28px; }
      .eyebrow { fill: #6ee7ff; font-size: 20px; font-weight: 900; letter-spacing: 5px; }
      .metric { font-size: 44px; font-weight: 900; }
      .label { fill: #8393aa; font-size: 17px; font-weight: 900; letter-spacing: 1.4px; }
      .panel { fill: #101d31; stroke: #2c425e; stroke-width: 2; }
      .panel-title { font-size: 28px; font-weight: 900; }
      .panel-subtitle { fill: #98a8bd; font-size: 18px; }
      .axis { stroke: #38506b; stroke-width: 2; }
      .grid { stroke: #22384f; stroke-width: 1; opacity: 0.8; }
      .tick { fill: #93a4b8; font-size: 16px; }
      .legend { fill: #cdd6e2; font-size: 18px; }
      .tiny { fill: #91a5be; font-size: 16px; }
    </style>
  </defs>
  <rect width="2200" height="4072" fill="url(#bg)"/>
  <rect width="2200" height="4072" fill="url(#glow)"/>

  <text x="1100" y="90" text-anchor="middle" class="eyebrow">EVENT-LEVEL MARKET DATA RESEARCH ENGINE</text>
  <text x="1100" y="176" text-anchor="middle" class="title">BTCUSDT Market Data Research Dashboard</text>
  <text x="1100" y="224" text-anchor="middle" class="subtitle">High-frequency aggregate trades, L5 depth features, order-flow imbalance, OHLC candles, and latency diagnostics</text>

    <rect x="150" y="290" width="340" height="130" rx="24" fill="#101d31" stroke="#2c425e" stroke-width="2" filter="url(#shadow)"/>
  <text x="178" y="346" class="metric" fill="#53f3c3">300</text>
  <text x="178" y="386" class="label">TRADES</text>
    <rect x="540" y="290" width="340" height="130" rx="24" fill="#101d31" stroke="#2c425e" stroke-width="2" filter="url(#shadow)"/>
  <text x="568" y="346" class="metric" fill="#7cc7ff">300</text>
  <text x="568" y="386" class="label">DEPTH UPDATES</text>
    <rect x="930" y="290" width="340" height="130" rx="24" fill="#101d31" stroke="#2c425e" stroke-width="2" filter="url(#shadow)"/>
  <text x="958" y="346" class="metric" fill="#ffd166">300</text>
  <text x="958" y="386" class="label">FEATURE ROWS</text>
    <rect x="1320" y="290" width="340" height="130" rx="24" fill="#101d31" stroke="#2c425e" stroke-width="2" filter="url(#shadow)"/>
  <text x="1348" y="346" class="metric" fill="#ffcf5c">0.007 USDT</text>
  <text x="1348" y="386" class="label">AVG SPREAD</text>
    <rect x="1710" y="290" width="340" height="130" rx="24" fill="#101d31" stroke="#2c425e" stroke-width="2" filter="url(#shadow)"/>
  <text x="1738" y="346" class="metric" fill="#c4a7ff">6.557 ms</text>
  <text x="1738" y="386" class="label">AVG LATENCY</text>

    <rect x="150" y="500" width="1900" height="350" rx="26" class="panel" filter="url(#shadow)"/>
  <text x="186" y="546" class="panel-title">OHLC Candles From Aggregate Trades</text>
  <text x="186" y="576" class="panel-subtitle">Open, high, low, close candles built from event-level aggTrade prices.</text>
  <rect x="246" y="612" width="1758" height="192" rx="12" fill="#0b1627" stroke="#263c56" stroke-width="2"/>
<line x1="246" y1="660" x2="2004" y2="660" class="grid"/>
<line x1="246" y1="708" x2="2004" y2="708" class="grid"/>
<line x1="246" y1="756" x2="2004" y2="756" class="grid"/>
<line x1="539" y1="612" x2="539" y2="804" class="grid"/>
<line x1="832" y1="612" x2="832" y2="804" class="grid"/>
<line x1="1125" y1="612" x2="1125" y2="804" class="grid"/>
<line x1="1418" y1="612" x2="1418" y2="804" class="grid"/>
<line x1="1711" y1="612" x2="1711" y2="804" class="grid"/>
<line x1="246" y1="804" x2="2004" y2="804" class="axis"/>
<line x1="246" y1="612" x2="246" y2="804" class="axis"/>
<text x="232" y="617" text-anchor="end" class="tick">65056.48</text>
<text x="232" y="665" text-anchor="end" class="tick">65031.47</text>
<text x="232" y="713" text-anchor="end" class="tick">65006.45</text>
<text x="232" y="761" text-anchor="end" class="tick">64981.43</text>
<text x="232" y="809" text-anchor="end" class="tick">64956.42</text>
<line x1="281.16" y1="696.007" x2="281.16" y2="723.562" stroke="#53f3c3" stroke-width="3"/>
<rect x="264.16" y="696.007" width="34" height="27.554" rx="3" fill="#53f3c3" opacity="0.88"/>
<line x1="351.48" y1="679.352" x2="351.48" y2="699.557" stroke="#53f3c3" stroke-width="3"/>
<rect x="334.48" y="685.089" width="34" height="14.468" rx="3" fill="#53f3c3" opacity="0.88"/>
<line x1="421.8" y1="672.636" x2="421.8" y2="682.979" stroke="#53f3c3" stroke-width="3"/>
<rect x="404.8" y="676.167" width="34" height="5.833" rx="3" fill="#53f3c3" opacity="0.88"/>
<line x1="492.12" y1="674.843" x2="492.12" y2="693.072" stroke="#ff6b8a" stroke-width="3"/>
<rect x="475.12" y="674.843" width="34" height="17.576" rx="3" fill="#ff6b8a" opacity="0.88"/>
<line x1="562.44" y1="689.176" x2="562.44" y2="713.258" stroke="#ff6b8a" stroke-width="3"/>
<rect x="545.44" y="689.176" width="34" height="24.081" rx="3" fill="#ff6b8a" opacity="0.88"/>
<line x1="632.76" y1="710.456" x2="632.76" y2="730.393" stroke="#ff6b8a" stroke-width="3"/>
<rect x="615.76" y="710.456" width="34" height="15.12" rx="3" fill="#ff6b8a" opacity="0.88"/>
<line x1="703.08" y1="726.171" x2="703.08" y2="740.063" stroke="#ff6b8a" stroke-width="3"/>
<rect x="686.08" y="726.171" width="34" height="12.741" rx="3" fill="#ff6b8a" opacity="0.88"/>
<line x1="773.4" y1="730.431" x2="773.4" y2="742.117" stroke="#ff6b8a" stroke-width="3"/>
<rect x="756.4" y="734.365" width="34" height="3" rx="3" fill="#ff6b8a" opacity="0.88"/>
<line x1="843.72" y1="711.646" x2="843.72" y2="733.501" stroke="#53f3c3" stroke-width="3"/>
<rect x="826.72" y="711.646" width="34" height="19.725" rx="3" fill="#53f3c3" opacity="0.88"/>
<line x1="914.04" y1="692.937" x2="914.04" y2="718.055" stroke="#53f3c3" stroke-width="3"/>
<rect x="897.04" y="695.048" width="34" height="23.007" rx="3" fill="#53f3c3" opacity="0.88"/>
<line x1="984.36" y1="677.894" x2="984.36" y2="695.393" stroke="#53f3c3" stroke-width="3"/>
<rect x="967.36" y="683.228" width="34" height="4.797" rx="3" fill="#53f3c3" opacity="0.88"/>
<line x1="1054.68" y1="625.241" x2="1054.68" y2="680.618" stroke="#53f3c3" stroke-width="3"/>
<rect x="1037.68" y="633.569" width="34" height="47.049" rx="3" fill="#53f3c3" opacity="0.88"/>
<line x1="1125" y1="625.433" x2="1125" y2="644.257" stroke="#ff6b8a" stroke-width="3"/>
<rect x="1108" y="625.433" width="34" height="16.982" rx="3" fill="#ff6b8a" opacity="0.88"/>
<line x1="1195.32" y1="642.319" x2="1195.32" y2="712.739" stroke="#ff6b8a" stroke-width="3"/>
<rect x="1178.32" y="647.289" width="34" height="61.92" rx="3" fill="#ff6b8a" opacity="0.88"/>
<line x1="1265.64" y1="709.305" x2="1265.64" y2="739.584" stroke="#ff6b8a" stroke-width="3"/>
<rect x="1248.64" y="709.305" width="34" height="28.399" rx="3" fill="#ff6b8a" opacity="0.88"/>
<line x1="1335.96" y1="740.677" x2="1335.96" y2="757.486" stroke="#ff6b8a" stroke-width="3"/>
<rect x="1318.96" y="742.001" width="34" height="15.485" rx="3" fill="#ff6b8a" opacity="0.88"/>
<line x1="1406.28" y1="754.934" x2="1406.28" y2="762.706" stroke="#ff6b8a" stroke-width="3"/>
<rect x="1389.28" y="755.299" width="34" height="3.665" rx="3" fill="#ff6b8a" opacity="0.88"/>
<line x1="1476.6" y1="753.15" x2="1476.6" y2="779.418" stroke="#ff6b8a" stroke-width="3"/>
<rect x="1459.6" y="758.599" width="34" height="18.229" rx="3" fill="#ff6b8a" opacity="0.88"/>
<line x1="1546.92" y1="757.294" x2="1546.92" y2="776.137" stroke="#53f3c3" stroke-width="3"/>
<rect x="1529.92" y="762.552" width="34" height="13.585" rx="3" fill="#53f3c3" opacity="0.88"/>
<line x1="1617.24" y1="736.437" x2="1617.24" y2="761.247" stroke="#53f3c3" stroke-width="3"/>
<rect x="1600.24" y="736.437" width="34" height="24.81" rx="3" fill="#53f3c3" opacity="0.88"/>
<line x1="1687.56" y1="725.327" x2="1687.56" y2="737.358" stroke="#53f3c3" stroke-width="3"/>
<rect x="1670.56" y="728.493" width="34" height="7.714" rx="3" fill="#53f3c3" opacity="0.88"/>
<line x1="1757.88" y1="726.286" x2="1757.88" y2="738.413" stroke="#ff6b8a" stroke-width="3"/>
<rect x="1740.88" y="733.444" width="34" height="4.97" rx="3" fill="#ff6b8a" opacity="0.88"/>
<line x1="1828.2" y1="733.962" x2="1828.2" y2="751.173" stroke="#ff6b8a" stroke-width="3"/>
<rect x="1811.2" y="734.058" width="34" height="16.559" rx="3" fill="#ff6b8a" opacity="0.88"/>
<line x1="1898.52" y1="750.368" x2="1898.52" y2="772.664" stroke="#ff6b8a" stroke-width="3"/>
<rect x="1881.52" y="750.368" width="34" height="22.297" rx="3" fill="#ff6b8a" opacity="0.88"/>
<line x1="1968.84" y1="777.001" x2="1968.84" y2="790.759" stroke="#ff6b8a" stroke-width="3"/>
<rect x="1951.84" y="777.001" width="34" height="13.758" rx="3" fill="#ff6b8a" opacity="0.88"/>
<line x1="268" y1="598" x2="302" y2="598" stroke="#53f3c3" stroke-width="5" stroke-linecap="round"/>
<text x="314" y="604" class="legend">up candle</text>
<line x1="466" y1="598" x2="500" y2="598" stroke="#ff6b8a" stroke-width="5" stroke-linecap="round"/>
<text x="512" y="604" class="legend">down candle</text>

  <rect x="150" y="892" width="1900" height="350" rx="26" class="panel" filter="url(#shadow)"/>
  <text x="186" y="938" class="panel-title">Midprice And L1 Quote</text>
  <text x="186" y="968" class="panel-subtitle">Best bid, best ask, and midprice reconstructed from the local L5 book.</text>
  <rect x="246" y="1004" width="1758" height="192" rx="12" fill="#0b1627" stroke="#263c56" stroke-width="2"/>
<line x1="246" y1="1052" x2="2004" y2="1052" class="grid"/>
<line x1="246" y1="1100" x2="2004" y2="1100" class="grid"/>
<line x1="246" y1="1148" x2="2004" y2="1148" class="grid"/>
<line x1="539" y1="1004" x2="539" y2="1196" class="grid"/>
<line x1="832" y1="1004" x2="832" y2="1196" class="grid"/>
<line x1="1125" y1="1004" x2="1125" y2="1196" class="grid"/>
<line x1="1418" y1="1004" x2="1418" y2="1196" class="grid"/>
<line x1="1711" y1="1004" x2="1711" y2="1196" class="grid"/>
<line x1="246" y1="1196" x2="2004" y2="1196" class="axis"/>
<line x1="246" y1="1004" x2="246" y2="1196" class="axis"/>
<text x="232" y="1009" text-anchor="end" class="tick">65053.74</text>
<text x="232" y="1057" text-anchor="end" class="tick">65029.81</text>
<text x="232" y="1105" text-anchor="end" class="tick">65005.88</text>
<text x="232" y="1153" text-anchor="end" class="tick">64981.94</text>
<text x="232" y="1201" text-anchor="end" class="tick">64958.01</text>
<path d="M 246 1111.783 L 251.88 1111.783 L 257.759 1109.466 L 263.639 1109.466 L 269.518 1107.17 L 275.398 1107.17 L 281.278 1104.924 L 287.157 1104.924 L 293.037 1102.758 L 298.916 1102.758 L 304.796 1100.692 L 310.676 1100.692 L 316.555 1098.737 L 322.435 1098.737 L 328.314 1096.921 L 334.194 1096.921 L 340.074 1095.267 L 345.953 1095.267 L 351.833 1093.793 L 357.712 1093.793 L 363.592 1092.509 L 369.472 1092.509 L 375.351 1091.416 L 381.231 1091.416 L 387.11 1090.554 L 392.99 1090.554 L 398.87 1089.902 L 404.749 1089.902 L 410.629 1089.481 L 416.508 1089.481 L 422.388 1089.28 L 428.268 1089.28 L 434.147 1089.28 L 440.027 1089.28 L 445.906 1089.28 L 451.786 1089.28 L 457.666 1089.28 L 463.545 1089.28 L 469.425 1089.28 L 475.304 1089.28 L 481.184 1089.28 L 487.064 1089.28 L 492.943 1089.28 L 498.823 1089.28 L 504.702 1089.28 L 510.582 1089.28 L 516.462 1089.28 L 522.341 1089.28 L 528.221 1089.28 L 534.1 1089.28 L 539.98 1089.28 L 545.86 1089.28 L 551.739 1089.28 L 557.619 1089.28 L 563.498 1089.28 L 569.378 1089.28 L 575.258 1089.28 L 581.137 1089.28 L 587.017 1089.28 L 592.896 1089.28 L 598.776 1089.28 L 604.656 1089.28 L 610.535 1089.28 L 616.415 1089.28 L 622.294 1089.28 L 628.174 1089.28 L 634.054 1089.28 L 639.933 1090.855 L 645.813 1090.855 L 651.692 1092.349 L 657.572 1092.349 L 663.452 1093.713 L 669.331 1093.713 L 675.211 1094.926 L 681.09 1094.926 L 686.97 1095.979 L 692.849 1095.979 L 698.729 1096.841 L 704.609 1096.841 L 710.488 1097.523 L 716.368 1097.523 L 722.247 1098.004 L 728.127 1098.004 L 734.007 1098.275 L 739.886 1098.275 L 745.766 1098.335 L 751.645 1098.335 L 757.525 1098.335 L 763.405 1098.335 L 769.284 1098.335 L 775.164 1098.335 L 781.043 1098.335 L 786.923 1098.335 L 792.803 1098.335 L 798.682 1098.335 L 804.562 1098.335 L 810.441 1098.335 L 816.321 1098.335 L 822.201 1098.335 L 828.08 1098.335 L 833.96 1098.335 L 839.839 1098.335 L 845.719 1098.335 L 851.599 1098.335 L 857.478 1098.335 L 863.358 1098.335 L 869.237 1098.335 L 875.117 1098.335 L 880.997 1098.335 L 886.876 1098.335 L 892.756 1098.335 L 898.635 1098.335 L 904.515 1098.335 L 910.395 1098.335 L 916.274 1098.335 L 922.154 1098.335 L 928.033 1098.335 L 933.913 1098.335 L 939.793 1098.335 L 945.672 1098.335 L 951.552 1098.335 L 957.431 1098.335 L 963.311 1098.335 L 969.191 1098.335 L 975.07 1098.335 L 980.95 1098.335 L 986.829 1098.335 L 992.709 1098.335 L 998.589 1098.335 L 1004.468 1098.335 L 1010.348 1098.335 L 1016.227 1098.335 L 1022.107 1098.335 L 1027.987 1098.335 L 1033.866 1073.798 L 1039.746 1073.798 L 1045.625 1073.326 L 1051.505 1073.326 L 1057.385 1073.086 L 1063.264 1073.086 L 1069.144 1073.066 L 1075.023 1073.066 L 1080.903 1073.066 L 1086.783 1073.066 L 1092.662 1073.066 L 1098.542 1073.066 L 1104.421 1073.066 L 1110.301 1073.066 L 1116.181 1073.066 L 1122.06 1073.066 L 1127.94 1073.066 L 1133.819 1073.066 L 1139.699 1073.066 L 1145.579 1073.066 L 1151.458 1073.066 L 1157.338 1073.066 L 1163.217 1073.066 L 1169.097 1073.066 L 1174.977 1073.066 L 1180.856 1073.066 L 1186.736 1073.066 L 1192.615 1073.066 L 1198.495 1073.066 L 1204.375 1073.066 L 1210.254 1073.066 L 1216.134 1073.066 L 1222.013 1073.066 L 1227.893 1073.066 L 1233.773 1073.066 L 1239.652 1073.066 L 1245.532 1073.066 L 1251.411 1073.066 L 1257.291 1073.066 L 1263.171 1073.066 L 1269.05 1073.066 L 1274.93 1073.066 L 1280.809 1073.066 L 1286.689 1073.066 L 1292.569 1073.066 L 1298.448 1073.066 L 1304.328 1073.066 L 1310.207 1074.961 L 1316.087 1074.961 L 1321.967 1076.826 L 1327.846 1076.826 L 1333.726 1078.541 L 1339.605 1078.541 L 1345.485 1080.095 L 1351.365 1080.095 L 1357.244 1081.449 L 1363.124 1081.449 L 1369.003 1082.622 L 1374.883 1082.622 L 1380.763 1083.575 L 1386.642 1083.575 L 1392.522 1084.317 L 1398.401 1084.317 L 1404.281 1084.828 L 1410.161 1084.828 L 1416.04 1085.119 L 1421.92 1085.119 L 1427.799 1085.179 L 1433.679 1085.179 L 1439.559 1085.179 L 1445.438 1085.179 L 1451.318 1085.179 L 1457.197 1085.179 L 1463.077 1085.179 L 1468.957 1085.179 L 1474.836 1085.179 L 1480.716 1085.179 L 1486.595 1096.34 L 1492.475 1096.34 L 1498.355 1096.34 L 1504.234 1096.34 L 1510.114 1096.34 L 1515.993 1096.34 L 1521.873 1096.34 L 1527.753 1096.34 L 1533.632 1096.34 L 1539.512 1096.34 L 1545.391 1096.34 L 1551.271 1096.34 L 1557.151 1096.34 L 1563.03 1096.34 L 1568.91 1096.34 L 1574.789 1096.34 L 1580.669 1096.34 L 1586.548 1096.34 L 1592.428 1096.34 L 1598.308 1096.34 L 1604.187 1096.34 L 1610.067 1096.34 L 1615.946 1096.34 L 1621.826 1096.34 L 1627.706 1096.34 L 1633.585 1096.34 L 1639.465 1096.34 L 1645.344 1096.34 L 1651.224 1096.34 L 1657.104 1096.34 L 1662.983 1096.34 L 1668.863 1096.34 L 1674.742 1096.34 L 1680.622 1096.34 L 1686.502 1096.34 L 1692.381 1096.34 L 1698.261 1096.34 L 1704.14 1096.34 L 1710.02 1096.34 L 1715.9 1096.34 L 1721.779 1096.34 L 1727.659 1096.34 L 1733.538 1096.34 L 1739.418 1096.34 L 1745.298 1096.34 L 1751.177 1096.34 L 1757.057 1096.34 L 1762.936 1096.34 L 1768.816 1096.34 L 1774.696 1096.34 L 1780.575 1096.34 L 1786.455 1096.34 L 1792.334 1096.34 L 1798.214 1096.34 L 1804.094 1096.34 L 1809.973 1096.34 L 1815.853 1096.34 L 1821.732 1096.34 L 1827.612 1096.34 L 1833.492 1096.34 L 1839.371 1096.34 L 1845.251 1096.34 L 1851.13 1096.34 L 1857.01 1096.34 L 1862.89 1096.34 L 1868.769 1096.34 L 1874.649 1096.34 L 1880.528 1096.34 L 1886.408 1096.34 L 1892.288 1096.34 L 1898.167 1096.34 L 1904.047 1096.34 L 1909.926 1096.34 L 1915.806 1096.34 L 1921.686 1096.34 L 1927.565 1096.34 L 1933.445 1096.34 L 1939.324 1096.34 L 1945.204 1096.34 L 1951.084 1096.34 L 1956.963 1096.34 L 1962.843 1096.34 L 1968.722 1096.34 L 1974.602 1096.34 L 1980.482 1097.483 L 1986.361 1097.483 L 1992.241 1098.827 L 1998.12 1098.827 L 2004 1100" fill="none" stroke="#f8fafc" stroke-width="4" stroke-linejoin="round" stroke-linecap="round"/>
<path d="M 246 1112.785 L 251.88 1112.785 L 257.759 1108.153 L 263.639 1108.153 L 269.518 1103.56 L 275.398 1103.56 L 281.278 1099.067 L 287.157 1099.067 L 293.037 1094.735 L 298.916 1094.735 L 304.796 1090.604 L 310.676 1090.604 L 316.555 1086.693 L 322.435 1086.693 L 328.314 1083.063 L 334.194 1083.063 L 340.074 1079.754 L 345.953 1079.754 L 351.833 1076.806 L 357.712 1076.806 L 363.592 1074.239 L 369.472 1074.239 L 375.351 1072.053 L 381.231 1072.053 L 387.11 1070.328 L 392.99 1070.328 L 398.87 1069.024 L 404.749 1069.024 L 410.629 1068.182 L 416.508 1068.182 L 422.388 1067.781 L 428.268 1067.781 L 434.147 1067.781 L 440.027 1067.781 L 445.906 1067.781 L 451.786 1067.781 L 457.666 1067.781 L 463.545 1067.781 L 469.425 1067.781 L 475.304 1067.781 L 481.184 1067.781 L 487.064 1067.781 L 492.943 1067.781 L 498.823 1067.781 L 504.702 1067.781 L 510.582 1067.781 L 516.462 1067.781 L 522.341 1067.781 L 528.221 1067.781 L 534.1 1067.781 L 539.98 1067.781 L 545.86 1067.781 L 551.739 1067.781 L 557.619 1067.781 L 563.498 1067.781 L 569.378 1067.781 L 575.258 1067.781 L 581.137 1067.781 L 587.017 1067.781 L 592.896 1067.781 L 598.776 1067.781 L 604.656 1067.781 L 610.535 1067.781 L 616.415 1067.781 L 622.294 1067.781 L 628.174 1067.781 L 634.054 1067.781 L 639.933 1067.781 L 645.813 1067.781 L 651.692 1067.781 L 657.572 1067.781 L 663.452 1067.781 L 669.331 1067.781 L 675.211 1067.781 L 681.09 1067.781 L 686.97 1067.781 L 692.849 1067.781 L 698.729 1067.781 L 704.609 1067.781 L 710.488 1067.781 L 716.368 1067.781 L 722.247 1067.781 L 728.127 1067.781 L 734.007 1067.781 L 739.886 1067.781 L 745.766 1067.781 L 751.645 1067.781 L 757.525 1067.781 L 763.405 1067.781 L 769.284 1067.781 L 775.164 1067.781 L 781.043 1067.781 L 786.923 1067.781 L 792.803 1067.781 L 798.682 1067.781 L 804.562 1067.781 L 810.441 1067.781 L 816.321 1067.781 L 822.201 1067.781 L 828.08 1067.781 L 833.96 1067.781 L 839.839 1067.781 L 845.719 1067.781 L 851.599 1067.781 L 857.478 1067.781 L 863.358 1067.781 L 869.237 1067.781 L 875.117 1067.781 L 880.997 1067.781 L 886.876 1067.781 L 892.756 1067.781 L 898.635 1067.781 L 904.515 1067.781 L 910.395 1067.781 L 916.274 1067.781 L 922.154 1067.781 L 928.033 1067.781 L 933.913 1067.781 L 939.793 1067.781 L 945.672 1067.781 L 951.552 1067.781 L 957.431 1067.781 L 963.311 1067.781 L 969.191 1067.781 L 975.07 1067.781 L 980.95 1067.781 L 986.829 1067.781 L 992.709 1067.781 L 998.589 1067.781 L 1004.468 1067.781 L 1010.348 1067.781 L 1016.227 1067.781 L 1022.107 1067.781 L 1027.987 1067.781 L 1033.866 1018.705 L 1039.746 1018.705 L 1045.625 1017.763 L 1051.505 1017.763 L 1057.385 1017.281 L 1063.264 1017.281 L 1069.144 1017.241 L 1075.023 1017.241 L 1080.903 1017.241 L 1086.783 1017.241 L 1092.662 1017.241 L 1098.542 1017.241 L 1104.421 1017.241 L 1110.301 1017.241 L 1116.181 1017.241 L 1122.06 1017.241 L 1127.94 1017.241 L 1133.819 1017.241 L 1139.699 1017.241 L 1145.579 1017.241 L 1151.458 1017.241 L 1157.338 1017.241 L 1163.217 1017.241 L 1169.097 1017.241 L 1174.977 1017.241 L 1180.856 1017.241 L 1186.736 1017.241 L 1192.615 1017.241 L 1198.495 1017.241 L 1204.375 1017.241 L 1210.254 1017.241 L 1216.134 1017.241 L 1222.013 1017.241 L 1227.893 1017.241 L 1233.773 1017.241 L 1239.652 1017.241 L 1245.532 1017.241 L 1251.411 1017.241 L 1257.291 1017.241 L 1263.171 1017.241 L 1269.05 1017.241 L 1274.93 1017.241 L 1280.809 1017.241 L 1286.689 1017.241 L 1292.569 1017.241 L 1298.448 1017.241 L 1304.328 1017.241 L 1310.207 1017.241 L 1316.087 1017.241 L 1321.967 1017.241 L 1327.846 1017.241 L 1333.726 1017.241 L 1339.605 1017.241 L 1345.485 1017.241 L 1351.365 1017.241 L 1357.244 1017.241 L 1363.124 1017.241 L 1369.003 1017.241 L 1374.883 1017.241 L 1380.763 1017.241 L 1386.642 1017.241 L 1392.522 1017.241 L 1398.401 1017.241 L 1404.281 1017.241 L 1410.161 1017.241 L 1416.04 1017.241 L 1421.92 1017.241 L 1427.799 1017.241 L 1433.679 1017.241 L 1439.559 1017.241 L 1445.438 1017.241 L 1451.318 1017.241 L 1457.197 1017.241 L 1463.077 1017.241 L 1468.957 1017.241 L 1474.836 1017.241 L 1480.716 1017.241 L 1486.595 1017.241 L 1492.475 1017.241 L 1498.355 1017.241 L 1504.234 1017.241 L 1510.114 1017.241 L 1515.993 1017.241 L 1521.873 1017.241 L 1527.753 1017.241 L 1533.632 1017.241 L 1539.512 1017.241 L 1545.391 1017.241 L 1551.271 1017.241 L 1557.151 1017.241 L 1563.03 1017.241 L 1568.91 1017.241 L 1574.789 1017.241 L 1580.669 1017.241 L 1586.548 1017.241 L 1592.428 1017.241 L 1598.308 1017.241 L 1604.187 1017.241 L 1610.067 1017.241 L 1615.946 1017.241 L 1621.826 1017.241 L 1627.706 1017.241 L 1633.585 1017.241 L 1639.465 1017.241 L 1645.344 1017.241 L 1651.224 1017.241 L 1657.104 1017.241 L 1662.983 1017.241 L 1668.863 1017.241 L 1674.742 1017.241 L 1680.622 1017.241 L 1686.502 1017.241 L 1692.381 1017.241 L 1698.261 1017.241 L 1704.14 1017.241 L 1710.02 1017.241 L 1715.9 1017.241 L 1721.779 1017.241 L 1727.659 1017.241 L 1733.538 1017.241 L 1739.418 1017.241 L 1745.298 1017.241 L 1751.177 1017.241 L 1757.057 1017.241 L 1762.936 1017.241 L 1768.816 1017.241 L 1774.696 1017.241 L 1780.575 1017.241 L 1786.455 1017.241 L 1792.334 1017.241 L 1798.214 1017.241 L 1804.094 1017.241 L 1809.973 1017.241 L 1815.853 1017.241 L 1821.732 1017.241 L 1827.612 1017.241 L 1833.492 1017.241 L 1839.371 1017.241 L 1845.251 1017.241 L 1851.13 1017.241 L 1857.01 1017.241 L 1862.89 1017.241 L 1868.769 1017.241 L 1874.649 1017.241 L 1880.528 1017.241 L 1886.408 1017.241 L 1892.288 1017.241 L 1898.167 1017.241 L 1904.047 1017.241 L 1909.926 1017.241 L 1915.806 1017.241 L 1921.686 1017.241 L 1927.565 1017.241 L 1933.445 1017.241 L 1939.324 1017.241 L 1945.204 1017.241 L 1951.084 1017.241 L 1956.963 1017.241 L 1962.843 1017.241 L 1968.722 1017.241 L 1974.602 1017.241 L 1980.482 1017.241 L 1986.361 1017.241 L 1992.241 1017.241 L 1998.12 1017.241 L 2004 1017.241" fill="none" stroke="#53f3c3" stroke-width="4" stroke-linejoin="round" stroke-linecap="round"/>
<path d="M 246 1110.78 L 251.88 1110.78 L 257.759 1110.78 L 263.639 1110.78 L 269.518 1110.78 L 275.398 1110.78 L 281.278 1110.78 L 287.157 1110.78 L 293.037 1110.78 L 298.916 1110.78 L 304.796 1110.78 L 310.676 1110.78 L 316.555 1110.78 L 322.435 1110.78 L 328.314 1110.78 L 334.194 1110.78 L 340.074 1110.78 L 345.953 1110.78 L 351.833 1110.78 L 357.712 1110.78 L 363.592 1110.78 L 369.472 1110.78 L 375.351 1110.78 L 381.231 1110.78 L 387.11 1110.78 L 392.99 1110.78 L 398.87 1110.78 L 404.749 1110.78 L 410.629 1110.78 L 416.508 1110.78 L 422.388 1110.78 L 428.268 1110.78 L 434.147 1110.78 L 440.027 1110.78 L 445.906 1110.78 L 451.786 1110.78 L 457.666 1110.78 L 463.545 1110.78 L 469.425 1110.78 L 475.304 1110.78 L 481.184 1110.78 L 487.064 1110.78 L 492.943 1110.78 L 498.823 1110.78 L 504.702 1110.78 L 510.582 1110.78 L 516.462 1110.78 L 522.341 1110.78 L 528.221 1110.78 L 534.1 1110.78 L 539.98 1110.78 L 545.86 1110.78 L 551.739 1110.78 L 557.619 1110.78 L 563.498 1110.78 L 569.378 1110.78 L 575.258 1110.78 L 581.137 1110.78 L 587.017 1110.78 L 592.896 1110.78 L 598.776 1110.78 L 604.656 1110.78 L 610.535 1110.78 L 616.415 1110.78 L 622.294 1110.78 L 628.174 1110.78 L 634.054 1110.78 L 639.933 1113.928 L 645.813 1113.928 L 651.692 1116.917 L 657.572 1116.917 L 663.452 1119.644 L 669.331 1119.644 L 675.211 1122.071 L 681.09 1122.071 L 686.97 1124.177 L 692.849 1124.177 L 698.729 1125.902 L 704.609 1125.902 L 710.488 1127.265 L 716.368 1127.265 L 722.247 1128.228 L 728.127 1128.228 L 734.007 1128.769 L 739.886 1128.769 L 745.766 1128.89 L 751.645 1128.89 L 757.525 1128.89 L 763.405 1128.89 L 769.284 1128.89 L 775.164 1128.89 L 781.043 1128.89 L 786.923 1128.89 L 792.803 1128.89 L 798.682 1128.89 L 804.562 1128.89 L 810.441 1128.89 L 816.321 1128.89 L 822.201 1128.89 L 828.08 1128.89 L 833.96 1128.89 L 839.839 1128.89 L 845.719 1128.89 L 851.599 1128.89 L 857.478 1128.89 L 863.358 1128.89 L 869.237 1128.89 L 875.117 1128.89 L 880.997 1128.89 L 886.876 1128.89 L 892.756 1128.89 L 898.635 1128.89 L 904.515 1128.89 L 910.395 1128.89 L 916.274 1128.89 L 922.154 1128.89 L 928.033 1128.89 L 933.913 1128.89 L 939.793 1128.89 L 945.672 1128.89 L 951.552 1128.89 L 957.431 1128.89 L 963.311 1128.89 L 969.191 1128.89 L 975.07 1128.89 L 980.95 1128.89 L 986.829 1128.89 L 992.709 1128.89 L 998.589 1128.89 L 1004.468 1128.89 L 1010.348 1128.89 L 1016.227 1128.89 L 1022.107 1128.89 L 1027.987 1128.89 L 1033.866 1128.89 L 1039.746 1128.89 L 1045.625 1128.89 L 1051.505 1128.89 L 1057.385 1128.89 L 1063.264 1128.89 L 1069.144 1128.89 L 1075.023 1128.89 L 1080.903 1128.89 L 1086.783 1128.89 L 1092.662 1128.89 L 1098.542 1128.89 L 1104.421 1128.89 L 1110.301 1128.89 L 1116.181 1128.89 L 1122.06 1128.89 L 1127.94 1128.89 L 1133.819 1128.89 L 1139.699 1128.89 L 1145.579 1128.89 L 1151.458 1128.89 L 1157.338 1128.89 L 1163.217 1128.89 L 1169.097 1128.89 L 1174.977 1128.89 L 1180.856 1128.89 L 1186.736 1128.89 L 1192.615 1128.89 L 1198.495 1128.89 L 1204.375 1128.89 L 1210.254 1128.89 L 1216.134 1128.89 L 1222.013 1128.89 L 1227.893 1128.89 L 1233.773 1128.89 L 1239.652 1128.89 L 1245.532 1128.89 L 1251.411 1128.89 L 1257.291 1128.89 L 1263.171 1128.89 L 1269.05 1128.89 L 1274.93 1128.89 L 1280.809 1128.89 L 1286.689 1128.89 L 1292.569 1128.89 L 1298.448 1128.89 L 1304.328 1128.89 L 1310.207 1132.68 L 1316.087 1132.68 L 1321.967 1136.411 L 1327.846 1136.411 L 1333.726 1139.84 L 1339.605 1139.84 L 1345.485 1142.949 L 1351.365 1142.949 L 1357.244 1145.656 L 1363.124 1145.656 L 1369.003 1148.003 L 1374.883 1148.003 L 1380.763 1149.908 L 1386.642 1149.908 L 1392.522 1151.392 L 1398.401 1151.392 L 1404.281 1152.415 L 1410.161 1152.415 L 1416.04 1152.996 L 1421.92 1152.996 L 1427.799 1153.117 L 1433.679 1153.117 L 1439.559 1153.117 L 1445.438 1153.117 L 1451.318 1153.117 L 1457.197 1153.117 L 1463.077 1153.117 L 1468.957 1153.117 L 1474.836 1153.117 L 1480.716 1153.117 L 1486.595 1175.438 L 1492.475 1175.438 L 1498.355 1175.438 L 1504.234 1175.438 L 1510.114 1175.438 L 1515.993 1175.438 L 1521.873 1175.438 L 1527.753 1175.438 L 1533.632 1175.438 L 1539.512 1175.438 L 1545.391 1175.438 L 1551.271 1175.438 L 1557.151 1175.438 L 1563.03 1175.438 L 1568.91 1175.438 L 1574.789 1175.438 L 1580.669 1175.438 L 1586.548 1175.438 L 1592.428 1175.438 L 1598.308 1175.438 L 1604.187 1175.438 L 1610.067 1175.438 L 1615.946 1175.438 L 1621.826 1175.438 L 1627.706 1175.438 L 1633.585 1175.438 L 1639.465 1175.438 L 1645.344 1175.438 L 1651.224 1175.438 L 1657.104 1175.438 L 1662.983 1175.438 L 1668.863 1175.438 L 1674.742 1175.438 L 1680.622 1175.438 L 1686.502 1175.438 L 1692.381 1175.438 L 1698.261 1175.438 L 1704.14 1175.438 L 1710.02 1175.438 L 1715.9 1175.438 L 1721.779 1175.438 L 1727.659 1175.438 L 1733.538 1175.438 L 1739.418 1175.438 L 1745.298 1175.438 L 1751.177 1175.438 L 1757.057 1175.438 L 1762.936 1175.438 L 1768.816 1175.438 L 1774.696 1175.438 L 1780.575 1175.438 L 1786.455 1175.438 L 1792.334 1175.438 L 1798.214 1175.438 L 1804.094 1175.438 L 1809.973 1175.438 L 1815.853 1175.438 L 1821.732 1175.438 L 1827.612 1175.438 L 1833.492 1175.438 L 1839.371 1175.438 L 1845.251 1175.438 L 1851.13 1175.438 L 1857.01 1175.438 L 1862.89 1175.438 L 1868.769 1175.438 L 1874.649 1175.438 L 1880.528 1175.438 L 1886.408 1175.438 L 1892.288 1175.438 L 1898.167 1175.438 L 1904.047 1175.438 L 1909.926 1175.438 L 1915.806 1175.438 L 1921.686 1175.438 L 1927.565 1175.438 L 1933.445 1175.438 L 1939.324 1175.438 L 1945.204 1175.438 L 1951.084 1175.438 L 1956.963 1175.438 L 1962.843 1175.438 L 1968.722 1175.438 L 1974.602 1175.438 L 1980.482 1177.725 L 1986.361 1177.725 L 1992.241 1180.412 L 1998.12 1180.412 L 2004 1182.759" fill="none" stroke="#ff6b8a" stroke-width="4" stroke-linejoin="round" stroke-linecap="round"/>
<line x1="268" y1="990" x2="302" y2="990" stroke="#f8fafc" stroke-width="5" stroke-linecap="round"/>
<text x="314" y="996" class="legend">midprice</text>
<line x1="454" y1="990" x2="488" y2="990" stroke="#53f3c3" stroke-width="5" stroke-linecap="round"/>
<text x="500" y="996" class="legend">best bid</text>
<line x1="640" y1="990" x2="674" y2="990" stroke="#ff6b8a" stroke-width="5" stroke-linecap="round"/>
<text x="686" y="996" class="legend">best ask</text>
<text x="1992" y="1226" text-anchor="end" class="tiny">USDT</text>

  <rect x="150" y="1284" width="1900" height="350" rx="26" class="panel" filter="url(#shadow)"/>
  <text x="186" y="1330" class="panel-title">Aggregate Trade Volume</text>
  <text x="186" y="1360" class="panel-subtitle">Stacked buy and sell volume per time bucket.</text>
  <rect x="246" y="1396" width="1758" height="192" rx="12" fill="#0b1627" stroke="#263c56" stroke-width="2"/>
<line x1="246" y1="1444" x2="2004" y2="1444" class="grid"/>
<line x1="246" y1="1492" x2="2004" y2="1492" class="grid"/>
<line x1="246" y1="1540" x2="2004" y2="1540" class="grid"/>
<line x1="539" y1="1396" x2="539" y2="1588" class="grid"/>
<line x1="832" y1="1396" x2="832" y2="1588" class="grid"/>
<line x1="1125" y1="1396" x2="1125" y2="1588" class="grid"/>
<line x1="1418" y1="1396" x2="1418" y2="1588" class="grid"/>
<line x1="1711" y1="1396" x2="1711" y2="1588" class="grid"/>
<line x1="246" y1="1588" x2="2004" y2="1588" class="axis"/>
<line x1="246" y1="1396" x2="246" y2="1588" class="axis"/>
<text x="232" y="1401" text-anchor="end" class="tick">7.632</text>
<text x="232" y="1449" text-anchor="end" class="tick">5.724</text>
<text x="232" y="1497" text-anchor="end" class="tick">3.816</text>
<text x="232" y="1545" text-anchor="end" class="tick">1.908</text>
<text x="232" y="1593" text-anchor="end" class="tick">0</text>
<rect x="259.3" y="1547.916" width="32" height="40.084" rx="3" fill="#39d353" opacity="0.9"/>
<rect x="259.3" y="1538.476" width="32" height="9.44" rx="3" fill="#ff5f6d" opacity="0.9"/>
<rect x="317.9" y="1537.784" width="32" height="50.216" rx="3" fill="#39d353" opacity="0.9"/>
<rect x="317.9" y="1527.99" width="32" height="9.794" rx="3" fill="#ff5f6d" opacity="0.9"/>
<rect x="376.5" y="1544.236" width="32" height="43.764" rx="3" fill="#39d353" opacity="0.9"/>
<rect x="376.5" y="1532.232" width="32" height="12.004" rx="3" fill="#ff5f6d" opacity="0.9"/>
<rect x="435.1" y="1547.241" width="32" height="40.759" rx="3" fill="#39d353" opacity="0.9"/>
<rect x="435.1" y="1522.665" width="32" height="24.575" rx="3" fill="#ff5f6d" opacity="0.9"/>
<rect x="493.7" y="1534.379" width="32" height="53.621" rx="3" fill="#39d353" opacity="0.9"/>
<rect x="493.7" y="1523.834" width="32" height="10.545" rx="3" fill="#ff5f6d" opacity="0.9"/>
<rect x="552.3" y="1530.306" width="32" height="57.694" rx="3" fill="#39d353" opacity="0.9"/>
<rect x="552.3" y="1521.056" width="32" height="9.251" rx="3" fill="#ff5f6d" opacity="0.9"/>
<rect x="610.9" y="1537.457" width="32" height="50.543" rx="3" fill="#39d353" opacity="0.9"/>
<rect x="610.9" y="1526.772" width="32" height="10.685" rx="3" fill="#ff5f6d" opacity="0.9"/>
<rect x="669.5" y="1540.26" width="32" height="47.74" rx="3" fill="#39d353" opacity="0.9"/>
<rect x="669.5" y="1522.551" width="32" height="17.709" rx="3" fill="#ff5f6d" opacity="0.9"/>
<rect x="728.1" y="1528.872" width="32" height="59.128" rx="3" fill="#39d353" opacity="0.9"/>
<rect x="728.1" y="1516.356" width="32" height="12.516" rx="3" fill="#ff5f6d" opacity="0.9"/>
<rect x="786.7" y="1517.815" width="32" height="70.185" rx="3" fill="#39d353" opacity="0.9"/>
<rect x="786.7" y="1507.734" width="32" height="10.081" rx="3" fill="#ff5f6d" opacity="0.9"/>
<rect x="845.3" y="1529.436" width="32" height="58.564" rx="3" fill="#39d353" opacity="0.9"/>
<rect x="845.3" y="1515.253" width="32" height="14.183" rx="3" fill="#ff5f6d" opacity="0.9"/>
<rect x="903.9" y="1553.405" width="32" height="34.595" rx="3" fill="#39d353" opacity="0.9"/>
<rect x="903.9" y="1534.102" width="32" height="19.303" rx="3" fill="#ff5f6d" opacity="0.9"/>
<rect x="962.5" y="1540.036" width="32" height="47.964" rx="3" fill="#39d353" opacity="0.9"/>
<rect x="962.5" y="1528.742" width="32" height="11.294" rx="3" fill="#ff5f6d" opacity="0.9"/>
<rect x="1021.1" y="1471.097" width="32" height="116.903" rx="3" fill="#39d353" opacity="0.9"/>
<rect x="1021.1" y="1450.936" width="32" height="20.161" rx="3" fill="#ff5f6d" opacity="0.9"/>
<rect x="1079.7" y="1467.702" width="32" height="120.298" rx="3" fill="#39d353" opacity="0.9"/>
<rect x="1079.7" y="1418.318" width="32" height="49.385" rx="3" fill="#ff5f6d" opacity="0.9"/>
<rect x="1138.3" y="1461.969" width="32" height="126.031" rx="3" fill="#39d353" opacity="0.9"/>
<rect x="1138.3" y="1416.571" width="32" height="45.398" rx="3" fill="#ff5f6d" opacity="0.9"/>
<rect x="1196.9" y="1519.837" width="32" height="68.163" rx="3" fill="#39d353" opacity="0.9"/>
<rect x="1196.9" y="1454.89" width="32" height="64.948" rx="3" fill="#ff5f6d" opacity="0.9"/>
<rect x="1255.5" y="1561.575" width="32" height="26.425" rx="3" fill="#39d353" opacity="0.9"/>
<rect x="1255.5" y="1500.281" width="32" height="61.294" rx="3" fill="#ff5f6d" opacity="0.9"/>
<rect x="1314.1" y="1560.16" width="32" height="27.84" rx="3" fill="#39d353" opacity="0.9"/>
<rect x="1314.1" y="1519.662" width="32" height="40.498" rx="3" fill="#ff5f6d" opacity="0.9"/>
<rect x="1372.7" y="1560.444" width="32" height="27.556" rx="3" fill="#39d353" opacity="0.9"/>
<rect x="1372.7" y="1506.517" width="32" height="53.927" rx="3" fill="#ff5f6d" opacity="0.9"/>
<rect x="1431.3" y="1571.303" width="32" height="16.697" rx="3" fill="#39d353" opacity="0.9"/>
<rect x="1431.3" y="1524.899" width="32" height="46.404" rx="3" fill="#ff5f6d" opacity="0.9"/>
<rect x="1489.9" y="1561.519" width="32" height="26.481" rx="3" fill="#39d353" opacity="0.9"/>
<rect x="1489.9" y="1523.118" width="32" height="38.402" rx="3" fill="#ff5f6d" opacity="0.9"/>
<rect x="1548.5" y="1560.494" width="32" height="27.506" rx="3" fill="#39d353" opacity="0.9"/>
<rect x="1548.5" y="1518.388" width="32" height="42.107" rx="3" fill="#ff5f6d" opacity="0.9"/>
<rect x="1607.1" y="1560.974" width="32" height="27.026" rx="3" fill="#39d353" opacity="0.9"/>
<rect x="1607.1" y="1520.005" width="32" height="40.969" rx="3" fill="#ff5f6d" opacity="0.9"/>
<rect x="1665.7" y="1561.204" width="32" height="26.796" rx="3" fill="#39d353" opacity="0.9"/>
<rect x="1665.7" y="1510.17" width="32" height="51.035" rx="3" fill="#ff5f6d" opacity="0.9"/>
<rect x="1724.3" y="1571.426" width="32" height="16.574" rx="3" fill="#39d353" opacity="0.9"/>
<rect x="1724.3" y="1523.562" width="32" height="47.864" rx="3" fill="#ff5f6d" opacity="0.9"/>
<rect x="1782.9" y="1565.952" width="32" height="22.048" rx="3" fill="#39d353" opacity="0.9"/>
<rect x="1782.9" y="1517.959" width="32" height="47.994" rx="3" fill="#ff5f6d" opacity="0.9"/>
<rect x="1841.5" y="1561.761" width="32" height="26.239" rx="3" fill="#39d353" opacity="0.9"/>
<rect x="1841.5" y="1524.583" width="32" height="37.178" rx="3" fill="#ff5f6d" opacity="0.9"/>
<rect x="1900.1" y="1576.648" width="32" height="11.352" rx="3" fill="#39d353" opacity="0.9"/>
<rect x="1900.1" y="1543.354" width="32" height="33.294" rx="3" fill="#ff5f6d" opacity="0.9"/>
<rect x="1958.7" y="1561.979" width="32" height="26.021" rx="3" fill="#39d353" opacity="0.9"/>
<rect x="1958.7" y="1518.573" width="32" height="43.406" rx="3" fill="#ff5f6d" opacity="0.9"/>
<line x1="268" y1="1382" x2="302" y2="1382" stroke="#39d353" stroke-width="5" stroke-linecap="round"/>
<text x="314" y="1388" class="legend">buy volume</text>
<line x1="478" y1="1382" x2="512" y2="1382" stroke="#ff5f6d" stroke-width="5" stroke-linecap="round"/>
<text x="524" y="1388" class="legend">sell volume</text>

  <rect x="150" y="1676" width="1900" height="350" rx="26" class="panel" filter="url(#shadow)"/>
  <text x="186" y="1722" class="panel-title">Bid-Ask Spread</text>
  <text x="186" y="1752" class="panel-subtitle">Quoted spread from the treated book. Spikes usually mean a book update widened the top of book.</text>
  <rect x="246" y="1788" width="1758" height="192" rx="12" fill="#0b1627" stroke="#263c56" stroke-width="2"/>
<line x1="246" y1="1836" x2="2004" y2="1836" class="grid"/>
<line x1="246" y1="1884" x2="2004" y2="1884" class="grid"/>
<line x1="246" y1="1932" x2="2004" y2="1932" class="grid"/>
<line x1="539" y1="1788" x2="539" y2="1980" class="grid"/>
<line x1="832" y1="1788" x2="832" y2="1980" class="grid"/>
<line x1="1125" y1="1788" x2="1125" y2="1980" class="grid"/>
<line x1="1418" y1="1788" x2="1418" y2="1980" class="grid"/>
<line x1="1711" y1="1788" x2="1711" y2="1980" class="grid"/>
<line x1="246" y1="1980" x2="2004" y2="1980" class="axis"/>
<line x1="246" y1="1788" x2="246" y2="1980" class="axis"/>
<text x="232" y="1793" text-anchor="end" class="tick">1.08</text>
<text x="232" y="1841" text-anchor="end" class="tick">0.79</text>
<text x="232" y="1889" text-anchor="end" class="tick">0.5</text>
<text x="232" y="1937" text-anchor="end" class="tick">0.21</text>
<text x="232" y="1985" text-anchor="end" class="tick">-0.08</text>
<line x1="246" y1="1966.759" x2="2004" y2="1966.759" stroke="#b6c2d1" stroke-width="2" opacity="0.5"/>
<path d="M 246 1801.241 L 251.88 1801.241 L 257.759 1966.759 L 263.639 1966.759 L 269.518 1966.759 L 275.398 1966.759 L 281.278 1966.759 L 287.157 1966.759 L 293.037 1966.759 L 298.916 1966.759 L 304.796 1966.759 L 310.676 1966.759 L 316.555 1966.759 L 322.435 1966.759 L 328.314 1966.759 L 334.194 1966.759 L 340.074 1966.759 L 345.953 1966.759 L 351.833 1966.759 L 357.712 1966.759 L 363.592 1966.759 L 369.472 1966.759 L 375.351 1966.759 L 381.231 1966.759 L 387.11 1966.759 L 392.99 1966.759 L 398.87 1966.759 L 404.749 1966.759 L 410.629 1966.759 L 416.508 1966.759 L 422.388 1966.759 L 428.268 1966.759 L 434.147 1966.759 L 440.027 1966.759 L 445.906 1966.759 L 451.786 1966.759 L 457.666 1966.759 L 463.545 1966.759 L 469.425 1966.759 L 475.304 1966.759 L 481.184 1966.759 L 487.064 1966.759 L 492.943 1966.759 L 498.823 1966.759 L 504.702 1966.759 L 510.582 1966.759 L 516.462 1966.759 L 522.341 1966.759 L 528.221 1966.759 L 534.1 1966.759 L 539.98 1966.759 L 545.86 1966.759 L 551.739 1966.759 L 557.619 1966.759 L 563.498 1966.759 L 569.378 1966.759 L 575.258 1966.759 L 581.137 1966.759 L 587.017 1966.759 L 592.896 1966.759 L 598.776 1966.759 L 604.656 1966.759 L 610.535 1966.759 L 616.415 1966.759 L 622.294 1966.759 L 628.174 1966.759 L 634.054 1966.759 L 639.933 1966.759 L 645.813 1966.759 L 651.692 1966.759 L 657.572 1966.759 L 663.452 1966.759 L 669.331 1966.759 L 675.211 1966.759 L 681.09 1966.759 L 686.97 1966.759 L 692.849 1966.759 L 698.729 1966.759 L 704.609 1966.759 L 710.488 1966.759 L 716.368 1966.759 L 722.247 1966.759 L 728.127 1966.759 L 734.007 1966.759 L 739.886 1966.759 L 745.766 1966.759 L 751.645 1966.759 L 757.525 1966.759 L 763.405 1966.759 L 769.284 1966.759 L 775.164 1966.759 L 781.043 1966.759 L 786.923 1966.759 L 792.803 1966.759 L 798.682 1966.759 L 804.562 1966.759 L 810.441 1966.759 L 816.321 1966.759 L 822.201 1966.759 L 828.08 1966.759 L 833.96 1966.759 L 839.839 1966.759 L 845.719 1966.759 L 851.599 1966.759 L 857.478 1966.759 L 863.358 1966.759 L 869.237 1966.759 L 875.117 1966.759 L 880.997 1966.759 L 886.876 1966.759 L 892.756 1966.759 L 898.635 1966.759 L 904.515 1966.759 L 910.395 1966.759 L 916.274 1966.759 L 922.154 1966.759 L 928.033 1966.759 L 933.913 1966.759 L 939.793 1966.759 L 945.672 1966.759 L 951.552 1966.759 L 957.431 1966.759 L 963.311 1966.759 L 969.191 1966.759 L 975.07 1966.759 L 980.95 1966.759 L 986.829 1966.759 L 992.709 1966.759 L 998.589 1966.759 L 1004.468 1966.759 L 1010.348 1966.759 L 1016.227 1966.759 L 1022.107 1966.759 L 1027.987 1966.759 L 1033.866 1966.759 L 1039.746 1966.759 L 1045.625 1966.759 L 1051.505 1966.759 L 1057.385 1966.759 L 1063.264 1966.759 L 1069.144 1966.759 L 1075.023 1966.759 L 1080.903 1966.759 L 1086.783 1966.759 L 1092.662 1966.759 L 1098.542 1966.759 L 1104.421 1966.759 L 1110.301 1966.759 L 1116.181 1966.759 L 1122.06 1966.759 L 1127.94 1966.759 L 1133.819 1966.759 L 1139.699 1966.759 L 1145.579 1966.759 L 1151.458 1966.759 L 1157.338 1966.759 L 1163.217 1966.759 L 1169.097 1966.759 L 1174.977 1966.759 L 1180.856 1966.759 L 1186.736 1966.759 L 1192.615 1966.759 L 1198.495 1966.759 L 1204.375 1966.759 L 1210.254 1966.759 L 1216.134 1966.759 L 1222.013 1966.759 L 1227.893 1966.759 L 1233.773 1966.759 L 1239.652 1966.759 L 1245.532 1966.759 L 1251.411 1966.759 L 1257.291 1966.759 L 1263.171 1966.759 L 1269.05 1966.759 L 1274.93 1966.759 L 1280.809 1966.759 L 1286.689 1966.759 L 1292.569 1966.759 L 1298.448 1966.759 L 1304.328 1966.759 L 1310.207 1966.759 L 1316.087 1966.759 L 1321.967 1966.759 L 1327.846 1966.759 L 1333.726 1966.759 L 1339.605 1966.759 L 1345.485 1966.759 L 1351.365 1966.759 L 1357.244 1966.759 L 1363.124 1966.759 L 1369.003 1966.759 L 1374.883 1966.759 L 1380.763 1966.759 L 1386.642 1966.759 L 1392.522 1966.759 L 1398.401 1966.759 L 1404.281 1966.759 L 1410.161 1966.759 L 1416.04 1966.759 L 1421.92 1966.759 L 1427.799 1966.759 L 1433.679 1966.759 L 1439.559 1966.759 L 1445.438 1966.759 L 1451.318 1966.759 L 1457.197 1966.759 L 1463.077 1966.759 L 1468.957 1966.759 L 1474.836 1966.759 L 1480.716 1966.759 L 1486.595 1966.759 L 1492.475 1966.759 L 1498.355 1966.759 L 1504.234 1966.759 L 1510.114 1966.759 L 1515.993 1966.759 L 1521.873 1966.759 L 1527.753 1966.759 L 1533.632 1966.759 L 1539.512 1966.759 L 1545.391 1966.759 L 1551.271 1966.759 L 1557.151 1966.759 L 1563.03 1966.759 L 1568.91 1966.759 L 1574.789 1966.759 L 1580.669 1966.759 L 1586.548 1966.759 L 1592.428 1966.759 L 1598.308 1966.759 L 1604.187 1966.759 L 1610.067 1966.759 L 1615.946 1966.759 L 1621.826 1966.759 L 1627.706 1966.759 L 1633.585 1966.759 L 1639.465 1966.759 L 1645.344 1966.759 L 1651.224 1966.759 L 1657.104 1966.759 L 1662.983 1966.759 L 1668.863 1966.759 L 1674.742 1966.759 L 1680.622 1966.759 L 1686.502 1966.759 L 1692.381 1966.759 L 1698.261 1966.759 L 1704.14 1966.759 L 1710.02 1966.759 L 1715.9 1966.759 L 1721.779 1966.759 L 1727.659 1966.759 L 1733.538 1966.759 L 1739.418 1966.759 L 1745.298 1966.759 L 1751.177 1966.759 L 1757.057 1966.759 L 1762.936 1966.759 L 1768.816 1966.759 L 1774.696 1966.759 L 1780.575 1966.759 L 1786.455 1966.759 L 1792.334 1966.759 L 1798.214 1966.759 L 1804.094 1966.759 L 1809.973 1966.759 L 1815.853 1966.759 L 1821.732 1966.759 L 1827.612 1966.759 L 1833.492 1966.759 L 1839.371 1966.759 L 1845.251 1966.759 L 1851.13 1966.759 L 1857.01 1966.759 L 1862.89 1966.759 L 1868.769 1966.759 L 1874.649 1966.759 L 1880.528 1966.759 L 1886.408 1966.759 L 1892.288 1966.759 L 1898.167 1966.759 L 1904.047 1966.759 L 1909.926 1966.759 L 1915.806 1966.759 L 1921.686 1966.759 L 1927.565 1966.759 L 1933.445 1966.759 L 1939.324 1966.759 L 1945.204 1966.759 L 1951.084 1966.759 L 1956.963 1966.759 L 1962.843 1966.759 L 1968.722 1966.759 L 1974.602 1966.759 L 1980.482 1966.759 L 1986.361 1966.759 L 1992.241 1966.759 L 1998.12 1966.759 L 2004 1966.759" fill="none" stroke="#ffd166" stroke-width="4" stroke-linejoin="round" stroke-linecap="round"/>
<line x1="268" y1="1774" x2="302" y2="1774" stroke="#ffd166" stroke-width="5" stroke-linecap="round"/>
<text x="314" y="1780" class="legend">spread</text>
<text x="1992" y="2010" text-anchor="end" class="tiny">USDT</text>

  <rect x="150" y="2068" width="1900" height="350" rx="26" class="panel" filter="url(#shadow)"/>
  <text x="186" y="2114" class="panel-title">Order-Flow Imbalance</text>
  <text x="186" y="2144" class="panel-subtitle">Book imbalance and trade imbalance on the configured rolling window.</text>
  <rect x="246" y="2180" width="1758" height="192" rx="12" fill="#0b1627" stroke="#263c56" stroke-width="2"/>
<line x1="246" y1="2228" x2="2004" y2="2228" class="grid"/>
<line x1="246" y1="2276" x2="2004" y2="2276" class="grid"/>
<line x1="246" y1="2324" x2="2004" y2="2324" class="grid"/>
<line x1="539" y1="2180" x2="539" y2="2372" class="grid"/>
<line x1="832" y1="2180" x2="832" y2="2372" class="grid"/>
<line x1="1125" y1="2180" x2="1125" y2="2372" class="grid"/>
<line x1="1418" y1="2180" x2="1418" y2="2372" class="grid"/>
<line x1="1711" y1="2180" x2="1711" y2="2372" class="grid"/>
<line x1="246" y1="2372" x2="2004" y2="2372" class="axis"/>
<line x1="246" y1="2180" x2="246" y2="2372" class="axis"/>
<text x="232" y="2185" text-anchor="end" class="tick">0.812</text>
<text x="232" y="2233" text-anchor="end" class="tick">0.325</text>
<text x="232" y="2281" text-anchor="end" class="tick">-0.161</text>
<text x="232" y="2329" text-anchor="end" class="tick">-0.648</text>
<text x="232" y="2377" text-anchor="end" class="tick">-1.134</text>
<line x1="246" y1="2260.083" x2="2004" y2="2260.083" stroke="#b6c2d1" stroke-width="2" opacity="0.5"/>
<path d="M 246 2260.596 L 251.88 2257.721 L 257.759 2260.301 L 263.639 2260.301 L 269.518 2263.367 L 275.398 2263.367 L 281.278 2263.944 L 287.157 2263.944 L 293.037 2262.76 L 298.916 2262.76 L 304.796 2259.29 L 310.676 2259.29 L 316.555 2257.078 L 322.435 2257.078 L 328.314 2252.623 L 334.194 2252.623 L 340.074 2249.441 L 345.953 2249.441 L 351.833 2247.318 L 357.712 2247.318 L 363.592 2246.4 L 369.472 2246.4 L 375.351 2244.155 L 381.231 2244.155 L 387.11 2245.716 L 392.99 2245.716 L 398.87 2247.269 L 404.749 2247.269 L 410.629 2245.262 L 416.508 2245.262 L 422.388 2245.652 L 428.268 2245.652 L 434.147 2247.152 L 440.027 2247.152 L 445.906 2245.078 L 451.786 2245.078 L 457.666 2245.078 L 463.545 2245.078 L 469.425 2245.078 L 475.304 2245.078 L 481.184 2245.078 L 487.064 2245.078 L 492.943 2245.078 L 498.823 2245.078 L 504.702 2245.078 L 510.582 2245.078 L 516.462 2245.078 L 522.341 2245.078 L 528.221 2245.078 L 534.1 2245.078 L 539.98 2245.078 L 545.86 2245.078 L 551.739 2245.078 L 557.619 2245.078 L 563.498 2245.078 L 569.378 2245.078 L 575.258 2245.078 L 581.137 2245.078 L 587.017 2245.078 L 592.896 2245.078 L 598.776 2245.078 L 604.656 2245.078 L 610.535 2245.078 L 616.415 2245.078 L 622.294 2245.078 L 628.174 2236.994 L 634.054 2236.994 L 639.933 2229.168 L 645.813 2229.168 L 651.692 2219.503 L 657.572 2219.503 L 663.452 2215.763 L 669.331 2215.763 L 675.211 2220.23 L 681.09 2220.23 L 686.97 2222.26 L 692.849 2222.26 L 698.729 2224.667 L 704.609 2224.667 L 710.488 2230.339 L 716.368 2230.339 L 722.247 2236.134 L 728.127 2236.134 L 734.007 2238.152 L 739.886 2238.152 L 745.766 2238.889 L 751.645 2238.889 L 757.525 2244.369 L 763.405 2244.369 L 769.284 2249.52 L 775.164 2249.52 L 781.043 2249.52 L 786.923 2249.52 L 792.803 2249.52 L 798.682 2249.52 L 804.562 2249.52 L 810.441 2249.52 L 816.321 2249.52 L 822.201 2249.52 L 828.08 2249.52 L 833.96 2249.52 L 839.839 2249.52 L 845.719 2249.52 L 851.599 2249.52 L 857.478 2249.52 L 863.358 2249.52 L 869.237 2249.52 L 875.117 2249.52 L 880.997 2249.52 L 886.876 2249.52 L 892.756 2249.52 L 898.635 2249.52 L 904.515 2249.52 L 910.395 2249.52 L 916.274 2249.52 L 922.154 2249.52 L 928.033 2249.52 L 933.913 2249.52 L 939.793 2249.52 L 945.672 2249.52 L 951.552 2249.52 L 957.431 2249.52 L 963.311 2249.52 L 969.191 2249.52 L 975.07 2249.52 L 980.95 2249.52 L 986.829 2249.52 L 992.709 2249.52 L 998.589 2249.52 L 1004.468 2249.52 L 1010.348 2249.52 L 1016.227 2249.52 L 1022.107 2252.563 L 1027.987 2252.563 L 1033.866 2259.085 L 1039.746 2259.085 L 1045.625 2260.97 L 1051.505 2260.97 L 1057.385 2271.005 L 1063.264 2271.005 L 1069.144 2278.584 L 1075.023 2278.584 L 1080.903 2291.304 L 1086.783 2291.304 L 1092.662 2292.033 L 1098.542 2292.033 L 1104.421 2292.033 L 1110.301 2292.033 L 1116.181 2292.033 L 1122.06 2292.033 L 1127.94 2292.033 L 1133.819 2292.033 L 1139.699 2292.033 L 1145.579 2292.033 L 1151.458 2292.033 L 1157.338 2292.033 L 1163.217 2292.033 L 1169.097 2292.033 L 1174.977 2292.033 L 1180.856 2292.033 L 1186.736 2292.033 L 1192.615 2292.033 L 1198.495 2292.033 L 1204.375 2292.033 L 1210.254 2292.033 L 1216.134 2292.033 L 1222.013 2292.033 L 1227.893 2292.033 L 1233.773 2292.033 L 1239.652 2292.033 L 1245.532 2292.033 L 1251.411 2292.033 L 1257.291 2292.033 L 1263.171 2292.033 L 1269.05 2292.033 L 1274.93 2292.033 L 1280.809 2292.033 L 1286.689 2292.033 L 1292.569 2292.033 L 1298.448 2293.79 L 1304.328 2293.79 L 1310.207 2294.868 L 1316.087 2294.868 L 1321.967 2298.68 L 1327.846 2298.68 L 1333.726 2296.1 L 1339.605 2296.1 L 1345.485 2299.756 L 1351.365 2299.756 L 1357.244 2301.549 L 1363.124 2301.549 L 1369.003 2303.181 L 1374.883 2303.181 L 1380.763 2300.621 L 1386.642 2300.621 L 1392.522 2300.196 L 1398.401 2300.196 L 1404.281 2299.12 L 1410.161 2299.12 L 1416.04 2297.612 L 1421.92 2297.612 L 1427.799 2294.488 L 1433.679 2294.488 L 1439.559 2295.082 L 1445.438 2295.082 L 1451.318 2293.582 L 1457.197 2293.582 L 1463.077 2293.582 L 1468.957 2293.582 L 1474.836 2293.582 L 1480.716 2293.582 L 1486.595 2290.723 L 1492.475 2290.723 L 1498.355 2283.666 L 1504.234 2283.666 L 1510.114 2276.644 L 1515.993 2276.644 L 1521.873 2267.568 L 1527.753 2267.568 L 1533.632 2254.786 L 1539.512 2254.786 L 1545.391 2254.786 L 1551.271 2254.786 L 1557.151 2254.786 L 1563.03 2254.786 L 1568.91 2254.786 L 1574.789 2254.786 L 1580.669 2254.786 L 1586.548 2254.786 L 1592.428 2254.786 L 1598.308 2254.786 L 1604.187 2254.786 L 1610.067 2254.786 L 1615.946 2254.786 L 1621.826 2254.786 L 1627.706 2254.786 L 1633.585 2254.786 L 1639.465 2254.786 L 1645.344 2254.786 L 1651.224 2254.786 L 1657.104 2254.786 L 1662.983 2254.786 L 1668.863 2254.786 L 1674.742 2254.786 L 1680.622 2254.786 L 1686.502 2254.786 L 1692.381 2254.786 L 1698.261 2254.786 L 1704.14 2254.786 L 1710.02 2254.786 L 1715.9 2254.786 L 1721.779 2254.786 L 1727.659 2254.786 L 1733.538 2254.786 L 1739.418 2254.786 L 1745.298 2254.786 L 1751.177 2254.786 L 1757.057 2254.786 L 1762.936 2254.786 L 1768.816 2254.786 L 1774.696 2254.786 L 1780.575 2254.786 L 1786.455 2254.786 L 1792.334 2254.786 L 1798.214 2254.786 L 1804.094 2254.786 L 1809.973 2254.786 L 1815.853 2254.786 L 1821.732 2254.786 L 1827.612 2254.786 L 1833.492 2254.786 L 1839.371 2254.786 L 1845.251 2254.786 L 1851.13 2254.786 L 1857.01 2254.786 L 1862.89 2254.786 L 1868.769 2254.786 L 1874.649 2254.786 L 1880.528 2254.786 L 1886.408 2254.786 L 1892.288 2254.786 L 1898.167 2254.786 L 1904.047 2254.786 L 1909.926 2254.786 L 1915.806 2254.786 L 1921.686 2254.786 L 1927.565 2254.786 L 1933.445 2254.786 L 1939.324 2254.786 L 1945.204 2261.463 L 1951.084 2261.463 L 1956.963 2265.39 L 1962.843 2265.39 L 1968.722 2261.448 L 1974.602 2261.448 L 1980.482 2264.329 L 1986.361 2264.329 L 1992.241 2261.944 L 1998.12 2261.944 L 2004 2267.097" fill="none" stroke="#7cc7ff" stroke-width="4" stroke-linejoin="round" stroke-linecap="round"/>
<path d="M 246 2358.759 L 251.88 2304.452 L 257.759 2259.118 L 263.639 2217.196 L 269.518 2202.002 L 275.398 2212.069 L 281.278 2210.695 L 287.157 2202.771 L 293.037 2202.018 L 298.916 2199.028 L 304.796 2202.384 L 310.676 2195.968 L 316.555 2193.875 L 322.435 2193.545 L 328.314 2193.241 L 334.194 2212.811 L 340.074 2209.415 L 345.953 2206.03 L 351.833 2200.548 L 357.712 2196.063 L 363.592 2204.767 L 369.472 2203.594 L 375.351 2200.64 L 381.231 2198.144 L 387.11 2197.286 L 392.99 2203.731 L 398.87 2202.45 L 404.749 2202.17 L 410.629 2199.375 L 416.508 2198.704 L 422.388 2209.742 L 428.268 2208.978 L 434.147 2208.447 L 440.027 2207.221 L 445.906 2204.746 L 451.786 2213.774 L 457.666 2213.263 L 463.545 2212.14 L 469.425 2209.927 L 475.304 2209.167 L 481.184 2211.326 L 487.064 2209.157 L 492.943 2207.945 L 498.823 2207.366 L 504.702 2205.519 L 510.582 2209.558 L 516.462 2209.353 L 522.341 2208.632 L 528.221 2207.598 L 534.1 2205.831 L 539.98 2209.975 L 545.86 2208.188 L 551.739 2208.082 L 557.619 2207.257 L 563.498 2205.561 L 569.378 2206.037 L 575.258 2205.607 L 581.137 2204.475 L 587.017 2202.939 L 592.896 2202.657 L 598.776 2203.843 L 604.656 2202.564 L 610.535 2202.242 L 616.415 2201.639 L 622.294 2201.182 L 628.174 2204.325 L 634.054 2203.136 L 639.933 2202.375 L 645.813 2201.947 L 651.692 2201.671 L 657.572 2204.157 L 663.452 2203.323 L 669.331 2203.145 L 675.211 2202.915 L 681.09 2202.862 L 686.97 2206.606 L 692.849 2205.588 L 698.729 2204.776 L 704.609 2203.918 L 710.488 2203.431 L 716.368 2206.763 L 722.247 2205.771 L 728.127 2204.856 L 734.007 2203.972 L 739.886 2203.871 L 745.766 2204.395 L 751.645 2203.4 L 757.525 2203.237 L 763.405 2202.76 L 769.284 2202.466 L 775.164 2202.76 L 781.043 2201.849 L 786.923 2201.056 L 792.803 2200.367 L 798.682 2199.83 L 804.562 2202.171 L 810.441 2202.046 L 816.321 2201.452 L 822.201 2200.774 L 828.08 2200.426 L 833.96 2201.741 L 839.839 2199.646 L 845.719 2199.271 L 851.599 2199.229 L 857.478 2199.364 L 863.358 2202.08 L 869.237 2201.38 L 875.117 2201.131 L 880.997 2200.883 L 886.876 2200.258 L 892.756 2203.149 L 898.635 2202.777 L 904.515 2203.206 L 910.395 2203.017 L 916.274 2202.65 L 922.154 2204.484 L 928.033 2201.861 L 933.913 2202.105 L 939.793 2202.363 L 945.672 2202.897 L 951.552 2204.23 L 957.431 2202.449 L 963.311 2202.607 L 969.191 2202.409 L 975.07 2202.558 L 980.95 2204.881 L 986.829 2203.349 L 992.709 2202.951 L 998.589 2202.979 L 1004.468 2203.069 L 1010.348 2203.887 L 1016.227 2200.452 L 1022.107 2200.045 L 1027.987 2199.109 L 1033.866 2199.061 L 1039.746 2203.677 L 1045.625 2200.656 L 1051.505 2199.472 L 1057.385 2198.472 L 1063.264 2197.788 L 1069.144 2202.79 L 1075.023 2201.237 L 1080.903 2200.729 L 1086.783 2200.562 L 1092.662 2199.683 L 1098.542 2205.398 L 1104.421 2202.798 L 1110.301 2202.753 L 1116.181 2202.478 L 1122.06 2201.964 L 1127.94 2206.29 L 1133.819 2203.688 L 1139.699 2203.705 L 1145.579 2202.808 L 1151.458 2202.129 L 1157.338 2206.87 L 1163.217 2205.552 L 1169.097 2205.537 L 1174.977 2205.219 L 1180.856 2205.407 L 1186.736 2207.533 L 1192.615 2206.267 L 1198.495 2206.343 L 1204.375 2206.134 L 1210.254 2205.291 L 1216.134 2205.186 L 1222.013 2206.911 L 1227.893 2209.408 L 1233.773 2209.661 L 1239.652 2212.806 L 1245.532 2216.687 L 1251.411 2215.096 L 1257.291 2216.246 L 1263.171 2217.055 L 1269.05 2216.842 L 1274.93 2218.39 L 1280.809 2217.119 L 1286.689 2217.286 L 1292.569 2218.809 L 1298.448 2219.826 L 1304.328 2219.476 L 1310.207 2218.276 L 1316.087 2219.086 L 1321.967 2219.45 L 1327.846 2221.147 L 1333.726 2221.958 L 1339.605 2221.403 L 1345.485 2223.617 L 1351.365 2225.427 L 1357.244 2225.425 L 1363.124 2226.237 L 1369.003 2227.387 L 1374.883 2227.568 L 1380.763 2228.397 L 1386.642 2230.422 L 1392.522 2230.237 L 1398.401 2230.686 L 1404.281 2232.126 L 1410.161 2232.29 L 1416.04 2233.564 L 1421.92 2234.036 L 1427.799 2232.975 L 1433.679 2233.447 L 1439.559 2234.427 L 1445.438 2234.659 L 1451.318 2236.624 L 1457.197 2236.943 L 1463.077 2236.454 L 1468.957 2238.168 L 1474.836 2239.971 L 1480.716 2240.182 L 1486.595 2239.41 L 1492.475 2240.844 L 1498.355 2240.778 L 1504.234 2241.765 L 1510.114 2242.858 L 1515.993 2241.019 L 1521.873 2242.081 L 1527.753 2243.441 L 1533.632 2243.389 L 1539.512 2245.068 L 1545.391 2244.941 L 1551.271 2244.542 L 1557.151 2245.109 L 1563.03 2246.991 L 1568.91 2246.841 L 1574.789 2246.105 L 1580.669 2247.528 L 1586.548 2247.658 L 1592.428 2247.837 L 1598.308 2248.94 L 1604.187 2247.797 L 1610.067 2248.65 L 1615.946 2250.169 L 1621.826 2251.453 L 1627.706 2252.784 L 1633.585 2251.668 L 1639.465 2250.847 L 1645.344 2253.852 L 1651.224 2256.713 L 1657.104 2257.805 L 1662.983 2256.567 L 1668.863 2259.1 L 1674.742 2261.092 L 1680.622 2263.406 L 1686.502 2265.936 L 1692.381 2262.093 L 1698.261 2265.864 L 1704.14 2266.743 L 1710.02 2267.478 L 1715.9 2269.815 L 1721.779 2268.027 L 1727.659 2270.449 L 1733.538 2272.89 L 1739.418 2275.893 L 1745.298 2277.206 L 1751.177 2276.041 L 1757.057 2280.498 L 1762.936 2280.721 L 1768.816 2283.599 L 1774.696 2285.129 L 1780.575 2282.468 L 1786.455 2285.401 L 1792.334 2287.097 L 1798.214 2287.938 L 1804.094 2293.32 L 1809.973 2295.545 L 1815.853 2291.992 L 1821.732 2291.924 L 1827.612 2293.032 L 1833.492 2290.303 L 1839.371 2288.396 L 1845.251 2290.799 L 1851.13 2288.951 L 1857.01 2288.787 L 1862.89 2290.76 L 1868.769 2287.694 L 1874.649 2288.761 L 1880.528 2290.706 L 1886.408 2289.236 L 1892.288 2289.695 L 1898.167 2292.141 L 1904.047 2291.652 L 1909.926 2292.019 L 1915.806 2293.265 L 1921.686 2292.251 L 1927.565 2292.644 L 1933.445 2293.829 L 1939.324 2291.178 L 1945.204 2290.036 L 1951.084 2291.584 L 1956.963 2289.744 L 1962.843 2289.291 L 1968.722 2291.533 L 1974.602 2289.001 L 1980.482 2288.184 L 1986.361 2291.482 L 1992.241 2289.003 L 1998.12 2288.831 L 2004 2290.945" fill="none" stroke="#ff9f43" stroke-width="4" stroke-linejoin="round" stroke-linecap="round"/>
<line x1="268" y1="2166" x2="302" y2="2166" stroke="#7cc7ff" stroke-width="5" stroke-linecap="round"/>
<text x="314" y="2172" class="legend">book OFI</text>
<line x1="454" y1="2166" x2="488" y2="2166" stroke="#ff9f43" stroke-width="5" stroke-linecap="round"/>
<text x="500" y="2172" class="legend">trade imbalance</text>
<text x="1992" y="2402" text-anchor="end" class="tiny">ratio</text>

  <rect x="150" y="2460" width="1900" height="350" rx="26" class="panel" filter="url(#shadow)"/>
  <text x="186" y="2506" class="panel-title">Top-5 Depth</text>
  <text x="186" y="2536" class="panel-subtitle">Total bid and ask liquidity across the top five book levels.</text>
  <rect x="246" y="2572" width="1758" height="192" rx="12" fill="#0b1627" stroke="#263c56" stroke-width="2"/>
<line x1="246" y1="2620" x2="2004" y2="2620" class="grid"/>
<line x1="246" y1="2668" x2="2004" y2="2668" class="grid"/>
<line x1="246" y1="2716" x2="2004" y2="2716" class="grid"/>
<line x1="539" y1="2572" x2="539" y2="2764" class="grid"/>
<line x1="832" y1="2572" x2="832" y2="2764" class="grid"/>
<line x1="1125" y1="2572" x2="1125" y2="2764" class="grid"/>
<line x1="1418" y1="2572" x2="1418" y2="2764" class="grid"/>
<line x1="1711" y1="2572" x2="1711" y2="2764" class="grid"/>
<line x1="246" y1="2764" x2="2004" y2="2764" class="axis"/>
<line x1="246" y1="2572" x2="246" y2="2764" class="axis"/>
<text x="232" y="2577" text-anchor="end" class="tick">10.911</text>
<text x="232" y="2625" text-anchor="end" class="tick">8.962</text>
<text x="232" y="2673" text-anchor="end" class="tick">7.013</text>
<text x="232" y="2721" text-anchor="end" class="tick">5.064</text>
<text x="232" y="2769" text-anchor="end" class="tick">3.115</text>
<path d="M 246 2653.036 L 251.88 2653.036 L 257.759 2662.597 L 263.639 2662.597 L 269.518 2673.332 L 275.398 2673.332 L 281.278 2675.282 L 287.157 2675.282 L 293.037 2671.258 L 298.916 2671.258 L 304.796 2658.91 L 310.676 2658.91 L 316.555 2650.572 L 322.435 2650.572 L 328.314 2632.547 L 334.194 2632.547 L 340.074 2618.558 L 345.953 2618.558 L 351.833 2608.647 L 357.712 2608.647 L 363.592 2604.207 L 369.472 2604.207 L 375.351 2592.941 L 381.231 2592.941 L 387.11 2600.838 L 392.99 2600.838 L 398.87 2608.411 L 404.749 2608.411 L 410.629 2598.572 L 416.508 2598.572 L 422.388 2600.519 L 428.268 2600.519 L 434.147 2607.849 L 440.027 2607.849 L 445.906 2597.643 L 451.786 2597.643 L 457.666 2597.643 L 463.545 2597.643 L 469.425 2597.643 L 475.304 2597.643 L 481.184 2597.643 L 487.064 2597.643 L 492.943 2597.643 L 498.823 2597.643 L 504.702 2597.643 L 510.582 2597.643 L 516.462 2597.643 L 522.341 2597.643 L 528.221 2597.643 L 534.1 2597.643 L 539.98 2597.643 L 545.86 2597.643 L 551.739 2597.643 L 557.619 2597.643 L 563.498 2597.643 L 569.378 2597.643 L 575.258 2597.643 L 581.137 2597.643 L 587.017 2597.643 L 592.896 2597.643 L 598.776 2597.643 L 604.656 2597.643 L 610.535 2597.643 L 616.415 2597.643 L 622.294 2597.643 L 628.174 2597.643 L 634.054 2597.643 L 639.933 2597.643 L 645.813 2597.643 L 651.692 2597.643 L 657.572 2597.643 L 663.452 2597.643 L 669.331 2597.643 L 675.211 2597.643 L 681.09 2597.643 L 686.97 2597.643 L 692.849 2597.643 L 698.729 2597.643 L 704.609 2597.643 L 710.488 2597.643 L 716.368 2597.643 L 722.247 2597.643 L 728.127 2597.643 L 734.007 2597.643 L 739.886 2597.643 L 745.766 2597.643 L 751.645 2597.643 L 757.525 2597.643 L 763.405 2597.643 L 769.284 2597.643 L 775.164 2597.643 L 781.043 2597.643 L 786.923 2597.643 L 792.803 2597.643 L 798.682 2597.643 L 804.562 2597.643 L 810.441 2597.643 L 816.321 2597.643 L 822.201 2597.643 L 828.08 2597.643 L 833.96 2597.643 L 839.839 2597.643 L 845.719 2597.643 L 851.599 2597.643 L 857.478 2597.643 L 863.358 2597.643 L 869.237 2597.643 L 875.117 2597.643 L 880.997 2597.643 L 886.876 2597.643 L 892.756 2597.643 L 898.635 2597.643 L 904.515 2597.643 L 910.395 2597.643 L 916.274 2597.643 L 922.154 2597.643 L 928.033 2597.643 L 933.913 2597.643 L 939.793 2597.643 L 945.672 2597.643 L 951.552 2597.643 L 957.431 2597.643 L 963.311 2597.643 L 969.191 2597.643 L 975.07 2597.643 L 980.95 2597.643 L 986.829 2597.643 L 992.709 2597.643 L 998.589 2597.643 L 1004.468 2597.643 L 1010.348 2597.643 L 1016.227 2597.643 L 1022.107 2612.3 L 1027.987 2612.3 L 1033.866 2640.641 L 1039.746 2640.641 L 1045.625 2648.141 L 1051.505 2648.141 L 1057.385 2683.724 L 1063.264 2683.724 L 1069.144 2706.558 L 1075.023 2706.558 L 1080.903 2738.892 L 1086.783 2738.892 L 1092.662 2740.555 L 1098.542 2740.555 L 1104.421 2740.555 L 1110.301 2740.555 L 1116.181 2740.555 L 1122.06 2740.555 L 1127.94 2740.555 L 1133.819 2740.555 L 1139.699 2740.555 L 1145.579 2740.555 L 1151.458 2740.555 L 1157.338 2740.555 L 1163.217 2740.555 L 1169.097 2740.555 L 1174.977 2740.555 L 1180.856 2740.555 L 1186.736 2740.555 L 1192.615 2740.555 L 1198.495 2740.555 L 1204.375 2740.555 L 1210.254 2740.555 L 1216.134 2740.555 L 1222.013 2740.555 L 1227.893 2740.555 L 1233.773 2740.555 L 1239.652 2740.555 L 1245.532 2740.555 L 1251.411 2740.555 L 1257.291 2740.555 L 1263.171 2740.555 L 1269.05 2740.555 L 1274.93 2740.555 L 1280.809 2740.555 L 1286.689 2740.555 L 1292.569 2740.555 L 1298.448 2740.555 L 1304.328 2740.555 L 1310.207 2740.555 L 1316.087 2740.555 L 1321.967 2740.555 L 1327.846 2740.555 L 1333.726 2740.555 L 1339.605 2740.555 L 1345.485 2740.555 L 1351.365 2740.555 L 1357.244 2740.555 L 1363.124 2740.555 L 1369.003 2740.555 L 1374.883 2740.555 L 1380.763 2740.555 L 1386.642 2740.555 L 1392.522 2740.555 L 1398.401 2740.555 L 1404.281 2740.555 L 1410.161 2740.555 L 1416.04 2740.555 L 1421.92 2740.555 L 1427.799 2740.555 L 1433.679 2740.555 L 1439.559 2740.555 L 1445.438 2740.555 L 1451.318 2740.555 L 1457.197 2740.555 L 1463.077 2740.555 L 1468.957 2740.555 L 1474.836 2740.555 L 1480.716 2740.555 L 1486.595 2740.555 L 1492.475 2740.555 L 1498.355 2740.555 L 1504.234 2740.555 L 1510.114 2740.555 L 1515.993 2740.555 L 1521.873 2740.555 L 1527.753 2740.555 L 1533.632 2740.555 L 1539.512 2740.555 L 1545.391 2740.555 L 1551.271 2740.555 L 1557.151 2740.555 L 1563.03 2740.555 L 1568.91 2740.555 L 1574.789 2740.555 L 1580.669 2740.555 L 1586.548 2740.555 L 1592.428 2740.555 L 1598.308 2740.555 L 1604.187 2740.555 L 1610.067 2740.555 L 1615.946 2740.555 L 1621.826 2740.555 L 1627.706 2740.555 L 1633.585 2740.555 L 1639.465 2740.555 L 1645.344 2740.555 L 1651.224 2740.555 L 1657.104 2740.555 L 1662.983 2740.555 L 1668.863 2740.555 L 1674.742 2740.555 L 1680.622 2740.555 L 1686.502 2740.555 L 1692.381 2740.555 L 1698.261 2740.555 L 1704.14 2740.555 L 1710.02 2740.555 L 1715.9 2740.555 L 1721.779 2740.555 L 1727.659 2740.555 L 1733.538 2740.555 L 1739.418 2740.555 L 1745.298 2740.555 L 1751.177 2740.555 L 1757.057 2740.555 L 1762.936 2740.555 L 1768.816 2740.555 L 1774.696 2740.555 L 1780.575 2740.555 L 1786.455 2740.555 L 1792.334 2740.555 L 1798.214 2740.555 L 1804.094 2740.555 L 1809.973 2740.555 L 1815.853 2740.555 L 1821.732 2740.555 L 1827.612 2740.555 L 1833.492 2740.555 L 1839.371 2740.555 L 1845.251 2740.555 L 1851.13 2740.555 L 1857.01 2740.555 L 1862.89 2740.555 L 1868.769 2740.555 L 1874.649 2740.555 L 1880.528 2740.555 L 1886.408 2740.555 L 1892.288 2740.555 L 1898.167 2740.555 L 1904.047 2740.555 L 1909.926 2740.555 L 1915.806 2740.555 L 1921.686 2740.555 L 1927.565 2740.555 L 1933.445 2740.555 L 1939.324 2740.555 L 1945.204 2740.555 L 1951.084 2740.555 L 1956.963 2740.555 L 1962.843 2740.555 L 1968.722 2740.555 L 1974.602 2740.555 L 1980.482 2740.555 L 1986.361 2740.555 L 1992.241 2740.555 L 1998.12 2740.555 L 2004 2740.555" fill="none" stroke="#64e572" stroke-width="4" stroke-linejoin="round" stroke-linecap="round"/>
<path d="M 246 2651.076 L 251.88 2661.81 L 257.759 2661.81 L 263.639 2661.81 L 269.518 2661.81 L 275.398 2661.81 L 281.278 2661.81 L 287.157 2661.81 L 293.037 2661.81 L 298.916 2661.81 L 304.796 2661.81 L 310.676 2661.81 L 316.555 2661.81 L 322.435 2661.81 L 328.314 2661.81 L 334.194 2661.81 L 340.074 2661.81 L 345.953 2661.81 L 351.833 2661.81 L 357.712 2661.81 L 363.592 2661.81 L 369.472 2661.81 L 375.351 2661.81 L 381.231 2661.81 L 387.11 2661.81 L 392.99 2661.81 L 398.87 2661.81 L 404.749 2661.81 L 410.629 2661.81 L 416.508 2661.81 L 422.388 2661.81 L 428.268 2661.81 L 434.147 2661.81 L 440.027 2661.81 L 445.906 2661.81 L 451.786 2661.81 L 457.666 2661.81 L 463.545 2661.81 L 469.425 2661.81 L 475.304 2661.81 L 481.184 2661.81 L 487.064 2661.81 L 492.943 2661.81 L 498.823 2661.81 L 504.702 2661.81 L 510.582 2661.81 L 516.462 2661.81 L 522.341 2661.81 L 528.221 2661.81 L 534.1 2661.81 L 539.98 2661.81 L 545.86 2661.81 L 551.739 2661.81 L 557.619 2661.81 L 563.498 2661.81 L 569.378 2661.81 L 575.258 2661.81 L 581.137 2661.81 L 587.017 2661.81 L 592.896 2661.81 L 598.776 2661.81 L 604.656 2661.81 L 610.535 2661.81 L 616.415 2661.81 L 622.294 2661.81 L 628.174 2689.821 L 634.054 2689.821 L 639.933 2713.613 L 645.813 2713.613 L 651.692 2739.302 L 657.572 2739.302 L 663.452 2748.312 L 669.331 2748.312 L 675.211 2737.495 L 681.09 2737.495 L 686.97 2732.344 L 692.849 2732.344 L 698.729 2726.036 L 704.609 2726.036 L 710.488 2710.236 L 716.368 2710.236 L 722.247 2692.583 L 728.127 2692.583 L 734.007 2686.038 L 739.886 2686.038 L 745.766 2683.594 L 751.645 2683.594 L 757.525 2664.425 L 763.405 2664.425 L 769.284 2644.65 L 775.164 2644.65 L 781.043 2644.65 L 786.923 2644.65 L 792.803 2644.65 L 798.682 2644.65 L 804.562 2644.65 L 810.441 2644.65 L 816.321 2644.65 L 822.201 2644.65 L 828.08 2644.65 L 833.96 2644.65 L 839.839 2644.65 L 845.719 2644.65 L 851.599 2644.65 L 857.478 2644.65 L 863.358 2644.65 L 869.237 2644.65 L 875.117 2644.65 L 880.997 2644.65 L 886.876 2644.65 L 892.756 2644.65 L 898.635 2644.65 L 904.515 2644.65 L 910.395 2644.65 L 916.274 2644.65 L 922.154 2644.65 L 928.033 2644.65 L 933.913 2644.65 L 939.793 2644.65 L 945.672 2644.65 L 951.552 2644.65 L 957.431 2644.65 L 963.311 2644.65 L 969.191 2644.65 L 975.07 2644.65 L 980.95 2644.65 L 986.829 2644.65 L 992.709 2644.65 L 998.589 2644.65 L 1004.468 2644.65 L 1010.348 2644.65 L 1016.227 2644.65 L 1022.107 2644.65 L 1027.987 2644.65 L 1033.866 2644.65 L 1039.746 2644.65 L 1045.625 2644.65 L 1051.505 2644.65 L 1057.385 2644.65 L 1063.264 2644.65 L 1069.144 2644.65 L 1075.023 2644.65 L 1080.903 2644.65 L 1086.783 2644.65 L 1092.662 2644.65 L 1098.542 2644.65 L 1104.421 2644.65 L 1110.301 2644.65 L 1116.181 2644.65 L 1122.06 2644.65 L 1127.94 2644.65 L 1133.819 2644.65 L 1139.699 2644.65 L 1145.579 2644.65 L 1151.458 2644.65 L 1157.338 2644.65 L 1163.217 2644.65 L 1169.097 2644.65 L 1174.977 2644.65 L 1180.856 2644.65 L 1186.736 2644.65 L 1192.615 2644.65 L 1198.495 2644.65 L 1204.375 2644.65 L 1210.254 2644.65 L 1216.134 2644.65 L 1222.013 2644.65 L 1227.893 2644.65 L 1233.773 2644.65 L 1239.652 2644.65 L 1245.532 2644.65 L 1251.411 2644.65 L 1257.291 2644.65 L 1263.171 2644.65 L 1269.05 2644.65 L 1274.93 2644.65 L 1280.809 2644.65 L 1286.689 2644.65 L 1292.569 2644.65 L 1298.448 2636.643 L 1304.328 2636.643 L 1310.207 2631.506 L 1316.087 2631.506 L 1321.967 2611.88 L 1327.846 2611.88 L 1333.726 2625.425 L 1339.605 2625.425 L 1345.485 2605.879 L 1351.365 2605.879 L 1357.244 2595.381 L 1363.124 2595.381 L 1369.003 2585.241 L 1374.883 2585.241 L 1380.763 2600.896 L 1386.642 2600.896 L 1392.522 2603.365 L 1398.401 2603.365 L 1404.281 2609.452 L 1410.161 2609.452 L 1416.04 2617.628 L 1421.92 2617.628 L 1427.799 2633.339 L 1433.679 2633.339 L 1439.559 2630.47 L 1445.438 2630.47 L 1451.318 2637.613 L 1457.197 2637.613 L 1463.077 2637.613 L 1468.957 2637.613 L 1474.836 2637.613 L 1480.716 2637.613 L 1486.595 2650.355 L 1492.475 2650.355 L 1498.355 2677.653 L 1504.234 2677.653 L 1510.114 2700.161 L 1515.993 2700.161 L 1521.873 2724.115 L 1527.753 2724.115 L 1533.632 2750.759 L 1539.512 2750.759 L 1545.391 2750.759 L 1551.271 2750.759 L 1557.151 2750.759 L 1563.03 2750.759 L 1568.91 2750.759 L 1574.789 2750.759 L 1580.669 2750.759 L 1586.548 2750.759 L 1592.428 2750.759 L 1598.308 2750.759 L 1604.187 2750.759 L 1610.067 2750.759 L 1615.946 2750.759 L 1621.826 2750.759 L 1627.706 2750.759 L 1633.585 2750.759 L 1639.465 2750.759 L 1645.344 2750.759 L 1651.224 2750.759 L 1657.104 2750.759 L 1662.983 2750.759 L 1668.863 2750.759 L 1674.742 2750.759 L 1680.622 2750.759 L 1686.502 2750.759 L 1692.381 2750.759 L 1698.261 2750.759 L 1704.14 2750.759 L 1710.02 2750.759 L 1715.9 2750.759 L 1721.779 2750.759 L 1727.659 2750.759 L 1733.538 2750.759 L 1739.418 2750.759 L 1745.298 2750.759 L 1751.177 2750.759 L 1757.057 2750.759 L 1762.936 2750.759 L 1768.816 2750.759 L 1774.696 2750.759 L 1780.575 2750.759 L 1786.455 2750.759 L 1792.334 2750.759 L 1798.214 2750.759 L 1804.094 2750.759 L 1809.973 2750.759 L 1815.853 2750.759 L 1821.732 2750.759 L 1827.612 2750.759 L 1833.492 2750.759 L 1839.371 2750.759 L 1845.251 2750.759 L 1851.13 2750.759 L 1857.01 2750.759 L 1862.89 2750.759 L 1868.769 2750.759 L 1874.649 2750.759 L 1880.528 2750.759 L 1886.408 2750.759 L 1892.288 2750.759 L 1898.167 2750.759 L 1904.047 2750.759 L 1909.926 2750.759 L 1915.806 2750.759 L 1921.686 2750.759 L 1927.565 2750.759 L 1933.445 2750.759 L 1939.324 2750.759 L 1945.204 2737.716 L 1951.084 2737.716 L 1956.963 2729.171 L 1962.843 2729.171 L 1968.722 2737.746 L 1974.602 2737.746 L 1980.482 2731.549 L 1986.361 2731.549 L 1992.241 2736.705 L 1998.12 2736.705 L 2004 2725.229" fill="none" stroke="#ff9f9f" stroke-width="4" stroke-linejoin="round" stroke-linecap="round"/>
<line x1="268" y1="2558" x2="302" y2="2558" stroke="#64e572" stroke-width="5" stroke-linecap="round"/>
<text x="314" y="2564" class="legend">bid depth L5</text>
<line x1="502" y1="2558" x2="536" y2="2558" stroke="#ff9f9f" stroke-width="5" stroke-linecap="round"/>
<text x="548" y="2564" class="legend">ask depth L5</text>
<text x="1992" y="2794" text-anchor="end" class="tiny">BTC</text>

  <rect x="150" y="2852" width="1900" height="350" rx="26" class="panel" filter="url(#shadow)"/>
  <text x="186" y="2898" class="panel-title">Book Change Mix</text>
  <text x="186" y="2928" class="panel-subtitle">Limit additions versus cancels/trades inferred from per-level quantity deltas.</text>
  <rect x="246" y="2964" width="1758" height="192" rx="12" fill="#0b1627" stroke="#263c56" stroke-width="2"/>
<line x1="246" y1="3012" x2="2004" y2="3012" class="grid"/>
<line x1="246" y1="3060" x2="2004" y2="3060" class="grid"/>
<line x1="246" y1="3108" x2="2004" y2="3108" class="grid"/>
<line x1="539" y1="2964" x2="539" y2="3156" class="grid"/>
<line x1="832" y1="2964" x2="832" y2="3156" class="grid"/>
<line x1="1125" y1="2964" x2="1125" y2="3156" class="grid"/>
<line x1="1418" y1="2964" x2="1418" y2="3156" class="grid"/>
<line x1="1711" y1="2964" x2="1711" y2="3156" class="grid"/>
<line x1="246" y1="3156" x2="2004" y2="3156" class="axis"/>
<line x1="246" y1="2964" x2="246" y2="3156" class="axis"/>
<text x="232" y="2969" text-anchor="end" class="tick">10.8</text>
<text x="232" y="3017" text-anchor="end" class="tick">7.9</text>
<text x="232" y="3065" text-anchor="end" class="tick">5</text>
<text x="232" y="3113" text-anchor="end" class="tick">2.1</text>
<text x="232" y="3161" text-anchor="end" class="tick">-0.8</text>
<line x1="246" y1="3142.759" x2="2004" y2="3142.759" stroke="#b6c2d1" stroke-width="2" opacity="0.5"/>
<path d="M 246 2993.793 L 306.621 2977.241 L 367.241 2977.241 L 427.862 2977.241 L 488.483 2977.241 L 549.103 2977.241 L 609.724 2977.241 L 670.345 2977.241 L 730.966 2977.241 L 791.586 2977.241 L 852.207 2977.241 L 912.828 2977.241 L 973.448 2977.241 L 1034.069 2977.241 L 1094.69 2977.241 L 1155.31 2977.241 L 1215.931 2993.793 L 1276.552 2977.241 L 1337.172 2977.241 L 1397.793 2977.241 L 1458.414 2977.241 L 1519.034 2977.241 L 1579.655 2977.241 L 1640.276 2977.241 L 1700.897 2977.241 L 1761.517 2977.241 L 1822.138 2977.241 L 1882.759 2977.241 L 1943.379 2977.241 L 2004 2977.241" fill="none" stroke="#5eead4" stroke-width="4" stroke-linejoin="round" stroke-linecap="round"/>
<path d="M 246 3126.207 L 306.621 3142.759 L 367.241 3142.759 L 427.862 3142.759 L 488.483 3142.759 L 549.103 3142.759 L 609.724 3142.759 L 670.345 3142.759 L 730.966 3142.759 L 791.586 3142.759 L 852.207 3142.759 L 912.828 3142.759 L 973.448 3142.759 L 1034.069 3142.759 L 1094.69 3142.759 L 1155.31 3142.759 L 1215.931 3126.207 L 1276.552 3142.759 L 1337.172 3142.759 L 1397.793 3142.759 L 1458.414 3142.759 L 1519.034 3142.759 L 1579.655 3142.759 L 1640.276 3142.759 L 1700.897 3142.759 L 1761.517 3142.759 L 1822.138 3142.759 L 1882.759 3142.759 L 1943.379 3142.759 L 2004 3142.759" fill="none" stroke="#ff6b6b" stroke-width="4" stroke-linejoin="round" stroke-linecap="round"/>
<line x1="268" y1="2950" x2="302" y2="2950" stroke="#5eead4" stroke-width="5" stroke-linecap="round"/>
<text x="314" y="2956" class="legend">limit_add</text>
<line x1="466" y1="2950" x2="500" y2="2950" stroke="#ff6b6b" stroke-width="5" stroke-linecap="round"/>
<text x="512" y="2956" class="legend">cancel_or_trade</text>
<text x="1992" y="3186" text-anchor="end" class="tiny">events</text>

  <rect x="150" y="3244" width="1900" height="350" rx="26" class="panel" filter="url(#shadow)"/>
  <text x="186" y="3290" class="panel-title">WebSocket Latency Diagnostics</text>
  <text x="186" y="3320" class="panel-subtitle">Mock mode uses deterministic jitter with rare spikes, so it should look irregular but bounded.</text>
  <rect x="246" y="3356" width="1758" height="192" rx="12" fill="#0b1627" stroke="#263c56" stroke-width="2"/>
<line x1="246" y1="3404" x2="2004" y2="3404" class="grid"/>
<line x1="246" y1="3452" x2="2004" y2="3452" class="grid"/>
<line x1="246" y1="3500" x2="2004" y2="3500" class="grid"/>
<line x1="539" y1="3356" x2="539" y2="3548" class="grid"/>
<line x1="832" y1="3356" x2="832" y2="3548" class="grid"/>
<line x1="1125" y1="3356" x2="1125" y2="3548" class="grid"/>
<line x1="1418" y1="3356" x2="1418" y2="3548" class="grid"/>
<line x1="1711" y1="3356" x2="1711" y2="3548" class="grid"/>
<line x1="246" y1="3548" x2="2004" y2="3548" class="axis"/>
<line x1="246" y1="3356" x2="246" y2="3548" class="axis"/>
<text x="232" y="3361" text-anchor="end" class="tick">12.214</text>
<text x="232" y="3409" text-anchor="end" class="tick">10.087</text>
<text x="232" y="3457" text-anchor="end" class="tick">7.96</text>
<text x="232" y="3505" text-anchor="end" class="tick">5.834</text>
<text x="232" y="3553" text-anchor="end" class="tick">3.707</text>
<path d="M 246 3382.759 L 251.88 3485.623 L 257.759 3502.748 L 263.639 3491.433 L 269.518 3498.177 L 275.398 3495.423 L 281.278 3471.308 L 287.157 3463.904 L 293.037 3472.118 L 298.916 3461.207 L 304.796 3479.605 L 310.676 3491.191 L 316.555 3503.858 L 322.435 3480.716 L 328.314 3475.332 L 334.194 3510.372 L 340.074 3439.653 L 345.953 3494.383 L 351.833 3472.913 L 357.712 3477.831 L 363.592 3473.077 L 369.472 3470.362 L 375.351 3450.253 L 381.231 3474.544 L 387.11 3458.196 L 392.99 3495.985 L 398.87 3460.212 L 404.749 3444.258 L 410.629 3459.279 L 416.508 3458.918 L 422.388 3495.234 L 428.268 3466.884 L 434.147 3460.509 L 440.027 3455.492 L 445.906 3464.66 L 451.786 3498.583 L 457.666 3465.272 L 463.545 3431.713 L 469.425 3444.03 L 475.304 3470.398 L 481.184 3469.468 L 487.064 3474.517 L 492.943 3437.608 L 498.823 3458.905 L 504.702 3458.27 L 510.582 3457.311 L 516.462 3474.059 L 522.341 3485.21 L 528.221 3452.855 L 534.1 3443.111 L 539.98 3465.272 L 545.86 3465.441 L 551.739 3438.486 L 557.619 3484 L 563.498 3446.657 L 569.378 3495.922 L 575.258 3475.761 L 581.137 3462.81 L 587.017 3475.585 L 592.896 3491.315 L 598.776 3482.934 L 604.656 3482.526 L 610.535 3474.359 L 616.415 3473.443 L 622.294 3451.436 L 628.174 3458.948 L 634.054 3463.787 L 639.933 3486.767 L 645.813 3485.106 L 651.692 3476.483 L 657.572 3469.768 L 663.452 3451.856 L 669.331 3490.868 L 675.211 3465.371 L 681.09 3505.919 L 686.97 3516.37 L 692.849 3488.812 L 698.729 3503.567 L 704.609 3478.395 L 710.488 3469.558 L 716.368 3467.227 L 722.247 3498.439 L 728.127 3467.868 L 734.007 3380.229 L 739.886 3476.72 L 745.766 3489.207 L 751.645 3497.511 L 757.525 3489.257 L 763.405 3501.671 L 769.284 3478.528 L 775.164 3495.583 L 781.043 3469.026 L 786.923 3514.252 L 792.803 3489.214 L 798.682 3497.933 L 804.562 3493.992 L 810.441 3520.796 L 816.321 3507.675 L 822.201 3488.142 L 828.08 3517.943 L 833.96 3532.696 L 839.839 3500.845 L 845.719 3521.261 L 851.599 3528.439 L 857.478 3488.311 L 863.358 3505.176 L 869.237 3518.947 L 875.117 3526.764 L 880.997 3526.278 L 886.876 3516.76 L 892.756 3521.468 L 898.635 3502.716 L 904.515 3534.759 L 910.395 3502.28 L 916.274 3486.602 L 922.154 3507.16 L 928.033 3474.998 L 933.913 3496.407 L 939.793 3499.236 L 945.672 3498.646 L 951.552 3493.92 L 957.431 3513.83 L 963.311 3507.77 L 969.191 3505.598 L 975.07 3528.188 L 980.95 3464.448 L 986.829 3501.42 L 992.709 3495.606 L 998.589 3514.295 L 1004.468 3506.725 L 1010.348 3500.588 L 1016.227 3498.831 L 1022.107 3478.833 L 1027.987 3506.102 L 1033.866 3497.123 L 1039.746 3479.991 L 1045.625 3486.225 L 1051.505 3522.078 L 1057.385 3454.449 L 1063.264 3494.216 L 1069.144 3465.836 L 1075.023 3488.78 L 1080.903 3508.476 L 1086.783 3504.046 L 1092.662 3497.549 L 1098.542 3475.138 L 1104.421 3490.561 L 1110.301 3502.283 L 1116.181 3469.184 L 1122.06 3466.344 L 1127.94 3488.965 L 1133.819 3475.732 L 1139.699 3501.138 L 1145.579 3480.774 L 1151.458 3461.986 L 1157.338 3473.287 L 1163.217 3459.494 L 1169.097 3463.701 L 1174.977 3498.938 L 1180.856 3468.039 L 1186.736 3476.253 L 1192.615 3489.099 L 1198.495 3456.365 L 1204.375 3491.536 L 1210.254 3479.151 L 1216.134 3460.74 L 1222.013 3375.575 L 1227.893 3487.388 L 1233.773 3465.468 L 1239.652 3450.188 L 1245.532 3466.254 L 1251.411 3465.2 L 1257.291 3474.432 L 1263.171 3470.865 L 1269.05 3458.51 L 1274.93 3452.4 L 1280.809 3472.339 L 1286.689 3447.452 L 1292.569 3476.63 L 1298.448 3460.013 L 1304.328 3488.663 L 1310.207 3459.814 L 1316.087 3460.286 L 1321.967 3453.14 L 1327.846 3461.254 L 1333.726 3437.134 L 1339.605 3466.651 L 1345.485 3457.884 L 1351.365 3491.062 L 1357.244 3474.039 L 1363.124 3440.075 L 1369.003 3466.897 L 1374.883 3456.273 L 1380.763 3460.349 L 1386.642 3495.872 L 1392.522 3481.25 L 1398.401 3470.497 L 1404.281 3487.6 L 1410.161 3454.988 L 1416.04 3483.058 L 1421.92 3461.681 L 1427.799 3450.461 L 1433.679 3480.767 L 1439.559 3502.935 L 1445.438 3474.786 L 1451.318 3477.343 L 1457.197 3482.458 L 1463.077 3498.486 L 1468.957 3480.009 L 1474.836 3493.597 L 1480.716 3497.403 L 1486.595 3480.456 L 1492.475 3492.766 L 1498.355 3470.265 L 1504.234 3462.089 L 1510.114 3485.647 L 1515.993 3457.821 L 1521.873 3477.395 L 1527.753 3472.193 L 1533.632 3496.764 L 1539.512 3502.231 L 1545.391 3503.233 L 1551.271 3494.403 L 1557.151 3483.745 L 1563.03 3505.598 L 1568.91 3478.348 L 1574.789 3510.688 L 1580.669 3498.8 L 1586.548 3491.656 L 1592.428 3524.367 L 1598.308 3485.918 L 1604.187 3495.769 L 1610.067 3468.502 L 1615.946 3493.951 L 1621.826 3493.468 L 1627.706 3500.057 L 1633.585 3508.402 L 1639.465 3486.388 L 1645.344 3511.704 L 1651.224 3501.113 L 1657.104 3518.564 L 1662.983 3524.344 L 1668.863 3494.331 L 1674.742 3487.277 L 1680.622 3480.354 L 1686.502 3512.79 L 1692.381 3516.767 L 1698.261 3529.276 L 1704.14 3489.751 L 1710.02 3411.861 L 1715.9 3515.284 L 1721.779 3502.041 L 1727.659 3491.211 L 1733.538 3502.601 L 1739.418 3470.087 L 1745.298 3521.52 L 1751.177 3527.908 L 1757.057 3534.242 L 1762.936 3517.586 L 1768.816 3506.395 L 1774.696 3500.606 L 1780.575 3516.166 L 1786.455 3485.483 L 1792.334 3506.449 L 1798.214 3531.54 L 1804.094 3476.991 L 1809.973 3526.199 L 1815.853 3490.968 L 1821.732 3494.845 L 1827.612 3501.082 L 1833.492 3519.457 L 1839.371 3497.838 L 1845.251 3499.784 L 1851.13 3486.618 L 1857.01 3487.887 L 1862.89 3497.762 L 1868.769 3471.333 L 1874.649 3501.723 L 1880.528 3490.238 L 1886.408 3497.01 L 1892.288 3485.298 L 1898.167 3496.204 L 1904.047 3493.784 L 1909.926 3454.142 L 1915.806 3504.167 L 1921.686 3504.179 L 1927.565 3506.079 L 1933.445 3509.616 L 1939.324 3473.892 L 1945.204 3474.055 L 1951.084 3490.085 L 1956.963 3489.521 L 1962.843 3472.053 L 1968.722 3475.167 L 1974.602 3473.274 L 1980.482 3485.11 L 1986.361 3483.505 L 1992.241 3455.589 L 1998.12 3484.62 L 2004 3469.288" fill="none" stroke="#53f3c3" stroke-width="4" stroke-linejoin="round" stroke-linecap="round"/>
<path d="M 246 3369.792 L 251.88 3493.728 L 257.759 3493.983 L 263.639 3492.065 L 269.518 3485.616 L 275.398 3478.959 L 281.278 3471.901 L 287.157 3475.499 L 293.037 3467.949 L 298.916 3465.773 L 304.796 3484.957 L 310.676 3474.969 L 316.555 3486.279 L 322.435 3465.22 L 328.314 3475.82 L 334.194 3492.426 L 340.074 3455.144 L 345.953 3489.789 L 351.833 3469.326 L 357.712 3460.476 L 363.592 3460.882 L 369.472 3457.67 L 375.351 3467.843 L 381.231 3476.425 L 387.11 3473.691 L 392.99 3485.733 L 398.87 3446.538 L 404.749 3456.025 L 410.629 3449.822 L 416.508 3463.776 L 422.388 3478.244 L 428.268 3453.711 L 434.147 3462.539 L 440.027 3469.249 L 445.906 3466.213 L 451.786 3480.628 L 457.666 3468.552 L 463.545 3445.818 L 469.425 3460.008 L 475.304 3471.321 L 481.184 3458.257 L 487.064 3459.415 L 492.943 3453.982 L 498.823 3446.488 L 504.702 3465.791 L 510.582 3465.281 L 516.462 3463.173 L 522.341 3478.479 L 528.221 3451.774 L 534.1 3461.144 L 539.98 3481.092 L 545.86 3450.219 L 551.739 3452.262 L 557.619 3466.615 L 563.498 3464.162 L 569.378 3490.173 L 575.258 3470.883 L 581.137 3466.62 L 587.017 3487.956 L 592.896 3494.182 L 598.776 3468.795 L 604.656 3487.65 L 610.535 3471.518 L 616.415 3474.797 L 622.294 3458.539 L 628.174 3465.945 L 634.054 3481.476 L 639.933 3483.882 L 645.813 3501.468 L 651.692 3473.378 L 657.572 3484.474 L 663.452 3465.685 L 669.331 3484.532 L 675.211 3480.521 L 681.09 3501.364 L 686.97 3506.815 L 692.849 3492.362 L 698.729 3487.322 L 704.609 3488.751 L 710.488 3483.636 L 716.368 3479.684 L 722.247 3509.192 L 728.127 3484.708 L 734.007 3369.241 L 739.886 3491.832 L 745.766 3501.849 L 751.645 3511.35 L 757.525 3494.918 L 763.405 3487.789 L 769.284 3495.877 L 775.164 3499.881 L 781.043 3484.442 L 786.923 3510.937 L 792.803 3487.55 L 798.682 3511.589 L 804.562 3503.571 L 810.441 3507.804 L 816.321 3502.314 L 822.201 3498.075 L 828.08 3510.174 L 833.96 3519.785 L 839.839 3500.041 L 845.719 3520.288 L 851.599 3521.022 L 857.478 3505.842 L 863.358 3506.075 L 869.237 3518.383 L 875.117 3516.431 L 880.997 3524.159 L 886.876 3519.322 L 892.756 3523.764 L 898.635 3520.396 L 904.515 3522.152 L 910.395 3499.707 L 916.274 3489.035 L 922.154 3523.306 L 928.033 3487.758 L 933.913 3499.351 L 939.793 3514.295 L 945.672 3487.539 L 951.552 3493.584 L 957.431 3503.255 L 963.311 3514.92 L 969.191 3512.478 L 975.07 3519.234 L 980.95 3481.192 L 986.829 3485.659 L 992.709 3502.499 L 998.589 3502.226 L 1004.468 3496.148 L 1010.348 3509.39 L 1016.227 3497.308 L 1022.107 3494.96 L 1027.987 3510.395 L 1033.866 3492.536 L 1039.746 3477.698 L 1045.625 3481.715 L 1051.505 3507.752 L 1057.385 3472.132 L 1063.264 3491.512 L 1069.144 3471.935 L 1075.023 3475.023 L 1080.903 3505.998 L 1086.783 3501.021 L 1092.662 3505.296 L 1098.542 3482.72 L 1104.421 3485.492 L 1110.301 3499.351 L 1116.181 3462.374 L 1122.06 3480.043 L 1127.94 3498.8 L 1133.819 3491.351 L 1139.699 3494.279 L 1145.579 3470.436 L 1151.458 3467.929 L 1157.338 3467.922 L 1163.217 3468.518 L 1169.097 3467.06 L 1174.977 3487.557 L 1180.856 3466.073 L 1186.736 3479.998 L 1192.615 3476.626 L 1198.495 3456.654 L 1204.375 3475.989 L 1210.254 3486.634 L 1216.134 3467.787 L 1222.013 3370.291 L 1227.893 3485.93 L 1233.773 3466.516 L 1239.652 3461.042 L 1245.532 3462.685 L 1251.411 3462.211 L 1257.291 3458.688 L 1263.171 3465.823 L 1269.05 3449.188 L 1274.93 3463.015 L 1280.809 3455.578 L 1286.689 3450.58 L 1292.569 3458.918 L 1298.448 3466.177 L 1304.328 3473.145 L 1310.207 3470.38 L 1316.087 3452.117 L 1321.967 3458.835 L 1327.846 3448.131 L 1333.726 3449.102 L 1339.605 3449.576 L 1345.485 3458.794 L 1351.365 3483.557 L 1357.244 3471.238 L 1363.124 3453.876 L 1369.003 3480.713 L 1374.883 3465.954 L 1380.763 3456.049 L 1386.642 3483.393 L 1392.522 3463.62 L 1398.401 3470.263 L 1404.281 3489.794 L 1410.161 3458.767 L 1416.04 3479.239 L 1421.92 3451.54 L 1427.799 3465.945 L 1433.679 3487.313 L 1439.559 3492.441 L 1445.438 3485.575 L 1451.318 3474.366 L 1457.197 3486.95 L 1463.077 3486.749 L 1468.957 3494.728 L 1474.836 3494.514 L 1480.716 3496.035 L 1486.595 3492.484 L 1492.475 3491.588 L 1498.355 3480.905 L 1504.234 3467.931 L 1510.114 3490.968 L 1515.993 3464.349 L 1521.873 3474.47 L 1527.753 3489.421 L 1533.632 3482.614 L 1539.512 3495.744 L 1545.391 3491.902 L 1551.271 3487.776 L 1557.151 3488.236 L 1563.03 3507.524 L 1568.91 3476.553 L 1574.789 3504.86 L 1580.669 3486.785 L 1586.548 3491.363 L 1592.428 3511.496 L 1598.308 3476.436 L 1604.187 3486.537 L 1610.067 3478.346 L 1615.946 3510.129 L 1621.826 3503.432 L 1627.706 3495.067 L 1633.585 3490.347 L 1639.465 3481.591 L 1645.344 3504.172 L 1651.224 3489.309 L 1657.104 3516.284 L 1662.983 3514.562 L 1668.863 3507.531 L 1674.742 3484.318 L 1680.622 3490.058 L 1686.502 3520.566 L 1692.381 3507.041 L 1698.261 3512.672 L 1704.14 3495.105 L 1710.02 3394.187 L 1715.9 3509.731 L 1721.779 3509.93 L 1727.659 3505.637 L 1733.538 3519.141 L 1739.418 3487.785 L 1745.298 3517.812 L 1751.177 3521.999 L 1757.057 3521.692 L 1762.936 3501.4 L 1768.816 3490.767 L 1774.696 3500.156 L 1780.575 3508.242 L 1786.455 3483.943 L 1792.334 3517.388 L 1798.214 3523.019 L 1804.094 3487.164 L 1809.973 3517.421 L 1815.853 3497.665 L 1821.732 3488.559 L 1827.612 3515.701 L 1833.492 3518.737 L 1839.371 3505.872 L 1845.251 3494.008 L 1851.13 3488.672 L 1857.01 3498.57 L 1862.89 3489.275 L 1868.769 3476.63 L 1874.649 3489.333 L 1880.528 3479.145 L 1886.408 3494.863 L 1892.288 3489.932 L 1898.167 3502.436 L 1904.047 3508.406 L 1909.926 3471.213 L 1915.806 3486.415 L 1921.686 3497.595 L 1927.565 3498.204 L 1933.445 3493.044 L 1939.324 3466.791 L 1945.204 3465.931 L 1951.084 3484.316 L 1956.963 3480.763 L 1962.843 3465.146 L 1968.722 3469.631 L 1974.602 3463.263 L 1980.482 3489.119 L 1986.361 3499.168 L 1992.241 3461.832 L 1998.12 3493.992 L 2004 3469.892" fill="none" stroke="#91b4ff" stroke-width="4" stroke-linejoin="round" stroke-linecap="round"/>
<line x1="268" y1="3342" x2="302" y2="3342" stroke="#53f3c3" stroke-width="5" stroke-linecap="round"/>
<text x="314" y="3348" class="legend">aggTrade latency</text>
<line x1="550" y1="3342" x2="584" y2="3342" stroke="#91b4ff" stroke-width="5" stroke-linecap="round"/>
<text x="596" y="3348" class="legend">depth latency</text>
<text x="1992" y="3578" text-anchor="end" class="tiny">ms</text>

  <rect x="150" y="3636" width="1900" height="350" rx="26" class="panel" filter="url(#shadow)"/>
  <text x="186" y="3682" class="panel-title">Dataset Health</text>
  <text x="186" y="3712" class="panel-subtitle">Rows written, sample columns, and latency summary for the latest run.</text>
  <rect x="246" y="3754" width="1758" height="180" rx="18" fill="#0b1627" stroke="#263c56" stroke-width="2"/>
<text x="278" y="3796" class="label">dataset</text>
<text x="666" y="3796" class="label">rows</text>
<text x="866" y="3796" class="label">research use</text>
<line x1="270" y1="3802" x2="1980" y2="3802" stroke="#24384f" stroke-width="1"/>
<text x="278" y="3824" class="legend">raw_agg_trades</text>
<text x="666" y="3824" class="legend">300</text>
<text x="866" y="3824" class="legend">price, quantity, trade side, receive latency</text>
<line x1="270" y1="3836" x2="1980" y2="3836" stroke="#24384f" stroke-width="1"/>
<text x="278" y="3858" class="legend">raw_depth</text>
<text x="666" y="3858" class="legend">300</text>
<text x="866" y="3858" class="legend">raw bid/ask deltas and update ids</text>
<line x1="270" y1="3870" x2="1980" y2="3870" stroke="#24384f" stroke-width="1"/>
<text x="278" y="3892" class="legend">book_change_events</text>
<text x="666" y="3892" class="legend">300</text>
<text x="866" y="3892" class="legend">per-level liquidity changes</text>
<line x1="270" y1="3904" x2="1980" y2="3904" stroke="#24384f" stroke-width="1"/>
<text x="278" y="3926" class="legend">features</text>
<text x="666" y="3926" class="legend">300</text>
<text x="866" y="3926" class="legend">spread, midprice, OFI, L5 depth</text>
<line x1="270" y1="3938" x2="1980" y2="3938" stroke="#24384f" stroke-width="1"/>
<text x="278" y="3960" class="legend">snapshots</text>
<text x="666" y="3960" class="legend">1</text>
<text x="866" y="3960" class="legend">book bootstrap and synchronization anchor</text>
<text x="278" y="3918" class="tiny">latency summary: mock.aggTrade avg 6.553 ms, max 11.346 ms | mock.depth avg 6.561 ms, max 11.627 ms</text>


</svg>