<svg xmlns="http://www.w3.org/2000/svg" width="2200" height="2112" viewBox="0 0 2200 2112">
  <defs>
    <linearGradient id="bg" x1="0" x2="1" y1="0" y2="1">
      <stop offset="0%" stop-color="#07111e"/>
      <stop offset="55%" stop-color="#10233b"/>
      <stop offset="100%" stop-color="#091424"/>
    </linearGradient>
    <radialGradient id="glow" cx="0.5" cy="0.02" r="0.55">
      <stop offset="0%" stop-color="#4ddcff" stop-opacity="0.18"/>
      <stop offset="100%" stop-color="#4ddcff" stop-opacity="0"/>
    </radialGradient>
    <filter id="shadow" x="-15%" y="-15%" width="130%" height="130%">
      <feDropShadow dx="0" dy="18" stdDeviation="20" flood-color="#000000" flood-opacity="0.32"/>
    </filter>
    <style>
      text { font-family: 'Aptos', 'Segoe UI', sans-serif; fill: #f8fafc; }
      .title { font-size: 70px; font-weight: 900; letter-spacing: -1px; }
      .subtitle { fill: #adbbcf; font-size: 28px; }
      .eyebrow { fill: #6ee7ff; font-size: 20px; font-weight: 900; letter-spacing: 5px; }
      .metric { font-size: 44px; font-weight: 900; }
      .label { fill: #8393aa; font-size: 17px; font-weight: 900; letter-spacing: 1.4px; }
      .panel { fill: #101d31; stroke: #2c425e; stroke-width: 2; }
      .panel-title { font-size: 28px; font-weight: 900; }
      .panel-subtitle { fill: #98a8bd; font-size: 18px; }
      .axis { stroke: #38506b; stroke-width: 2; }
      .grid { stroke: #22384f; stroke-width: 1; opacity: 0.8; }
      .tick { fill: #93a4b8; font-size: 16px; }
      .legend { fill: #cdd6e2; font-size: 18px; }
      .tiny { fill: #91a5be; font-size: 16px; }
    </style>
  </defs>
  <rect width="2200" height="2112" fill="url(#bg)"/>
  <rect width="2200" height="2112" fill="url(#glow)"/>

  <text x="1100" y="90" text-anchor="middle" class="eyebrow">EVENT-LEVEL MARKET DATA RESEARCH ENGINE</text>
    <text x="1100" y="176" text-anchor="middle" class="title">BTCUSDT Market Data Dashboard</text>
  <text x="1100" y="224" text-anchor="middle" class="subtitle">High-frequency aggregate trades, L5 depth features, order-flow imbalance, OHLC candles, and latency diagnostics</text>

      <rect x="150" y="290" width="340" height="130" rx="24" fill="#101d31" stroke="#2c425e" stroke-width="2" filter="url(#shadow)"/>
  <text x="178" y="346" class="metric" fill="#7cc7ff">1000</text>
  <text x="178" y="386" class="label">DEPTH UPDATES</text>
      <rect x="540" y="290" width="340" height="130" rx="24" fill="#101d31" stroke="#2c425e" stroke-width="2" filter="url(#shadow)"/>
  <text x="568" y="346" class="metric" fill="#ffd166">1000</text>
  <text x="568" y="386" class="label">FEATURE ROWS</text>
      <rect x="930" y="290" width="340" height="130" rx="24" fill="#101d31" stroke="#2c425e" stroke-width="2" filter="url(#shadow)"/>
  <text x="958" y="346" class="metric" fill="#ffcf5c">0.08 USDT</text>
  <text x="958" y="386" class="label">AVG SPREAD</text>
      <rect x="1320" y="290" width="340" height="130" rx="24" fill="#101d31" stroke="#2c425e" stroke-width="2" filter="url(#shadow)"/>
  <text x="1348" y="346" class="metric" fill="#c4a7ff">6.549 ms</text>
  <text x="1348" y="386" class="label">AVG LATENCY</text>

    <rect x="150" y="500" width="1900" height="350" rx="26" class="panel" filter="url(#shadow)"/>
  <text x="186" y="546" class="panel-title">OHLC Candles From Aggregate Trades</text>
  <text x="186" y="576" class="panel-subtitle">Open, high, low, close candles built from event-level aggTrade prices.</text>
  <rect x="246" y="612" width="1758" height="192" rx="12" fill="#0b1627" stroke="#263c56" stroke-width="2"/>
<line x1="246" y1="660" x2="2004" y2="660" class="grid"/>
<line x1="246" y1="708" x2="2004" y2="708" class="grid"/>
<line x1="246" y1="756" x2="2004" y2="756" class="grid"/>
<line x1="539" y1="612" x2="539" y2="804" class="grid"/>
<line x1="832" y1="612" x2="832" y2="804" class="grid"/>
<line x1="1125" y1="612" x2="1125" y2="804" class="grid"/>
<line x1="1418" y1="612" x2="1418" y2="804" class="grid"/>
<line x1="1711" y1="612" x2="1711" y2="804" class="grid"/>
<line x1="246" y1="804" x2="2004" y2="804" class="axis"/>
<line x1="246" y1="612" x2="246" y2="804" class="axis"/>
<text x="232" y="617" text-anchor="end" class="tick">65044.38</text>
<text x="232" y="665" text-anchor="end" class="tick">65021.47</text>
<text x="232" y="713" text-anchor="end" class="tick">64998.55</text>
<text x="232" y="761" text-anchor="end" class="tick">64975.63</text>
<text x="232" y="809" text-anchor="end" class="tick">64952.72</text>
<line x1="277.393" y1="625.241" x2="277.393" y2="664.474" stroke="#ff6b8a" stroke-width="3"/>
<rect x="261.696" y="625.241" width="31.393" height="39.232" rx="3" fill="#ff6b8a" opacity="0.88"/>
<line x1="340.179" y1="666.652" x2="340.179" y2="691.369" stroke="#ff6b8a" stroke-width="3"/>
<rect x="324.482" y="666.652" width="31.393" height="24.717" rx="3" fill="#ff6b8a" opacity="0.88"/>
<line x1="402.964" y1="691.913" x2="402.964" y2="743.148" stroke="#ff6b8a" stroke-width="3"/>
<rect x="387.268" y="691.913" width="31.393" height="42.311" rx="3" fill="#ff6b8a" opacity="0.88"/>
<line x1="465.75" y1="704.104" x2="465.75" y2="732.884" stroke="#53f3c3" stroke-width="3"/>
<rect x="450.054" y="704.104" width="31.393" height="28.78" rx="3" fill="#53f3c3" opacity="0.88"/>
<line x1="528.536" y1="683.451" x2="528.536" y2="702.407" stroke="#53f3c3" stroke-width="3"/>
<rect x="512.839" y="683.451" width="31.393" height="18.956" rx="3" fill="#53f3c3" opacity="0.88"/>
<line x1="591.321" y1="682.885" x2="591.321" y2="693.233" stroke="#ff6b8a" stroke-width="3"/>
<rect x="575.625" y="683.137" width="31.393" height="10.096" rx="3" fill="#ff6b8a" opacity="0.88"/>
<line x1="654.107" y1="694.741" x2="654.107" y2="727.92" stroke="#ff6b8a" stroke-width="3"/>
<rect x="638.411" y="694.741" width="31.393" height="33.179" rx="3" fill="#ff6b8a" opacity="0.88"/>
<line x1="716.893" y1="729.994" x2="716.893" y2="756.889" stroke="#ff6b8a" stroke-width="3"/>
<rect x="701.196" y="729.994" width="31.393" height="26.895" rx="3" fill="#ff6b8a" opacity="0.88"/>
<line x1="779.679" y1="753.076" x2="779.679" y2="759.968" stroke="#53f3c3" stroke-width="3"/>
<rect x="763.982" y="753.076" width="31.393" height="4.608" rx="3" fill="#53f3c3" opacity="0.88"/>
<line x1="842.464" y1="717.97" x2="842.464" y2="751.736" stroke="#53f3c3" stroke-width="3"/>
<rect x="826.768" y="717.97" width="31.393" height="33.765" rx="3" fill="#53f3c3" opacity="0.88"/>
<line x1="905.25" y1="680.435" x2="905.25" y2="715.603" stroke="#53f3c3" stroke-width="3"/>
<rect x="889.554" y="680.435" width="31.393" height="35.169" rx="3" fill="#53f3c3" opacity="0.88"/>
<line x1="968.036" y1="675.261" x2="968.036" y2="703.601" stroke="#ff6b8a" stroke-width="3"/>
<rect x="952.339" y="679.031" width="31.393" height="20.842" rx="3" fill="#ff6b8a" opacity="0.88"/>
<line x1="1030.821" y1="700.25" x2="1030.821" y2="720.903" stroke="#ff6b8a" stroke-width="3"/>
<rect x="1015.125" y="700.25" width="31.393" height="20.653" rx="3" fill="#ff6b8a" opacity="0.88"/>
<line x1="1093.607" y1="722.641" x2="1093.607" y2="750.311" stroke="#ff6b8a" stroke-width="3"/>
<rect x="1077.911" y="722.641" width="31.393" height="27.67" rx="3" fill="#ff6b8a" opacity="0.88"/>
<line x1="1156.393" y1="751.526" x2="1156.393" y2="758.376" stroke="#ff6b8a" stroke-width="3"/>
<rect x="1140.696" y="751.526" width="31.393" height="5.027" rx="3" fill="#ff6b8a" opacity="0.88"/>
<line x1="1219.179" y1="730.392" x2="1219.179" y2="755.967" stroke="#53f3c3" stroke-width="3"/>
<rect x="1203.482" y="730.392" width="31.393" height="25.575" rx="3" fill="#53f3c3" opacity="0.88"/>
<line x1="1281.964" y1="695.034" x2="1281.964" y2="728.255" stroke="#53f3c3" stroke-width="3"/>
<rect x="1266.268" y="695.034" width="31.393" height="33.221" rx="3" fill="#53f3c3" opacity="0.88"/>
<line x1="1344.75" y1="678.277" x2="1344.75" y2="693.317" stroke="#53f3c3" stroke-width="3"/>
<rect x="1329.054" y="678.319" width="31.393" height="14.998" rx="3" fill="#53f3c3" opacity="0.88"/>
<line x1="1407.536" y1="678.445" x2="1407.536" y2="698.071" stroke="#ff6b8a" stroke-width="3"/>
<rect x="1391.839" y="678.445" width="31.393" height="19.627" rx="3" fill="#ff6b8a" opacity="0.88"/>
<line x1="1470.321" y1="700.061" x2="1470.321" y2="738.079" stroke="#ff6b8a" stroke-width="3"/>
<rect x="1454.625" y="700.061" width="31.393" height="38.017" rx="3" fill="#ff6b8a" opacity="0.88"/>
<line x1="1533.107" y1="740.132" x2="1533.107" y2="764.764" stroke="#ff6b8a" stroke-width="3"/>
<rect x="1517.411" y="740.132" width="31.393" height="24.633" rx="3" fill="#ff6b8a" opacity="0.88"/>
<line x1="1595.893" y1="757.768" x2="1595.893" y2="766.314" stroke="#53f3c3" stroke-width="3"/>
<rect x="1580.196" y="757.768" width="31.393" height="7.457" rx="3" fill="#53f3c3" opacity="0.88"/>
<line x1="1658.679" y1="729.994" x2="1658.679" y2="756.428" stroke="#53f3c3" stroke-width="3"/>
<rect x="1642.982" y="729.994" width="31.393" height="26.434" rx="3" fill="#53f3c3" opacity="0.88"/>
<line x1="1721.464" y1="708.649" x2="1721.464" y2="728.318" stroke="#53f3c3" stroke-width="3"/>
<rect x="1705.768" y="708.649" width="31.393" height="19.669" rx="3" fill="#53f3c3" opacity="0.88"/>
<line x1="1784.25" y1="707.853" x2="1784.25" y2="718.997" stroke="#ff6b8a" stroke-width="3"/>
<rect x="1768.554" y="708.272" width="31.393" height="10.724" rx="3" fill="#ff6b8a" opacity="0.88"/>
<line x1="1847.036" y1="720.589" x2="1847.036" y2="755.255" stroke="#ff6b8a" stroke-width="3"/>
<rect x="1831.339" y="720.589" width="31.393" height="34.666" rx="3" fill="#ff6b8a" opacity="0.88"/>
<line x1="1909.821" y1="757.475" x2="1909.821" y2="786.59" stroke="#ff6b8a" stroke-width="3"/>
<rect x="1894.125" y="757.475" width="31.393" height="29.115" rx="3" fill="#ff6b8a" opacity="0.88"/>
<line x1="1972.607" y1="785.229" x2="1972.607" y2="790.759" stroke="#53f3c3" stroke-width="3"/>
<rect x="1956.911" y="785.229" width="31.393" height="3" rx="3" fill="#53f3c3" opacity="0.88"/>
<line x1="268" y1="598" x2="302" y2="598" stroke="#53f3c3" stroke-width="5" stroke-linecap="round"/>
<text x="314" y="604" class="legend">up candle</text>
<line x1="466" y1="598" x2="500" y2="598" stroke="#ff6b8a" stroke-width="5" stroke-linecap="round"/>
<text x="512" y="604" class="legend">down candle</text>
<line x1="246" y1="804" x2="246" y2="812" stroke="#2f4b62" stroke-width="2"/>
<text x="246" y="834" text-anchor="middle" class="tick">00:00:05</text>
<line x1="685.5" y1="804" x2="685.5" y2="812" stroke="#2f4b62" stroke-width="2"/>
<text x="685.5" y="834" text-anchor="middle" class="tick">00:00:06</text>
<line x1="1125" y1="804" x2="1125" y2="812" stroke="#2f4b62" stroke-width="2"/>
<text x="1125" y="834" text-anchor="middle" class="tick">00:00:07</text>
<line x1="1564.5" y1="804" x2="1564.5" y2="812" stroke="#2f4b62" stroke-width="2"/>
<text x="1564.5" y="834" text-anchor="middle" class="tick">00:00:08</text>
<line x1="2004" y1="804" x2="2004" y2="812" stroke="#2f4b62" stroke-width="2"/>
<text x="2004" y="834" text-anchor="middle" class="tick">00:00:09</text>

  <rect x="150" y="892" width="932" height="350" rx="26" class="panel" filter="url(#shadow)"/>
  <text x="186" y="938" class="panel-title">Midprice And L1 Quote</text>
  <text x="186" y="968" class="panel-subtitle">Best bid, best ask, and midprice from the treated L5 book.</text>
  <rect x="174" y="1004" width="884" height="192" rx="12" fill="#0b1627" stroke="#263c56" stroke-width="2"/>
<line x1="174" y1="1052" x2="1058" y2="1052" class="grid"/>
<line x1="174" y1="1100" x2="1058" y2="1100" class="grid"/>
<line x1="174" y1="1148" x2="1058" y2="1148" class="grid"/>
<line x1="321.333" y1="1004" x2="321.333" y2="1196" class="grid"/>
<line x1="468.667" y1="1004" x2="468.667" y2="1196" class="grid"/>
<line x1="616" y1="1004" x2="616" y2="1196" class="grid"/>
<line x1="763.333" y1="1004" x2="763.333" y2="1196" class="grid"/>
<line x1="910.667" y1="1004" x2="910.667" y2="1196" class="grid"/>
<line x1="174" y1="1196" x2="1058" y2="1196" class="axis"/>
<line x1="174" y1="1004" x2="174" y2="1196" class="axis"/>
<text x="160" y="1009" text-anchor="end" class="tick">65044.43</text>
<text x="160" y="1057" text-anchor="end" class="tick">65021.49</text>
<text x="160" y="1105" text-anchor="end" class="tick">64998.56</text>
<text x="160" y="1153" text-anchor="end" class="tick">64975.62</text>
<text x="160" y="1201" text-anchor="end" class="tick">64952.68</text>
<path d="M 174 1017.356 L 175.772 1019.491 L 177.543 1021.678 L 179.315 1023.907 L 181.086 1026.178 L 182.858 1028.49 L 184.629 1030.823 L 186.401 1033.178 L 188.172 1035.553 L 189.944 1037.928 L 191.715 1040.314 L 193.487 1042.7 L 195.259 1045.065 L 197.03 1047.419 L 198.802 1049.742 L 200.573 1052.044 L 202.345 1054.304 L 204.116 1056.523 L 205.888 1058.699 L 207.659 1060.813 L 209.431 1062.864 L 211.202 1064.862 L 212.974 1066.788 L 214.745 1068.629 L 216.517 1070.398 L 218.289 1072.072 L 220.06 1073.662 L 221.832 1075.159 L 223.603 1076.561 L 225.375 1077.858 L 227.146 1079.051 L 228.918 1080.15 L 230.689 1081.134 L 232.461 1082.002 L 234.232 1082.756 L 236.004 1083.404 L 237.776 1083.938 L 239.547 1084.346 L 241.319 1084.639 L 243.09 1084.817 L 244.862 1135.117 L 246.633 1135.064 L 248.405 1134.897 L 250.176 1134.625 L 251.948 1134.238 L 253.719 1133.735 L 255.491 1133.139 L 257.263 1132.438 L 259.034 1131.622 L 260.806 1130.711 L 262.577 1129.717 L 264.349 1128.64 L 266.12 1127.468 L 267.892 1126.212 L 269.663 1124.883 L 271.435 1123.481 L 273.206 1122.016 L 274.978 1120.499 L 276.749 1118.919 L 278.521 1117.286 L 280.293 1115.612 L 282.064 1113.906 L 283.836 1112.159 L 285.607 1110.391 L 287.379 1108.612 L 289.15 1106.822 L 290.922 1105.012 L 292.693 1103.212 L 294.465 1101.413 L 296.236 1099.644 L 298.008 1097.876 L 299.78 1096.139 L 301.551 1094.433 L 303.323 1092.769 L 305.094 1091.148 L 306.866 1089.568 L 308.637 1088.061 L 310.409 1086.596 L 312.18 1085.204 L 313.952 1083.886 L 315.723 1082.64 L 317.495 1081.479 L 319.267 1080.38 L 321.038 1079.386 L 322.81 1078.497 L 324.581 1077.681 L 326.353 1076.98 L 328.124 1076.373 L 329.896 1075.86 L 331.667 1075.462 L 333.439 1075.18 L 335.21 1075.002 L 336.982 1074.929 L 338.754 1074.96 L 340.525 1075.117 L 342.297 1075.389 L 344.068 1075.755 L 345.84 1076.237 L 347.611 1076.843 L 349.383 1077.534 L 351.154 1078.34 L 352.926 1079.261 L 354.697 1080.276 L 356.469 1081.385 L 358.24 1082.588 L 360.012 1083.896 L 361.784 1085.288 L 363.555 1086.753 L 365.327 1088.312 L 367.098 1089.944 L 368.87 1091.66 L 370.641 1093.429 L 372.413 1095.26 L 374.184 1097.133 L 375.956 1099.079 L 377.727 1101.057 L 379.499 1103.087 L 381.271 1105.127 L 383.042 1107.21 L 384.814 1109.313 L 386.585 1111.427 L 388.357 1113.551 L 390.128 1115.675 L 391.9 1117.789 L 393.671 1119.892 L 395.443 1121.985 L 397.214 1124.046 L 398.986 1126.076 L 400.758 1128.064 L 402.529 1130.01 L 404.301 1131.904 L 406.072 1133.746 L 407.844 1135.535 L 409.615 1137.251 L 411.387 1138.894 L 413.158 1140.464 L 414.93 1141.95 L 416.701 1143.341 L 418.473 1144.639 L 420.244 1145.853 L 422.016 1146.962 L 423.788 1147.966 L 425.559 1148.866 L 427.331 1149.651 L 429.102 1150.331 L 430.874 1150.896 L 432.645 1151.346 L 434.417 1151.671 L 436.188 1151.88 L 437.96 1151.963 L 439.731 1151.932 L 441.503 1151.775 L 443.275 1151.503 L 445.046 1151.095 L 446.818 1150.582 L 448.589 1149.934 L 450.361 1149.191 L 452.132 1148.312 L 453.904 1147.338 L 455.675 1146.24 L 457.447 1145.036 L 459.218 1143.728 L 460.99 1142.326 L 462.762 1140.819 L 464.533 1139.219 L 466.305 1137.534 L 468.076 1135.755 L 469.848 1133.913 L 471.619 1131.988 L 473.391 1130 L 475.162 1127.938 L 476.934 1125.825 L 478.705 1123.659 L 480.477 1121.44 L 482.248 1119.191 L 484.02 1116.899 L 485.792 1114.597 L 487.563 1112.264 L 489.335 1109.92 L 491.106 1107.565 L 492.878 1105.211 L 494.649 1102.867 L 496.421 1100.534 L 498.192 1098.211 L 499.964 1095.919 L 501.735 1093.648 L 503.507 1091.43 L 505.279 1089.254 L 507.05 1087.119 L 508.822 1085.058 L 510.593 1083.038 L 512.365 1081.092 L 514.136 1079.208 L 515.908 1077.409 L 517.679 1075.703 L 519.451 1074.06 L 521.222 1072.522 L 522.994 1071.067 L 524.766 1069.707 L 526.537 1068.472 L 528.309 1067.321 L 530.08 1095.574 L 531.852 1094.643 L 533.623 1093.816 L 535.395 1093.104 L 537.166 1092.508 L 538.938 1092.027 L 540.709 1091.66 L 542.481 1091.409 L 544.253 1091.273 L 546.024 1091.252 L 547.796 1091.336 L 549.567 1091.545 L 551.339 1091.87 L 553.11 1092.288 L 554.882 1092.822 L 556.653 1093.45 L 558.425 1094.193 L 560.196 1095.03 L 561.968 1095.961 L 563.739 1096.976 L 565.511 1098.085 L 567.283 1099.278 L 569.054 1100.555 L 570.826 1101.894 L 572.597 1103.307 L 574.369 1104.772 L 576.14 1106.31 L 577.912 1107.89 L 579.683 1109.522 L 581.455 1111.196 L 583.226 1112.891 L 584.998 1114.628 L 586.77 1116.376 L 588.541 1118.155 L 590.313 1119.923 L 592.084 1121.702 L 593.856 1123.481 L 595.627 1125.249 L 597.399 1126.997 L 599.17 1128.723 L 600.942 1130.418 L 602.713 1132.093 L 604.485 1133.704 L 606.257 1135.284 L 608.028 1136.812 L 609.8 1138.277 L 611.571 1139.689 L 613.343 1141.018 L 615.114 1142.274 L 616.886 1143.467 L 618.657 1144.566 L 620.429 1145.581 L 622.2 1146.512 L 623.972 1147.338 L 625.743 1148.071 L 627.515 1148.709 L 629.287 1149.243 L 631.058 1149.672 L 632.83 1149.996 L 634.601 1150.206 L 636.373 1150.3 L 638.144 1150.3 L 639.916 1150.164 L 641.687 1149.934 L 643.459 1149.588 L 645.23 1149.128 L 647.002 1148.563 L 648.774 1147.893 L 650.545 1147.098 L 652.317 1146.208 L 654.088 1145.214 L 655.86 1144.116 L 657.631 1142.923 L 659.403 1141.636 L 661.174 1140.254 L 662.946 1138.779 L 664.717 1137.22 L 666.489 1135.598 L 668.261 1133.882 L 670.032 1132.114 L 671.804 1130.261 L 673.575 1128.357 L 675.347 1126.4 L 677.118 1124.391 L 678.89 1122.34 L 680.661 1120.258 L 682.433 1118.144 L 684.204 1116.01 L 685.976 1113.844 L 687.747 1111.667 L 689.519 1109.501 L 691.291 1107.325 L 693.062 1105.159 L 694.834 1103.003 L 696.605 1100.879 L 698.377 1098.765 L 700.148 1096.693 L 701.92 1094.653 L 703.691 1092.675 L 705.463 1090.75 L 707.234 1088.866 L 709.006 1087.056 L 710.778 1085.309 L 712.549 1083.635 L 714.321 1082.044 L 716.092 1080.537 L 717.864 1079.114 L 719.635 1077.785 L 721.407 1076.571 L 723.178 1075.441 L 724.95 1074.416 L 726.721 1073.495 L 728.493 1072.689 L 730.265 1072.009 L 732.036 1071.434 L 733.808 1070.973 L 735.579 1070.638 L 737.351 1070.419 L 739.122 1070.325 L 740.894 1070.345 L 742.665 1070.492 L 744.437 1070.764 L 746.208 1071.151 L 747.98 1071.664 L 749.752 1072.292 L 751.523 1073.045 L 753.295 1073.903 L 755.066 1074.876 L 756.838 1075.965 L 758.609 1077.157 L 760.381 1078.455 L 762.152 1079.847 L 763.924 1081.332 L 765.695 1082.923 L 767.467 1084.587 L 769.238 1086.345 L 771.01 1088.186 L 772.782 1090.091 L 774.553 1092.058 L 776.325 1094.098 L 778.096 1096.191 L 779.868 1098.326 L 781.639 1100.513 L 783.411 1102.742 L 785.182 1105.002 L 786.954 1107.272 L 788.725 1109.574 L 790.497 1111.887 L 792.269 1114.21 L 794.04 1116.522 L 795.812 1118.824 L 797.583 1121.116 L 799.355 1123.397 L 801.126 1125.647 L 802.898 1127.865 L 804.669 1130.042 L 806.441 1132.176 L 808.212 1134.259 L 809.984 1136.278 L 811.756 1138.245 L 813.527 1140.139 L 815.299 1141.96 L 817.07 1143.708 L 818.842 1145.371 L 820.613 1146.951 L 822.385 1148.437 L 824.156 1149.829 L 825.928 1151.116 L 827.699 1152.319 L 829.471 1153.408 L 831.242 1154.402 L 833.014 1155.27 L 834.786 1156.034 L 836.557 1156.693 L 838.329 1157.227 L 840.1 1157.656 L 841.872 1157.97 L 843.643 1158.169 L 845.415 1158.252 L 847.186 1158.231 L 848.958 1158.085 L 850.729 1157.823 L 852.501 1157.467 L 854.273 1156.997 L 856.044 1156.421 L 857.816 1155.751 L 859.587 1154.977 L 861.359 1154.098 L 863.13 1153.135 L 864.902 1152.079 L 866.673 1150.938 L 868.445 1149.714 L 870.216 1148.427 L 871.988 1147.056 L 873.76 1145.633 L 875.531 1144.137 L 877.303 1142.598 L 879.074 1141.008 L 880.846 1139.365 L 882.617 1137.691 L 884.389 1135.985 L 886.16 1134.259 L 887.932 1132.511 L 889.703 1130.743 L 891.475 1128.985 L 893.246 1127.216 L 895.018 1125.459 L 896.79 1123.711 L 898.561 1121.995 L 900.333 1120.279 L 902.104 1118.626 L 903.876 1116.983 L 905.647 1115.403 L 907.419 1113.865 L 909.19 1112.379 L 910.962 1110.956 L 912.733 1109.606 L 914.505 1108.308 L 916.277 1107.105 L 918.048 1105.975 L 919.82 1104.928 L 921.591 1103.976 L 923.363 1103.108 L 925.134 1102.344 L 926.906 1101.674 L 928.677 1101.109 L 930.449 1100.649 L 932.22 1100.283 L 933.992 1100.042 L 935.764 1099.906 L 937.535 1099.874 L 939.307 1099.969 L 941.078 1100.157 L 942.85 1100.471 L 944.621 1100.9 L 946.393 1101.423 L 948.164 1102.072 L 949.936 1102.825 L 951.707 1103.694 L 953.479 1104.667 L 955.251 1105.734 L 957.022 1106.917 L 958.794 1108.183 L 960.565 1109.553 L 962.337 1111.008 L 964.108 1112.557 L 965.88 1114.179 L 967.651 1115.895 L 969.423 1117.673 L 971.194 1119.515 L 972.966 1121.43 L 974.737 1123.408 L 976.509 1125.427 L 978.281 1127.499 L 980.052 1129.602 L 981.824 1131.758 L 983.595 1133.934 L 985.367 1136.132 L 987.138 1138.34 L 988.91 1140.568 L 990.681 1142.797 L 992.453 1145.015 L 994.224 1147.234 L 995.996 1149.431 L 997.768 1151.608 L 999.539 1153.753 L 1001.311 1155.867 L 1003.082 1157.938 L 1004.854 1159.958 L 1006.625 1161.925 L 1008.397 1163.84 L 1010.168 1165.682 L 1011.94 1167.45 L 1013.711 1169.156 L 1015.483 1170.767 L 1017.255 1172.305 L 1019.026 1173.739 L 1020.798 1175.078 L 1022.569 1176.334 L 1024.341 1177.474 L 1026.112 1178.51 L 1027.884 1179.442 L 1029.655 1180.258 L 1031.427 1180.969 L 1033.198 1181.555 L 1034.97 1182.026 L 1036.741 1182.371 L 1038.513 1182.602 L 1040.285 1182.706 L 1042.056 1182.696 L 1043.828 1182.56 L 1045.599 1182.298 L 1047.371 1181.922 L 1049.142 1181.43 L 1050.914 1180.802 L 1052.685 1180.069 L 1054.457 1179.222 L 1056.228 1178.259 L 1058 1177.181" fill="none" stroke="#f8fafc" stroke-width="4" stroke-linejoin="round" stroke-linecap="round"/>
<path d="M 174 1017.472 L 175.772 1019.606 L 177.543 1021.804 L 179.315 1024.022 L 181.086 1026.303 L 182.858 1028.605 L 184.629 1030.928 L 186.401 1033.293 L 188.172 1035.658 L 189.944 1038.044 L 191.715 1040.429 L 193.487 1042.815 L 195.259 1045.18 L 197.03 1047.524 L 198.802 1049.847 L 200.573 1052.149 L 202.345 1054.409 L 204.116 1056.627 L 205.888 1058.804 L 207.659 1060.918 L 209.431 1062.968 L 211.202 1064.957 L 212.974 1066.882 L 214.745 1068.724 L 216.517 1070.481 L 218.289 1072.156 L 220.06 1073.746 L 221.832 1075.232 L 223.603 1076.634 L 225.375 1077.932 L 227.146 1079.125 L 228.918 1080.213 L 230.689 1081.196 L 232.461 1082.075 L 234.232 1082.829 L 236.004 1083.478 L 237.776 1084.001 L 239.547 1084.398 L 241.319 1084.691 L 243.09 1084.88 L 244.862 1135.169 L 246.633 1135.106 L 248.405 1134.939 L 250.176 1134.667 L 251.948 1134.269 L 253.719 1133.767 L 255.491 1133.16 L 257.263 1132.469 L 259.034 1131.653 L 260.806 1130.753 L 262.577 1129.749 L 264.349 1128.681 L 266.12 1127.509 L 267.892 1126.254 L 269.663 1124.935 L 271.435 1123.533 L 273.206 1122.068 L 274.978 1120.561 L 276.749 1118.992 L 278.521 1117.339 L 280.293 1115.685 L 282.064 1113.99 L 283.836 1112.232 L 285.607 1110.474 L 287.379 1108.695 L 289.15 1106.896 L 290.922 1105.096 L 292.693 1103.296 L 294.465 1101.496 L 296.236 1099.738 L 298.008 1097.98 L 299.78 1096.223 L 301.551 1094.527 L 303.323 1092.874 L 305.094 1091.242 L 306.866 1089.672 L 308.637 1088.165 L 310.409 1086.7 L 312.18 1085.298 L 313.952 1083.98 L 315.723 1082.745 L 317.495 1081.594 L 319.267 1080.485 L 321.038 1079.501 L 322.81 1078.601 L 324.581 1077.785 L 326.353 1077.095 L 328.124 1076.488 L 329.896 1075.985 L 331.667 1075.567 L 333.439 1075.295 L 335.21 1075.106 L 336.982 1075.044 L 338.754 1075.065 L 340.525 1075.232 L 342.297 1075.504 L 344.068 1075.881 L 345.84 1076.362 L 347.611 1076.948 L 349.383 1077.66 L 351.154 1078.455 L 352.926 1079.376 L 354.697 1080.401 L 356.469 1081.489 L 358.24 1082.703 L 360.012 1084.001 L 361.784 1085.403 L 363.555 1086.847 L 365.327 1088.417 L 367.098 1090.049 L 368.87 1091.765 L 370.641 1093.523 L 372.413 1095.365 L 374.184 1097.227 L 375.956 1099.173 L 377.727 1101.161 L 379.499 1103.171 L 381.271 1105.221 L 383.042 1107.293 L 384.814 1109.386 L 386.585 1111.5 L 388.357 1113.634 L 390.128 1115.748 L 391.9 1117.862 L 393.671 1119.955 L 395.443 1122.047 L 397.214 1124.119 L 398.986 1126.149 L 400.758 1128.137 L 402.529 1130.063 L 404.301 1131.946 L 406.072 1133.809 L 407.844 1135.567 L 409.615 1137.304 L 411.387 1138.936 L 413.158 1140.506 L 414.93 1141.991 L 416.701 1143.373 L 418.473 1144.67 L 420.244 1145.884 L 422.016 1146.993 L 423.788 1147.998 L 425.559 1148.898 L 427.331 1149.693 L 429.102 1150.383 L 430.874 1150.949 L 432.645 1151.388 L 434.417 1151.723 L 436.188 1151.932 L 437.96 1152.037 L 439.731 1151.995 L 441.503 1151.848 L 443.275 1151.576 L 445.046 1151.179 L 446.818 1150.656 L 448.589 1150.007 L 450.361 1149.274 L 452.132 1148.395 L 453.904 1147.433 L 455.675 1146.323 L 457.447 1145.11 L 459.218 1143.812 L 460.99 1142.41 L 462.762 1140.924 L 464.533 1139.334 L 466.305 1137.638 L 468.076 1135.86 L 469.848 1134.018 L 471.619 1132.093 L 473.391 1130.105 L 475.162 1128.054 L 476.934 1125.94 L 478.705 1123.763 L 480.477 1121.545 L 482.248 1119.306 L 484.02 1117.004 L 485.792 1114.702 L 487.563 1112.358 L 489.335 1110.035 L 491.106 1107.691 L 492.878 1105.326 L 494.649 1102.982 L 496.421 1100.659 L 498.192 1098.315 L 499.964 1096.034 L 501.735 1093.774 L 503.507 1091.535 L 505.279 1089.358 L 507.05 1087.245 L 508.822 1085.173 L 510.593 1083.164 L 512.365 1081.196 L 514.136 1079.313 L 515.908 1077.534 L 517.679 1075.818 L 519.451 1074.165 L 521.222 1072.637 L 522.994 1071.172 L 524.766 1069.812 L 526.537 1068.577 L 528.309 1067.426 L 530.08 1095.678 L 531.852 1094.737 L 533.623 1093.921 L 535.395 1093.188 L 537.166 1092.602 L 538.938 1092.1 L 540.709 1091.744 L 542.481 1091.493 L 544.253 1091.367 L 546.024 1091.325 L 547.796 1091.409 L 549.567 1091.618 L 551.339 1091.953 L 553.11 1092.372 L 554.882 1092.895 L 556.653 1093.523 L 558.425 1094.255 L 560.196 1095.092 L 561.968 1096.013 L 563.739 1097.018 L 565.511 1098.127 L 567.283 1099.341 L 569.054 1100.596 L 570.826 1101.936 L 572.597 1103.338 L 574.369 1104.824 L 576.14 1106.352 L 577.912 1107.921 L 579.683 1109.553 L 581.455 1111.228 L 583.226 1112.923 L 584.998 1114.681 L 586.77 1116.418 L 588.541 1118.197 L 590.313 1119.975 L 592.084 1121.754 L 593.856 1123.533 L 595.627 1125.312 L 597.399 1127.049 L 599.17 1128.786 L 600.942 1130.481 L 602.713 1132.155 L 604.485 1133.767 L 606.257 1135.357 L 608.028 1136.885 L 609.8 1138.371 L 611.571 1139.773 L 613.343 1141.092 L 615.114 1142.368 L 616.886 1143.561 L 618.657 1144.649 L 620.429 1145.675 L 622.2 1146.596 L 623.972 1147.433 L 625.743 1148.165 L 627.515 1148.793 L 629.287 1149.337 L 631.058 1149.777 L 632.83 1150.111 L 634.601 1150.3 L 636.373 1150.404 L 638.144 1150.404 L 639.916 1150.279 L 641.687 1150.049 L 643.459 1149.693 L 645.23 1149.232 L 647.002 1148.667 L 648.774 1147.998 L 650.545 1147.202 L 652.317 1146.323 L 654.088 1145.319 L 655.86 1144.231 L 657.631 1143.038 L 659.403 1141.74 L 661.174 1140.359 L 662.946 1138.894 L 664.717 1137.345 L 666.489 1135.713 L 668.261 1133.997 L 670.032 1132.218 L 671.804 1130.377 L 673.575 1128.472 L 675.347 1126.505 L 677.118 1124.496 L 678.89 1122.445 L 680.661 1120.352 L 682.433 1118.238 L 684.204 1116.104 L 685.976 1113.948 L 687.747 1111.772 L 689.519 1109.616 L 691.291 1107.419 L 693.062 1105.263 L 694.834 1103.108 L 696.605 1100.973 L 698.377 1098.859 L 700.148 1096.788 L 701.92 1094.737 L 703.691 1092.749 L 705.463 1090.844 L 707.234 1088.961 L 709.006 1087.14 L 710.778 1085.382 L 712.549 1083.708 L 714.321 1082.117 L 716.092 1080.61 L 717.864 1079.166 L 719.635 1077.848 L 721.407 1076.634 L 723.178 1075.504 L 724.95 1074.458 L 726.721 1073.537 L 728.493 1072.742 L 730.265 1072.051 L 732.036 1071.465 L 733.808 1071.026 L 735.579 1070.67 L 737.351 1070.461 L 739.122 1070.356 L 740.894 1070.377 L 742.665 1070.523 L 744.437 1070.816 L 746.208 1071.193 L 747.98 1071.716 L 749.752 1072.344 L 751.523 1073.077 L 753.295 1073.955 L 755.066 1074.918 L 756.838 1076.006 L 758.609 1077.22 L 760.381 1078.518 L 762.152 1079.899 L 763.924 1081.385 L 765.695 1082.996 L 767.467 1084.67 L 769.238 1086.428 L 771.01 1088.27 L 772.782 1090.174 L 774.553 1092.142 L 776.325 1094.193 L 778.096 1096.285 L 779.868 1098.42 L 781.639 1100.596 L 783.411 1102.836 L 785.182 1105.096 L 786.954 1107.377 L 788.725 1109.679 L 790.497 1111.981 L 792.269 1114.304 L 794.04 1116.627 L 795.812 1118.929 L 797.583 1121.231 L 799.355 1123.512 L 801.126 1125.752 L 802.898 1127.97 L 804.669 1130.146 L 806.441 1132.302 L 808.212 1134.374 L 809.984 1136.383 L 811.756 1138.35 L 813.527 1140.254 L 815.299 1142.075 L 817.07 1143.812 L 818.842 1145.486 L 820.613 1147.077 L 822.385 1148.563 L 824.156 1149.944 L 825.928 1151.221 L 827.699 1152.434 L 829.471 1153.523 L 831.242 1154.506 L 833.014 1155.385 L 834.786 1156.16 L 836.557 1156.808 L 838.329 1157.352 L 840.1 1157.771 L 841.872 1158.085 L 843.643 1158.273 L 845.415 1158.357 L 847.186 1158.336 L 848.958 1158.189 L 850.729 1157.917 L 852.501 1157.562 L 854.273 1157.101 L 856.044 1156.515 L 857.816 1155.846 L 859.587 1155.071 L 861.359 1154.192 L 863.13 1153.209 L 864.902 1152.162 L 866.673 1151.032 L 868.445 1149.797 L 870.216 1148.5 L 871.988 1147.14 L 873.76 1145.696 L 875.531 1144.21 L 877.303 1142.682 L 879.074 1141.071 L 880.846 1139.417 L 882.617 1137.764 L 884.389 1136.048 L 886.16 1134.311 L 887.932 1132.553 L 889.703 1130.795 L 891.475 1129.016 L 893.246 1127.258 L 895.018 1125.5 L 896.79 1123.742 L 898.561 1122.026 L 900.333 1120.31 L 902.104 1118.657 L 903.876 1117.004 L 905.647 1115.455 L 907.419 1113.906 L 909.19 1112.421 L 910.962 1110.998 L 912.733 1109.658 L 914.505 1108.361 L 916.277 1107.147 L 918.048 1106.038 L 919.82 1104.97 L 921.591 1104.029 L 923.363 1103.171 L 925.134 1102.417 L 926.906 1101.747 L 928.677 1101.182 L 930.449 1100.722 L 932.22 1100.345 L 933.992 1100.115 L 935.764 1099.99 L 937.535 1099.948 L 939.307 1100.052 L 941.078 1100.241 L 942.85 1100.555 L 944.621 1100.994 L 946.393 1101.517 L 948.164 1102.166 L 949.936 1102.919 L 951.707 1103.798 L 953.479 1104.761 L 955.251 1105.849 L 957.022 1107.021 L 958.794 1108.298 L 960.565 1109.658 L 962.337 1111.123 L 964.108 1112.651 L 965.88 1114.283 L 967.651 1115.999 L 969.423 1117.778 L 971.194 1119.62 L 972.966 1121.545 L 974.737 1123.512 L 976.509 1125.542 L 978.281 1127.614 L 980.052 1129.728 L 981.824 1131.862 L 983.595 1134.039 L 985.367 1136.236 L 987.138 1138.455 L 988.91 1140.694 L 990.681 1142.912 L 992.453 1145.131 L 994.224 1147.349 L 995.996 1149.546 L 997.768 1151.702 L 999.539 1153.878 L 1001.311 1155.971 L 1003.082 1158.043 L 1004.854 1160.073 L 1006.625 1162.04 L 1008.397 1163.945 L 1010.168 1165.786 L 1011.94 1167.544 L 1013.711 1169.26 L 1015.483 1170.872 L 1017.255 1172.399 L 1019.026 1173.843 L 1020.798 1175.162 L 1022.569 1176.418 L 1024.341 1177.569 L 1026.112 1178.594 L 1027.884 1179.515 L 1029.655 1180.331 L 1031.427 1181.043 L 1033.198 1181.629 L 1034.97 1182.11 L 1036.741 1182.445 L 1038.513 1182.675 L 1040.285 1182.759 L 1042.056 1182.759 L 1043.828 1182.612 L 1045.599 1182.361 L 1047.371 1181.963 L 1049.142 1181.482 L 1050.914 1180.854 L 1052.685 1180.122 L 1054.457 1179.264 L 1056.228 1178.301 L 1058 1177.234" fill="none" stroke="#53f3c3" stroke-width="4" stroke-linejoin="round" stroke-linecap="round"/>
<path d="M 174 1017.241 L 175.772 1019.376 L 177.543 1021.552 L 179.315 1023.792 L 181.086 1026.052 L 182.858 1028.375 L 184.629 1030.719 L 186.401 1033.063 L 188.172 1035.448 L 189.944 1037.813 L 191.715 1040.199 L 193.487 1042.585 L 195.259 1044.95 L 197.03 1047.314 L 198.802 1049.637 L 200.573 1051.94 L 202.345 1054.2 L 204.116 1056.418 L 205.888 1058.595 L 207.659 1060.708 L 209.431 1062.759 L 211.202 1064.768 L 212.974 1066.694 L 214.745 1068.535 L 216.517 1070.314 L 218.289 1071.988 L 220.06 1073.579 L 221.832 1075.086 L 223.603 1076.488 L 225.375 1077.785 L 227.146 1078.978 L 228.918 1080.087 L 230.689 1081.071 L 232.461 1081.929 L 234.232 1082.682 L 236.004 1083.331 L 237.776 1083.875 L 239.547 1084.294 L 241.319 1084.587 L 243.09 1084.754 L 244.862 1135.064 L 246.633 1135.023 L 248.405 1134.855 L 250.176 1134.583 L 251.948 1134.206 L 253.719 1133.704 L 255.491 1133.118 L 257.263 1132.407 L 259.034 1131.59 L 260.806 1130.67 L 262.577 1129.686 L 264.349 1128.598 L 266.12 1127.426 L 267.892 1126.17 L 269.663 1124.831 L 271.435 1123.429 L 273.206 1121.964 L 274.978 1120.436 L 276.749 1118.845 L 278.521 1117.234 L 280.293 1115.539 L 282.064 1113.823 L 283.836 1112.086 L 285.607 1110.307 L 287.379 1108.528 L 289.15 1106.749 L 290.922 1104.928 L 292.693 1103.129 L 294.465 1101.329 L 296.236 1099.55 L 298.008 1097.771 L 299.78 1096.055 L 301.551 1094.339 L 303.323 1092.665 L 305.094 1091.053 L 306.866 1089.463 L 308.637 1087.956 L 310.409 1086.491 L 312.18 1085.11 L 313.952 1083.791 L 315.723 1082.536 L 317.495 1081.364 L 319.267 1080.276 L 321.038 1079.271 L 322.81 1078.392 L 324.581 1077.576 L 326.353 1076.864 L 328.124 1076.258 L 329.896 1075.734 L 331.667 1075.358 L 333.439 1075.065 L 335.21 1074.897 L 336.982 1074.814 L 338.754 1074.855 L 340.525 1075.002 L 342.297 1075.274 L 344.068 1075.63 L 345.84 1076.111 L 347.611 1076.739 L 349.383 1077.409 L 351.154 1078.225 L 352.926 1079.146 L 354.697 1080.15 L 356.469 1081.28 L 358.24 1082.473 L 360.012 1083.791 L 361.784 1085.173 L 363.555 1086.659 L 365.327 1088.207 L 367.098 1089.84 L 368.87 1091.556 L 370.641 1093.335 L 372.413 1095.155 L 374.184 1097.039 L 375.956 1098.985 L 377.727 1100.952 L 379.499 1103.003 L 381.271 1105.033 L 383.042 1107.126 L 384.814 1109.24 L 386.585 1111.353 L 388.357 1113.467 L 390.128 1115.602 L 391.9 1117.715 L 393.671 1119.829 L 395.443 1121.922 L 397.214 1123.973 L 398.986 1126.003 L 400.758 1127.991 L 402.529 1129.958 L 404.301 1131.862 L 406.072 1133.683 L 407.844 1135.504 L 409.615 1137.199 L 411.387 1138.852 L 413.158 1140.422 L 414.93 1141.908 L 416.701 1143.31 L 418.473 1144.607 L 420.244 1145.821 L 422.016 1146.93 L 423.788 1147.935 L 425.559 1148.835 L 427.331 1149.609 L 429.102 1150.279 L 430.874 1150.844 L 432.645 1151.304 L 434.417 1151.618 L 436.188 1151.827 L 437.96 1151.89 L 439.731 1151.869 L 441.503 1151.702 L 443.275 1151.43 L 445.046 1151.011 L 446.818 1150.509 L 448.589 1149.86 L 450.361 1149.107 L 452.132 1148.228 L 453.904 1147.244 L 455.675 1146.156 L 457.447 1144.963 L 459.218 1143.645 L 460.99 1142.243 L 462.762 1140.715 L 464.533 1139.103 L 466.305 1137.429 L 468.076 1135.65 L 469.848 1133.809 L 471.619 1131.883 L 473.391 1129.895 L 475.162 1127.823 L 476.934 1125.71 L 478.705 1123.554 L 480.477 1121.336 L 482.248 1119.076 L 484.02 1116.794 L 485.792 1114.492 L 487.563 1112.169 L 489.335 1109.805 L 491.106 1107.44 L 492.878 1105.096 L 494.649 1102.752 L 496.421 1100.408 L 498.192 1098.106 L 499.964 1095.804 L 501.735 1093.523 L 503.507 1091.325 L 505.279 1089.149 L 507.05 1086.993 L 508.822 1084.943 L 510.593 1082.913 L 512.365 1080.987 L 514.136 1079.104 L 515.908 1077.283 L 517.679 1075.588 L 519.451 1073.955 L 521.222 1072.407 L 522.994 1070.963 L 524.766 1069.603 L 526.537 1068.368 L 528.309 1067.217 L 530.08 1095.469 L 531.852 1094.548 L 533.623 1093.711 L 535.395 1093.021 L 537.166 1092.414 L 538.938 1091.953 L 540.709 1091.577 L 542.481 1091.325 L 544.253 1091.179 L 546.024 1091.179 L 547.796 1091.263 L 549.567 1091.472 L 551.339 1091.786 L 553.11 1092.204 L 554.882 1092.749 L 556.653 1093.376 L 558.425 1094.13 L 560.196 1094.967 L 561.968 1095.909 L 563.739 1096.934 L 565.511 1098.043 L 567.283 1099.215 L 569.054 1100.513 L 570.826 1101.852 L 572.597 1103.275 L 574.369 1104.719 L 576.14 1106.268 L 577.912 1107.858 L 579.683 1109.491 L 581.455 1111.165 L 583.226 1112.86 L 584.998 1114.576 L 586.77 1116.334 L 588.541 1118.113 L 590.313 1119.871 L 592.084 1121.65 L 593.856 1123.429 L 595.627 1125.186 L 597.399 1126.944 L 599.17 1128.66 L 600.942 1130.356 L 602.713 1132.03 L 604.485 1133.641 L 606.257 1135.211 L 608.028 1136.739 L 609.8 1138.183 L 611.571 1139.606 L 613.343 1140.945 L 615.114 1142.18 L 616.886 1143.373 L 618.657 1144.482 L 620.429 1145.486 L 622.2 1146.428 L 623.972 1147.244 L 625.743 1147.977 L 627.515 1148.626 L 629.287 1149.149 L 631.058 1149.567 L 632.83 1149.881 L 634.601 1150.111 L 636.373 1150.195 L 638.144 1150.195 L 639.916 1150.049 L 641.687 1149.818 L 643.459 1149.484 L 645.23 1149.023 L 647.002 1148.458 L 648.774 1147.788 L 650.545 1146.993 L 652.317 1146.093 L 654.088 1145.11 L 655.86 1144.001 L 657.631 1142.808 L 659.403 1141.531 L 661.174 1140.15 L 662.946 1138.664 L 664.717 1137.094 L 666.489 1135.483 L 668.261 1133.767 L 670.032 1132.009 L 671.804 1130.146 L 673.575 1128.242 L 675.347 1126.296 L 677.118 1124.287 L 678.89 1122.236 L 680.661 1120.164 L 682.433 1118.05 L 684.204 1115.916 L 685.976 1113.739 L 687.747 1111.563 L 689.519 1109.386 L 691.291 1107.231 L 693.062 1105.054 L 694.834 1102.898 L 696.605 1100.785 L 698.377 1098.671 L 700.148 1096.599 L 701.92 1094.569 L 703.691 1092.602 L 705.463 1090.656 L 707.234 1088.772 L 709.006 1086.973 L 710.778 1085.236 L 712.549 1083.561 L 714.321 1081.971 L 716.092 1080.464 L 717.864 1079.062 L 719.635 1077.722 L 721.407 1076.509 L 723.178 1075.379 L 724.95 1074.374 L 726.721 1073.453 L 728.493 1072.637 L 730.265 1071.967 L 732.036 1071.402 L 733.808 1070.921 L 735.579 1070.607 L 737.351 1070.377 L 739.122 1070.293 L 740.894 1070.314 L 742.665 1070.461 L 744.437 1070.712 L 746.208 1071.109 L 747.98 1071.612 L 749.752 1072.239 L 751.523 1073.014 L 753.295 1073.851 L 755.066 1074.834 L 756.838 1075.923 L 758.609 1077.095 L 760.381 1078.392 L 762.152 1079.794 L 763.924 1081.28 L 765.695 1082.85 L 767.467 1084.503 L 769.238 1086.261 L 771.01 1088.103 L 772.782 1090.007 L 774.553 1091.974 L 776.325 1094.004 L 778.096 1096.097 L 779.868 1098.232 L 781.639 1100.429 L 783.411 1102.647 L 785.182 1104.908 L 786.954 1107.168 L 788.725 1109.47 L 790.497 1111.793 L 792.269 1114.116 L 794.04 1116.418 L 795.812 1118.72 L 797.583 1121.001 L 799.355 1123.282 L 801.126 1125.542 L 802.898 1127.761 L 804.669 1129.937 L 806.441 1132.051 L 808.212 1134.144 L 809.984 1136.174 L 811.756 1138.141 L 813.527 1140.024 L 815.299 1141.845 L 817.07 1143.603 L 818.842 1145.256 L 820.613 1146.826 L 822.385 1148.312 L 824.156 1149.714 L 825.928 1151.011 L 827.699 1152.204 L 829.471 1153.292 L 831.242 1154.297 L 833.014 1155.155 L 834.786 1155.908 L 836.557 1156.578 L 838.329 1157.101 L 840.1 1157.541 L 841.872 1157.855 L 843.643 1158.064 L 845.415 1158.148 L 847.186 1158.127 L 848.958 1157.98 L 850.729 1157.729 L 852.501 1157.373 L 854.273 1156.892 L 856.044 1156.327 L 857.816 1155.657 L 859.587 1154.883 L 861.359 1154.004 L 863.13 1153.062 L 864.902 1151.995 L 866.673 1150.844 L 868.445 1149.63 L 870.216 1148.353 L 871.988 1146.972 L 873.76 1145.57 L 875.531 1144.063 L 877.303 1142.515 L 879.074 1140.945 L 880.846 1139.313 L 882.617 1137.618 L 884.389 1135.922 L 886.16 1134.206 L 887.932 1132.469 L 889.703 1130.69 L 891.475 1128.953 L 893.246 1127.175 L 895.018 1125.417 L 896.79 1123.68 L 898.561 1121.964 L 900.333 1120.248 L 902.104 1118.594 L 903.876 1116.962 L 905.647 1115.35 L 907.419 1113.823 L 909.19 1112.337 L 910.962 1110.914 L 912.733 1109.553 L 914.505 1108.256 L 916.277 1107.063 L 918.048 1105.912 L 919.82 1104.887 L 921.591 1103.924 L 923.363 1103.045 L 925.134 1102.271 L 926.906 1101.601 L 928.677 1101.036 L 930.449 1100.576 L 932.22 1100.22 L 933.992 1099.969 L 935.764 1099.822 L 937.535 1099.801 L 939.307 1099.885 L 941.078 1100.073 L 942.85 1100.387 L 944.621 1100.806 L 946.393 1101.329 L 948.164 1101.978 L 949.936 1102.731 L 951.707 1103.589 L 953.479 1104.573 L 955.251 1105.619 L 957.022 1106.812 L 958.794 1108.068 L 960.565 1109.449 L 962.337 1110.893 L 964.108 1112.462 L 965.88 1114.074 L 967.651 1115.79 L 969.423 1117.569 L 971.194 1119.41 L 972.966 1121.315 L 974.737 1123.303 L 976.509 1125.312 L 978.281 1127.384 L 980.052 1129.477 L 981.824 1131.653 L 983.595 1133.83 L 985.367 1136.027 L 987.138 1138.224 L 988.91 1140.443 L 990.681 1142.682 L 992.453 1144.9 L 994.224 1147.119 L 995.996 1149.316 L 997.768 1151.514 L 999.539 1153.627 L 1001.311 1155.762 L 1003.082 1157.834 L 1004.854 1159.843 L 1006.625 1161.81 L 1008.397 1163.735 L 1010.168 1165.577 L 1011.94 1167.356 L 1013.711 1169.051 L 1015.483 1170.662 L 1017.255 1172.211 L 1019.026 1173.634 L 1020.798 1174.994 L 1022.569 1176.25 L 1024.341 1177.38 L 1026.112 1178.427 L 1027.884 1179.368 L 1029.655 1180.185 L 1031.427 1180.896 L 1033.198 1181.482 L 1034.97 1181.942 L 1036.741 1182.298 L 1038.513 1182.528 L 1040.285 1182.654 L 1042.056 1182.633 L 1043.828 1182.507 L 1045.599 1182.235 L 1047.371 1181.88 L 1049.142 1181.377 L 1050.914 1180.75 L 1052.685 1180.017 L 1054.457 1179.18 L 1056.228 1178.217 L 1058 1177.129" fill="none" stroke="#ff6b8a" stroke-width="4" stroke-linejoin="round" stroke-linecap="round"/>
<line x1="196" y1="990" x2="230" y2="990" stroke="#f8fafc" stroke-width="5" stroke-linecap="round"/>
<text x="242" y="996" class="legend">midprice</text>
<line x1="382" y1="990" x2="416" y2="990" stroke="#53f3c3" stroke-width="5" stroke-linecap="round"/>
<text x="428" y="996" class="legend">best bid</text>
<line x1="568" y1="990" x2="602" y2="990" stroke="#ff6b8a" stroke-width="5" stroke-linecap="round"/>
<text x="614" y="996" class="legend">best ask</text>
<text x="1046" y="1226" text-anchor="end" class="tiny">USDT</text>
<line x1="174" y1="1196" x2="174" y2="1204" stroke="#2f4b62" stroke-width="2"/>
<text x="174" y="1226" text-anchor="middle" class="tick">00:00:05</text>
<line x1="395" y1="1196" x2="395" y2="1204" stroke="#2f4b62" stroke-width="2"/>
<text x="395" y="1226" text-anchor="middle" class="tick">00:00:06</text>
<line x1="616" y1="1196" x2="616" y2="1204" stroke="#2f4b62" stroke-width="2"/>
<text x="616" y="1226" text-anchor="middle" class="tick">00:00:07</text>
<line x1="837" y1="1196" x2="837" y2="1204" stroke="#2f4b62" stroke-width="2"/>
<text x="837" y="1226" text-anchor="middle" class="tick">00:00:08</text>
<line x1="1058" y1="1196" x2="1058" y2="1204" stroke="#2f4b62" stroke-width="2"/>
<text x="1058" y="1226" text-anchor="middle" class="tick">00:00:09</text>

  <rect x="1118" y="892" width="932" height="350" rx="26" class="panel" filter="url(#shadow)"/>
  <text x="1154" y="938" class="panel-title">Aggregate Trade Volume</text>
  <text x="1154" y="968" class="panel-subtitle">Stacked buy and sell volume per time bucket.</text>
  <rect x="1142" y="1004" width="884" height="192" rx="12" fill="#0b1627" stroke="#263c56" stroke-width="2"/>
<line x1="1142" y1="1052" x2="2026" y2="1052" class="grid"/>
<line x1="1142" y1="1100" x2="2026" y2="1100" class="grid"/>
<line x1="1142" y1="1148" x2="2026" y2="1148" class="grid"/>
<line x1="1289.333" y1="1004" x2="1289.333" y2="1196" class="grid"/>
<line x1="1436.667" y1="1004" x2="1436.667" y2="1196" class="grid"/>
<line x1="1584" y1="1004" x2="1584" y2="1196" class="grid"/>
<line x1="1731.333" y1="1004" x2="1731.333" y2="1196" class="grid"/>
<line x1="1878.667" y1="1004" x2="1878.667" y2="1196" class="grid"/>
<line x1="1142" y1="1196" x2="2026" y2="1196" class="axis"/>
<line x1="1142" y1="1004" x2="1142" y2="1196" class="axis"/>
<text x="1128" y="1009" text-anchor="end" class="tick">12.903</text>
<text x="1128" y="1057" text-anchor="end" class="tick">9.677</text>
<text x="1128" y="1105" text-anchor="end" class="tick">6.451</text>
<text x="1128" y="1153" text-anchor="end" class="tick">3.226</text>
<text x="1128" y="1201" text-anchor="end" class="tick">0</text>
<rect x="1147.46" y="1050.756" width="15.08" height="145.244" rx="3" fill="#39d353" opacity="0.9"/>
<rect x="1147.46" y="1024.571" width="15.08" height="26.185" rx="3" fill="#ff5f6d" opacity="0.9"/>
<rect x="1173.46" y="1097.019" width="15.08" height="98.981" rx="3" fill="#39d353" opacity="0.9"/>
<rect x="1173.46" y="1059.088" width="15.08" height="37.932" rx="3" fill="#ff5f6d" opacity="0.9"/>
<rect x="1199.46" y="1085.179" width="15.08" height="110.821" rx="3" fill="#39d353" opacity="0.9"/>
<rect x="1199.46" y="1051.829" width="15.08" height="33.351" rx="3" fill="#ff5f6d" opacity="0.9"/>
<rect x="1225.46" y="1123.967" width="15.08" height="72.033" rx="3" fill="#39d353" opacity="0.9"/>
<rect x="1225.46" y="1066.451" width="15.08" height="57.515" rx="3" fill="#ff5f6d" opacity="0.9"/>
<rect x="1251.46" y="1167.618" width="15.08" height="28.382" rx="3" fill="#39d353" opacity="0.9"/>
<rect x="1251.46" y="1073.972" width="15.08" height="93.645" rx="3" fill="#ff5f6d" opacity="0.9"/>
<rect x="1277.46" y="1168.938" width="15.08" height="27.062" rx="3" fill="#39d353" opacity="0.9"/>
<rect x="1277.46" y="1110.1" width="15.08" height="58.838" rx="3" fill="#ff5f6d" opacity="0.9"/>
<rect x="1303.46" y="1172.915" width="15.08" height="23.085" rx="3" fill="#39d353" opacity="0.9"/>
<rect x="1303.46" y="1139.19" width="15.08" height="33.725" rx="3" fill="#ff5f6d" opacity="0.9"/>
<rect x="1329.46" y="1165.823" width="15.08" height="30.177" rx="3" fill="#39d353" opacity="0.9"/>
<rect x="1329.46" y="1128.251" width="15.08" height="37.572" rx="3" fill="#ff5f6d" opacity="0.9"/>
<rect x="1355.46" y="1169.94" width="15.08" height="26.06" rx="3" fill="#39d353" opacity="0.9"/>
<rect x="1355.46" y="1133.536" width="15.08" height="36.404" rx="3" fill="#ff5f6d" opacity="0.9"/>
<rect x="1381.46" y="1181.722" width="15.08" height="14.278" rx="3" fill="#39d353" opacity="0.9"/>
<rect x="1381.46" y="1145.375" width="15.08" height="36.347" rx="3" fill="#ff5f6d" opacity="0.9"/>
<rect x="1407.46" y="1181.122" width="15.08" height="14.878" rx="3" fill="#39d353" opacity="0.9"/>
<rect x="1407.46" y="1142.113" width="15.08" height="39.009" rx="3" fill="#ff5f6d" opacity="0.9"/>
<rect x="1433.46" y="1178.833" width="15.08" height="17.167" rx="3" fill="#39d353" opacity="0.9"/>
<rect x="1433.46" y="1135.016" width="15.08" height="43.816" rx="3" fill="#ff5f6d" opacity="0.9"/>
<rect x="1459.46" y="1176.816" width="15.08" height="19.184" rx="3" fill="#39d353" opacity="0.9"/>
<rect x="1459.46" y="1132.89" width="15.08" height="43.926" rx="3" fill="#ff5f6d" opacity="0.9"/>
<rect x="1485.46" y="1173.674" width="15.08" height="22.326" rx="3" fill="#39d353" opacity="0.9"/>
<rect x="1485.46" y="1119.414" width="15.08" height="54.26" rx="3" fill="#ff5f6d" opacity="0.9"/>
<rect x="1511.46" y="1174.883" width="15.08" height="21.117" rx="3" fill="#39d353" opacity="0.9"/>
<rect x="1511.46" y="1134.033" width="15.08" height="40.849" rx="3" fill="#ff5f6d" opacity="0.9"/>
<rect x="1537.46" y="1176.914" width="15.08" height="19.086" rx="3" fill="#39d353" opacity="0.9"/>
<rect x="1537.46" y="1140.518" width="15.08" height="36.396" rx="3" fill="#ff5f6d" opacity="0.9"/>
<rect x="1563.46" y="1177.398" width="15.08" height="18.602" rx="3" fill="#39d353" opacity="0.9"/>
<rect x="1563.46" y="1136.302" width="15.08" height="41.096" rx="3" fill="#ff5f6d" opacity="0.9"/>
<rect x="1589.46" y="1183.494" width="15.08" height="12.506" rx="3" fill="#39d353" opacity="0.9"/>
<rect x="1589.46" y="1134.751" width="15.08" height="48.743" rx="3" fill="#ff5f6d" opacity="0.9"/>
<rect x="1615.46" y="1185.115" width="15.08" height="10.885" rx="3" fill="#39d353" opacity="0.9"/>
<rect x="1615.46" y="1149.071" width="15.08" height="36.044" rx="3" fill="#ff5f6d" opacity="0.9"/>
<rect x="1641.46" y="1167.934" width="15.08" height="28.066" rx="3" fill="#39d353" opacity="0.9"/>
<rect x="1641.46" y="1125.083" width="15.08" height="42.85" rx="3" fill="#ff5f6d" opacity="0.9"/>
<rect x="1667.46" y="1175.79" width="15.08" height="20.21" rx="3" fill="#39d353" opacity="0.9"/>
<rect x="1667.46" y="1135.351" width="15.08" height="40.439" rx="3" fill="#ff5f6d" opacity="0.9"/>
<rect x="1693.46" y="1178.211" width="15.08" height="17.789" rx="3" fill="#39d353" opacity="0.9"/>
<rect x="1693.46" y="1138.548" width="15.08" height="39.663" rx="3" fill="#ff5f6d" opacity="0.9"/>
<rect x="1719.46" y="1174.067" width="15.08" height="21.933" rx="3" fill="#39d353" opacity="0.9"/>
<rect x="1719.46" y="1143.744" width="15.08" height="30.323" rx="3" fill="#ff5f6d" opacity="0.9"/>
<rect x="1745.46" y="1179.699" width="15.08" height="16.301" rx="3" fill="#39d353" opacity="0.9"/>
<rect x="1745.46" y="1127.346" width="15.08" height="52.353" rx="3" fill="#ff5f6d" opacity="0.9"/>
<rect x="1771.46" y="1184.816" width="15.08" height="11.184" rx="3" fill="#39d353" opacity="0.9"/>
<rect x="1771.46" y="1137.861" width="15.08" height="46.955" rx="3" fill="#ff5f6d" opacity="0.9"/>
<rect x="1797.46" y="1171.519" width="15.08" height="24.481" rx="3" fill="#39d353" opacity="0.9"/>
<rect x="1797.46" y="1125.239" width="15.08" height="46.28" rx="3" fill="#ff5f6d" opacity="0.9"/>
<rect x="1823.46" y="1173.051" width="15.08" height="22.949" rx="3" fill="#39d353" opacity="0.9"/>
<rect x="1823.46" y="1121.299" width="15.08" height="51.752" rx="3" fill="#ff5f6d" opacity="0.9"/>
<rect x="1849.46" y="1168.037" width="15.08" height="27.963" rx="3" fill="#39d353" opacity="0.9"/>
<rect x="1849.46" y="1140.779" width="15.08" height="27.258" rx="3" fill="#ff5f6d" opacity="0.9"/>
<rect x="1875.46" y="1181.379" width="15.08" height="14.621" rx="3" fill="#39d353" opacity="0.9"/>
<rect x="1875.46" y="1141.349" width="15.08" height="40.03" rx="3" fill="#ff5f6d" opacity="0.9"/>
<rect x="1901.46" y="1178.774" width="15.08" height="17.226" rx="3" fill="#39d353" opacity="0.9"/>
<rect x="1901.46" y="1140.391" width="15.08" height="38.384" rx="3" fill="#ff5f6d" opacity="0.9"/>
<rect x="1927.46" y="1181.419" width="15.08" height="14.581" rx="3" fill="#39d353" opacity="0.9"/>
<rect x="1927.46" y="1147.457" width="15.08" height="33.963" rx="3" fill="#ff5f6d" opacity="0.9"/>
<rect x="1953.46" y="1174.562" width="15.08" height="21.438" rx="3" fill="#39d353" opacity="0.9"/>
<rect x="1953.46" y="1125.055" width="15.08" height="49.507" rx="3" fill="#ff5f6d" opacity="0.9"/>
<rect x="1979.46" y="1170.467" width="15.08" height="25.533" rx="3" fill="#39d353" opacity="0.9"/>
<rect x="1979.46" y="1124.283" width="15.08" height="46.184" rx="3" fill="#ff5f6d" opacity="0.9"/>
<rect x="2005.46" y="1178.631" width="15.08" height="17.369" rx="3" fill="#39d353" opacity="0.9"/>
<rect x="2005.46" y="1139.257" width="15.08" height="39.375" rx="3" fill="#ff5f6d" opacity="0.9"/>
<line x1="1164" y1="990" x2="1198" y2="990" stroke="#39d353" stroke-width="5" stroke-linecap="round"/>
<text x="1210" y="996" class="legend">buy volume</text>
<line x1="1374" y1="990" x2="1408" y2="990" stroke="#ff5f6d" stroke-width="5" stroke-linecap="round"/>
<text x="1420" y="996" class="legend">sell volume</text>
<line x1="1142" y1="1196" x2="1142" y2="1204" stroke="#2f4b62" stroke-width="2"/>
<text x="1142" y="1226" text-anchor="middle" class="tick">00:00:05</text>
<line x1="1363" y1="1196" x2="1363" y2="1204" stroke="#2f4b62" stroke-width="2"/>
<text x="1363" y="1226" text-anchor="middle" class="tick">00:00:06</text>
<line x1="1584" y1="1196" x2="1584" y2="1204" stroke="#2f4b62" stroke-width="2"/>
<text x="1584" y="1226" text-anchor="middle" class="tick">00:00:07</text>
<line x1="1805" y1="1196" x2="1805" y2="1204" stroke="#2f4b62" stroke-width="2"/>
<text x="1805" y="1226" text-anchor="middle" class="tick">00:00:08</text>
<line x1="2026" y1="1196" x2="2026" y2="1204" stroke="#2f4b62" stroke-width="2"/>
<text x="2026" y="1226" text-anchor="middle" class="tick">00:00:09</text>

  <rect x="150" y="1284" width="932" height="350" rx="26" class="panel" filter="url(#shadow)"/>
  <text x="186" y="1330" class="panel-title">Bid-Ask Spread</text>
  <text x="186" y="1360" class="panel-subtitle">Quoted spread from the treated book.</text>
  <rect x="174" y="1396" width="884" height="192" rx="12" fill="#0b1627" stroke="#263c56" stroke-width="2"/>
<line x1="174" y1="1444" x2="1058" y2="1444" class="grid"/>
<line x1="174" y1="1492" x2="1058" y2="1492" class="grid"/>
<line x1="174" y1="1540" x2="1058" y2="1540" class="grid"/>
<line x1="321.333" y1="1396" x2="321.333" y2="1588" class="grid"/>
<line x1="468.667" y1="1396" x2="468.667" y2="1588" class="grid"/>
<line x1="616" y1="1396" x2="616" y2="1588" class="grid"/>
<line x1="763.333" y1="1396" x2="763.333" y2="1588" class="grid"/>
<line x1="910.667" y1="1396" x2="910.667" y2="1588" class="grid"/>
<line x1="174" y1="1588" x2="1058" y2="1588" class="axis"/>
<line x1="174" y1="1396" x2="174" y2="1588" class="axis"/>
<text x="160" y="1401" text-anchor="end" class="tick">0.128</text>
<text x="160" y="1449" text-anchor="end" class="tick">0.099</text>
<text x="160" y="1497" text-anchor="end" class="tick">0.07</text>
<text x="160" y="1545" text-anchor="end" class="tick">0.041</text>
<text x="160" y="1593" text-anchor="end" class="tick">0.012</text>
<path d="M 174 1425.793 L 175.772 1425.793 L 177.543 1409.241 L 179.315 1425.793 L 181.086 1409.241 L 182.858 1425.793 L 184.629 1442.345 L 186.401 1425.793 L 188.172 1442.345 L 189.944 1425.793 L 191.715 1425.793 L 193.487 1425.793 L 195.259 1425.793 L 197.03 1442.345 L 198.802 1442.345 L 200.573 1442.345 L 202.345 1442.345 L 204.116 1442.345 L 205.888 1442.345 L 207.659 1442.345 L 209.431 1442.345 L 211.202 1458.897 L 212.974 1458.897 L 214.745 1458.897 L 216.517 1475.448 L 218.289 1475.448 L 220.06 1475.448 L 221.832 1492 L 223.603 1492 L 225.375 1492 L 227.146 1492 L 228.918 1508.552 L 230.689 1508.552 L 232.461 1492 L 234.232 1492 L 236.004 1492 L 237.776 1508.552 L 239.547 1525.103 L 241.319 1525.103 L 243.09 1508.552 L 244.862 1525.103 L 246.633 1541.655 L 248.405 1541.655 L 250.176 1541.655 L 251.948 1558.207 L 253.719 1558.207 L 255.491 1574.759 L 257.263 1558.207 L 259.034 1558.207 L 260.806 1541.655 L 262.577 1558.207 L 264.349 1541.655 L 266.12 1541.655 L 267.892 1541.655 L 269.663 1525.103 L 271.435 1525.103 L 273.206 1525.103 L 274.978 1508.552 L 276.749 1492 L 278.521 1525.103 L 280.293 1492 L 282.064 1475.448 L 283.836 1492 L 285.607 1475.448 L 287.379 1475.448 L 289.15 1492 L 290.922 1475.448 L 292.693 1475.448 L 294.465 1475.448 L 296.236 1458.897 L 298.008 1442.345 L 299.78 1475.448 L 301.551 1458.897 L 303.323 1442.345 L 305.094 1458.897 L 306.866 1442.345 L 308.637 1442.345 L 310.409 1442.345 L 312.18 1458.897 L 313.952 1458.897 L 315.723 1442.345 L 317.495 1425.793 L 319.267 1442.345 L 321.038 1425.793 L 322.81 1442.345 L 324.581 1442.345 L 326.353 1425.793 L 328.124 1425.793 L 329.896 1409.241 L 331.667 1442.345 L 333.439 1425.793 L 335.21 1442.345 L 336.982 1425.793 L 338.754 1442.345 L 340.525 1425.793 L 342.297 1425.793 L 344.068 1409.241 L 345.84 1409.241 L 347.611 1442.345 L 349.383 1409.241 L 351.154 1425.793 L 352.926 1425.793 L 354.697 1409.241 L 356.469 1442.345 L 358.24 1425.793 L 360.012 1442.345 L 361.784 1425.793 L 363.555 1458.897 L 365.327 1442.345 L 367.098 1442.345 L 368.87 1442.345 L 370.641 1458.897 L 372.413 1442.345 L 374.184 1458.897 L 375.956 1458.897 L 377.727 1442.345 L 379.499 1475.448 L 381.271 1458.897 L 383.042 1475.448 L 384.814 1492 L 386.585 1492 L 388.357 1475.448 L 390.128 1492 L 391.9 1492 L 393.671 1508.552 L 395.443 1508.552 L 397.214 1492 L 398.986 1492 L 400.758 1492 L 402.529 1525.103 L 404.301 1541.655 L 406.072 1508.552 L 407.844 1558.207 L 409.615 1525.103 L 411.387 1541.655 L 413.158 1541.655 L 414.93 1541.655 L 416.701 1558.207 L 418.473 1558.207 L 420.244 1558.207 L 422.016 1558.207 L 423.788 1558.207 L 425.559 1558.207 L 427.331 1541.655 L 429.102 1525.103 L 430.874 1525.103 L 432.645 1541.655 L 434.417 1525.103 L 436.188 1525.103 L 437.96 1492 L 439.731 1508.552 L 441.503 1492 L 443.275 1492 L 445.046 1475.448 L 446.818 1492 L 448.589 1492 L 450.361 1475.448 L 452.132 1475.448 L 453.904 1458.897 L 455.675 1475.448 L 457.447 1492 L 459.218 1475.448 L 460.99 1475.448 L 462.762 1442.345 L 464.533 1425.793 L 466.305 1442.345 L 468.076 1442.345 L 469.848 1442.345 L 471.619 1442.345 L 473.391 1442.345 L 475.162 1425.793 L 476.934 1425.793 L 478.705 1442.345 L 480.477 1442.345 L 482.248 1425.793 L 484.02 1442.345 L 485.792 1442.345 L 487.563 1458.897 L 489.335 1425.793 L 491.106 1409.241 L 492.878 1425.793 L 494.649 1425.793 L 496.421 1409.241 L 498.192 1442.345 L 499.964 1425.793 L 501.735 1409.241 L 503.507 1442.345 L 505.279 1442.345 L 507.05 1409.241 L 508.822 1425.793 L 510.593 1409.241 L 512.365 1442.345 L 514.136 1442.345 L 515.908 1409.241 L 517.679 1425.793 L 519.451 1442.345 L 521.222 1425.793 L 522.994 1442.345 L 524.766 1442.345 L 526.537 1442.345 L 528.309 1442.345 L 530.08 1442.345 L 531.852 1458.897 L 533.623 1442.345 L 535.395 1475.448 L 537.166 1458.897 L 538.938 1492 L 540.709 1475.448 L 542.481 1475.448 L 544.253 1458.897 L 546.024 1492 L 547.796 1492 L 549.567 1492 L 551.339 1475.448 L 553.11 1475.448 L 554.882 1492 L 556.653 1492 L 558.425 1508.552 L 560.196 1508.552 L 561.968 1525.103 L 563.739 1541.655 L 565.511 1541.655 L 567.283 1508.552 L 569.054 1541.655 L 570.826 1541.655 L 572.597 1558.207 L 574.369 1525.103 L 576.14 1541.655 L 577.912 1558.207 L 579.683 1558.207 L 581.455 1558.207 L 583.226 1558.207 L 584.998 1525.103 L 586.77 1541.655 L 588.541 1541.655 L 590.313 1525.103 L 592.084 1525.103 L 593.856 1525.103 L 595.627 1508.552 L 597.399 1525.103 L 599.17 1508.552 L 600.942 1508.552 L 602.713 1508.552 L 604.485 1508.552 L 606.257 1492 L 608.028 1492 L 609.8 1458.897 L 611.571 1475.448 L 613.343 1492 L 615.114 1458.897 L 616.886 1458.897 L 618.657 1475.448 L 620.429 1458.897 L 622.2 1475.448 L 623.972 1458.897 L 625.743 1458.897 L 627.515 1475.448 L 629.287 1458.897 L 631.058 1442.345 L 632.83 1425.793 L 634.601 1458.897 L 636.373 1442.345 L 638.144 1442.345 L 639.916 1425.793 L 641.687 1425.793 L 643.459 1442.345 L 645.23 1442.345 L 647.002 1442.345 L 648.774 1442.345 L 650.545 1442.345 L 652.317 1425.793 L 654.088 1442.345 L 655.86 1425.793 L 657.631 1425.793 L 659.403 1442.345 L 661.174 1442.345 L 662.946 1425.793 L 664.717 1409.241 L 666.489 1425.793 L 668.261 1425.793 L 670.032 1442.345 L 671.804 1425.793 L 673.575 1425.793 L 675.347 1442.345 L 677.118 1442.345 L 678.89 1442.345 L 680.661 1458.897 L 682.433 1458.897 L 684.204 1458.897 L 685.976 1442.345 L 687.747 1442.345 L 689.519 1425.793 L 691.291 1458.897 L 693.062 1442.345 L 694.834 1442.345 L 696.605 1458.897 L 698.377 1458.897 L 700.148 1458.897 L 701.92 1475.448 L 703.691 1492 L 705.463 1458.897 L 707.234 1458.897 L 709.006 1475.448 L 710.778 1492 L 712.549 1492 L 714.321 1492 L 716.092 1492 L 717.864 1525.103 L 719.635 1508.552 L 721.407 1508.552 L 723.178 1508.552 L 724.95 1541.655 L 726.721 1541.655 L 728.493 1525.103 L 730.265 1541.655 L 732.036 1558.207 L 733.808 1525.103 L 735.579 1558.207 L 737.351 1541.655 L 739.122 1558.207 L 740.894 1558.207 L 742.665 1558.207 L 744.437 1525.103 L 746.208 1541.655 L 747.98 1525.103 L 749.752 1525.103 L 751.523 1558.207 L 753.295 1525.103 L 755.066 1541.655 L 756.838 1541.655 L 758.609 1508.552 L 760.381 1508.552 L 762.152 1525.103 L 763.924 1525.103 L 765.695 1492 L 767.467 1475.448 L 769.238 1475.448 L 771.01 1475.448 L 772.782 1475.448 L 774.553 1475.448 L 776.325 1458.897 L 778.096 1458.897 L 779.868 1458.897 L 781.639 1475.448 L 783.411 1458.897 L 785.182 1458.897 L 786.954 1442.345 L 788.725 1442.345 L 790.497 1458.897 L 792.269 1458.897 L 794.04 1442.345 L 795.812 1442.345 L 797.583 1425.793 L 799.355 1425.793 L 801.126 1442.345 L 802.898 1442.345 L 804.669 1442.345 L 806.441 1409.241 L 808.212 1425.793 L 809.984 1442.345 L 811.756 1442.345 L 813.527 1425.793 L 815.299 1425.793 L 817.07 1442.345 L 818.842 1425.793 L 820.613 1409.241 L 822.385 1409.241 L 824.156 1425.793 L 825.928 1442.345 L 827.699 1425.793 L 829.471 1425.793 L 831.242 1442.345 L 833.014 1425.793 L 834.786 1409.241 L 836.557 1425.793 L 838.329 1409.241 L 840.1 1425.793 L 841.872 1425.793 L 843.643 1442.345 L 845.415 1442.345 L 847.186 1442.345 L 848.958 1442.345 L 850.729 1458.897 L 852.501 1458.897 L 854.273 1442.345 L 856.044 1458.897 L 857.816 1458.897 L 859.587 1458.897 L 861.359 1458.897 L 863.13 1492 L 864.902 1475.448 L 866.673 1458.897 L 868.445 1475.448 L 870.216 1492 L 871.988 1475.448 L 873.76 1508.552 L 875.531 1492 L 877.303 1475.448 L 879.074 1508.552 L 880.846 1525.103 L 882.617 1492 L 884.389 1508.552 L 886.16 1525.103 L 887.932 1541.655 L 889.703 1525.103 L 891.475 1558.207 L 893.246 1541.655 L 895.018 1541.655 L 896.79 1558.207 L 898.561 1558.207 L 900.333 1558.207 L 902.104 1558.207 L 903.876 1574.759 L 905.647 1525.103 L 907.419 1541.655 L 909.19 1541.655 L 910.962 1541.655 L 912.733 1525.103 L 914.505 1525.103 L 916.277 1541.655 L 918.048 1508.552 L 919.82 1541.655 L 921.591 1525.103 L 923.363 1508.552 L 925.134 1492 L 926.906 1492 L 928.677 1492 L 930.449 1492 L 932.22 1508.552 L 933.992 1492 L 935.764 1475.448 L 937.535 1492 L 939.307 1475.448 L 941.078 1475.448 L 942.85 1475.448 L 944.621 1458.897 L 946.393 1458.897 L 948.164 1458.897 L 949.936 1458.897 L 951.707 1442.345 L 953.479 1458.897 L 955.251 1425.793 L 957.022 1442.345 L 958.794 1425.793 L 960.565 1442.345 L 962.337 1425.793 L 964.108 1458.897 L 965.88 1442.345 L 967.651 1442.345 L 969.423 1442.345 L 971.194 1442.345 L 972.966 1425.793 L 974.737 1442.345 L 976.509 1425.793 L 978.281 1425.793 L 980.052 1409.241 L 981.824 1442.345 L 983.595 1442.345 L 985.367 1442.345 L 987.138 1425.793 L 988.91 1409.241 L 990.681 1425.793 L 992.453 1425.793 L 994.224 1425.793 L 995.996 1425.793 L 997.768 1458.897 L 999.539 1409.241 L 1001.311 1442.345 L 1003.082 1442.345 L 1004.854 1425.793 L 1006.625 1425.793 L 1008.397 1442.345 L 1010.168 1442.345 L 1011.94 1458.897 L 1013.711 1442.345 L 1015.483 1442.345 L 1017.255 1458.897 L 1019.026 1442.345 L 1020.798 1475.448 L 1022.569 1475.448 L 1024.341 1458.897 L 1026.112 1475.448 L 1027.884 1492 L 1029.655 1492 L 1031.427 1492 L 1033.198 1492 L 1034.97 1475.448 L 1036.741 1492 L 1038.513 1492 L 1040.285 1525.103 L 1042.056 1508.552 L 1043.828 1525.103 L 1045.599 1508.552 L 1047.371 1541.655 L 1049.142 1525.103 L 1050.914 1525.103 L 1052.685 1525.103 L 1054.457 1541.655 L 1056.228 1541.655 L 1058 1525.103" fill="none" stroke="#ffd166" stroke-width="4" stroke-linejoin="round" stroke-linecap="round"/>
<line x1="196" y1="1382" x2="230" y2="1382" stroke="#ffd166" stroke-width="5" stroke-linecap="round"/>
<text x="242" y="1388" class="legend">spread</text>
<text x="1046" y="1618" text-anchor="end" class="tiny">USDT</text>
<line x1="174" y1="1588" x2="174" y2="1596" stroke="#2f4b62" stroke-width="2"/>
<text x="174" y="1618" text-anchor="middle" class="tick">00:00:05</text>
<line x1="395" y1="1588" x2="395" y2="1596" stroke="#2f4b62" stroke-width="2"/>
<text x="395" y="1618" text-anchor="middle" class="tick">00:00:06</text>
<line x1="616" y1="1588" x2="616" y2="1596" stroke="#2f4b62" stroke-width="2"/>
<text x="616" y="1618" text-anchor="middle" class="tick">00:00:07</text>
<line x1="837" y1="1588" x2="837" y2="1596" stroke="#2f4b62" stroke-width="2"/>
<text x="837" y="1618" text-anchor="middle" class="tick">00:00:08</text>
<line x1="1058" y1="1588" x2="1058" y2="1596" stroke="#2f4b62" stroke-width="2"/>
<text x="1058" y="1618" text-anchor="middle" class="tick">00:00:09</text>

  <rect x="1118" y="1284" width="932" height="350" rx="26" class="panel" filter="url(#shadow)"/>
  <text x="1154" y="1330" class="panel-title">Order-Flow Imbalance</text>
  <text x="1154" y="1360" class="panel-subtitle">Book imbalance and trade imbalance on the configured rolling window.</text>
  <rect x="1142" y="1396" width="884" height="192" rx="12" fill="#0b1627" stroke="#263c56" stroke-width="2"/>
<line x1="1142" y1="1444" x2="2026" y2="1444" class="grid"/>
<line x1="1142" y1="1492" x2="2026" y2="1492" class="grid"/>
<line x1="1142" y1="1540" x2="2026" y2="1540" class="grid"/>
<line x1="1289.333" y1="1396" x2="1289.333" y2="1588" class="grid"/>
<line x1="1436.667" y1="1396" x2="1436.667" y2="1588" class="grid"/>
<line x1="1584" y1="1396" x2="1584" y2="1588" class="grid"/>
<line x1="1731.333" y1="1396" x2="1731.333" y2="1588" class="grid"/>
<line x1="1878.667" y1="1396" x2="1878.667" y2="1588" class="grid"/>
<line x1="1142" y1="1588" x2="2026" y2="1588" class="axis"/>
<line x1="1142" y1="1396" x2="1142" y2="1588" class="axis"/>
<text x="1128" y="1401" text-anchor="end" class="tick">0.729</text>
<text x="1128" y="1449" text-anchor="end" class="tick">0.416</text>
<text x="1128" y="1497" text-anchor="end" class="tick">0.104</text>
<text x="1128" y="1545" text-anchor="end" class="tick">-0.209</text>
<text x="1128" y="1593" text-anchor="end" class="tick">-0.521</text>
<line x1="1142" y1="1507.943" x2="2026" y2="1507.943" stroke="#b6c2d1" stroke-width="2" opacity="0.5"/>
<path d="M 1142 1499.718 L 1143.772 1495.277 L 1145.543 1495.812 L 1147.315 1498.997 L 1149.086 1497.578 L 1150.858 1500.168 L 1152.629 1496.956 L 1154.401 1500.087 L 1156.172 1502.255 L 1157.944 1498.431 L 1159.715 1499.567 L 1161.487 1499.846 L 1163.259 1506.345 L 1165.03 1507.653 L 1166.802 1503.833 L 1168.573 1501.544 L 1170.345 1504.081 L 1172.116 1506.667 L 1173.888 1506.765 L 1175.659 1503.689 L 1177.431 1508.133 L 1179.202 1501.61 L 1180.974 1513.024 L 1182.745 1509.548 L 1184.517 1513.794 L 1186.289 1510.386 L 1188.06 1514.395 L 1189.832 1512.353 L 1191.603 1516.531 L 1193.375 1516.669 L 1195.146 1511.992 L 1196.918 1514.85 L 1198.689 1511.674 L 1200.461 1514.974 L 1202.232 1512.529 L 1204.004 1513.02 L 1205.776 1511.701 L 1207.547 1520.406 L 1209.319 1521.002 L 1211.09 1518.697 L 1212.862 1517.624 L 1214.633 1521.595 L 1216.405 1513.082 L 1218.176 1517.139 L 1219.948 1520.308 L 1221.719 1521.434 L 1223.491 1525.438 L 1225.263 1522.163 L 1227.034 1520.194 L 1228.806 1516.741 L 1230.577 1522.129 L 1232.349 1523.532 L 1234.12 1523.189 L 1235.892 1517.064 L 1237.663 1521.705 L 1239.435 1523.927 L 1241.206 1515.339 L 1242.978 1509.204 L 1244.749 1520.025 L 1246.521 1516.686 L 1248.293 1510.935 L 1250.064 1514.023 L 1251.836 1513.646 L 1253.607 1511.323 L 1255.379 1512.649 L 1257.15 1502.405 L 1258.922 1508.481 L 1260.693 1505.719 L 1262.465 1510.977 L 1264.236 1505.452 L 1266.008 1504.521 L 1267.78 1508 L 1269.551 1508.438 L 1271.323 1505.344 L 1273.094 1503.497 L 1274.866 1504.362 L 1276.637 1497.374 L 1278.409 1498.524 L 1280.18 1492.444 L 1281.952 1494.876 L 1283.723 1495.004 L 1285.495 1499.663 L 1287.267 1494.553 L 1289.038 1490.481 L 1290.81 1500.396 L 1292.581 1497.735 L 1294.353 1497.604 L 1296.124 1488.989 L 1297.896 1490.961 L 1299.667 1489.693 L 1301.439 1492.904 L 1303.21 1497.077 L 1304.982 1493.906 L 1306.754 1494.183 L 1308.525 1492.84 L 1310.297 1498.859 L 1312.068 1495.271 L 1313.84 1498.621 L 1315.611 1500.004 L 1317.383 1498.454 L 1319.154 1497.38 L 1320.926 1498.458 L 1322.697 1501.166 L 1324.469 1503.143 L 1326.24 1496.693 L 1328.012 1501.584 L 1329.784 1505.435 L 1331.555 1494.35 L 1333.327 1500.883 L 1335.098 1509.867 L 1336.87 1498.11 L 1338.641 1505.824 L 1340.413 1507.131 L 1342.184 1507.881 L 1343.956 1507.728 L 1345.727 1502.764 L 1347.499 1505.063 L 1349.271 1514.994 L 1351.042 1513.406 L 1352.814 1509.719 L 1354.585 1515.459 L 1356.357 1518.989 L 1358.128 1511.308 L 1359.9 1519.482 L 1361.671 1524.001 L 1363.443 1519.152 L 1365.214 1521.875 L 1366.986 1524.605 L 1368.758 1518.824 L 1370.529 1521.078 L 1372.301 1522.8 L 1374.072 1517.887 L 1375.844 1527.578 L 1377.615 1523.53 L 1379.387 1519.256 L 1381.158 1519.893 L 1382.93 1515.1 L 1384.701 1522.493 L 1386.473 1525.214 L 1388.244 1527.027 L 1390.016 1527.072 L 1391.788 1522.972 L 1393.559 1528.871 L 1395.331 1516.61 L 1397.102 1522.134 L 1398.874 1519.916 L 1400.645 1518.366 L 1402.417 1513.306 L 1404.188 1520.841 L 1405.96 1517.509 L 1407.731 1518.595 L 1409.503 1518.33 L 1411.275 1517.659 L 1413.046 1511.318 L 1414.818 1517.627 L 1416.589 1514.137 L 1418.361 1513.043 L 1420.132 1512.173 L 1421.904 1505.444 L 1423.675 1508.412 L 1425.447 1507.542 L 1427.218 1504.128 L 1428.99 1506.858 L 1430.762 1500.58 L 1432.533 1504.346 L 1434.305 1506.135 L 1436.076 1498.246 L 1437.848 1497.975 L 1439.619 1504.64 L 1441.391 1501.12 L 1443.162 1501.801 L 1444.934 1495.235 L 1446.705 1506.586 L 1448.477 1494.876 L 1450.248 1504.728 L 1452.02 1499.153 L 1453.792 1500.831 L 1455.563 1500.43 L 1457.335 1498.867 L 1459.106 1494.936 L 1460.878 1495.268 L 1462.649 1491.789 L 1464.421 1494.606 L 1466.192 1497.751 L 1467.964 1502.28 L 1469.735 1492.587 L 1471.507 1501.484 L 1473.279 1501.87 L 1475.05 1497.66 L 1476.822 1498.353 L 1478.593 1506.183 L 1480.365 1498.031 L 1482.136 1500.594 L 1483.908 1501.268 L 1485.679 1506.525 L 1487.451 1502.244 L 1489.222 1496.358 L 1490.994 1509.082 L 1492.766 1508.158 L 1494.537 1496.424 L 1496.309 1499.697 L 1498.08 1504.682 L 1499.852 1504.169 L 1501.623 1499.092 L 1503.395 1507.962 L 1505.166 1508.708 L 1506.938 1510.754 L 1508.709 1506.359 L 1510.481 1501.777 L 1512.253 1510.012 L 1514.024 1510.024 L 1515.796 1512.531 L 1517.567 1509.248 L 1519.339 1509.488 L 1521.11 1511.827 L 1522.882 1509.169 L 1524.653 1515.952 L 1526.425 1514.431 L 1528.196 1515.352 L 1529.968 1519.386 L 1531.739 1514.179 L 1533.511 1515.195 L 1535.283 1514.812 L 1537.054 1512.323 L 1538.826 1521.951 L 1540.597 1520.341 L 1542.369 1519.564 L 1544.14 1515.618 L 1545.912 1510.764 L 1547.683 1511.569 L 1549.455 1516.334 L 1551.226 1514.88 L 1552.998 1512.882 L 1554.77 1518.449 L 1556.541 1514.45 L 1558.313 1514.325 L 1560.084 1512.426 L 1561.856 1517.718 L 1563.627 1517.787 L 1565.399 1512.116 L 1567.17 1508.955 L 1568.942 1513.062 L 1570.713 1505.862 L 1572.485 1509.127 L 1574.257 1512.464 L 1576.028 1516.058 L 1577.8 1510.924 L 1579.571 1506.207 L 1581.343 1515.306 L 1583.114 1505.658 L 1584.886 1511.05 L 1586.657 1507.378 L 1588.429 1508.137 L 1590.2 1506.299 L 1591.972 1510.225 L 1593.743 1504.472 L 1595.515 1502.355 L 1597.287 1503.63 L 1599.058 1507.234 L 1600.83 1504.97 L 1602.601 1510.65 L 1604.373 1507.707 L 1606.144 1508.007 L 1607.916 1504.189 L 1609.687 1509.018 L 1611.459 1507.168 L 1613.23 1505.496 L 1615.002 1500.469 L 1616.774 1501.551 L 1618.545 1512.566 L 1620.317 1507.407 L 1622.088 1504.723 L 1623.86 1508.552 L 1625.631 1512.374 L 1627.403 1510.371 L 1629.174 1506.963 L 1630.946 1504.378 L 1632.717 1510.128 L 1634.489 1500.567 L 1636.261 1512.142 L 1638.032 1508.176 L 1639.804 1507.479 L 1641.575 1502.575 L 1643.347 1514.236 L 1645.118 1511.385 L 1646.89 1509.268 L 1648.661 1507.55 L 1650.433 1508.5 L 1652.204 1512.733 L 1653.976 1508.576 L 1655.747 1508.555 L 1657.519 1505.072 L 1659.291 1512.393 L 1661.062 1508.108 L 1662.834 1510.32 L 1664.605 1505.852 L 1666.377 1511.048 L 1668.148 1503.469 L 1669.92 1506.118 L 1671.691 1503.708 L 1673.463 1508.272 L 1675.234 1501.91 L 1677.006 1505.194 L 1678.778 1509.384 L 1680.549 1501.525 L 1682.321 1504.719 L 1684.092 1505.8 L 1685.864 1497.808 L 1687.635 1504.992 L 1689.407 1506.06 L 1691.178 1507.45 L 1692.95 1503.924 L 1694.721 1503.536 L 1696.493 1506.444 L 1698.265 1503.132 L 1700.036 1509.784 L 1701.808 1496.953 L 1703.579 1505.469 L 1705.351 1503.058 L 1707.122 1509.354 L 1708.894 1506.036 L 1710.665 1505.649 L 1712.437 1503.039 L 1714.208 1500.752 L 1715.98 1507.756 L 1717.752 1498.832 L 1719.523 1499.435 L 1721.295 1500.684 L 1723.066 1496.799 L 1724.838 1502.875 L 1726.609 1506.505 L 1728.381 1499.453 L 1730.152 1497.296 L 1731.924 1507.372 L 1733.695 1502.451 L 1735.467 1501.586 L 1737.238 1502.253 L 1739.01 1506.93 L 1740.782 1504.647 L 1742.553 1507.326 L 1744.325 1511.786 L 1746.096 1507.8 L 1747.868 1503.295 L 1749.639 1512.211 L 1751.411 1513.952 L 1753.182 1508.049 L 1754.954 1511.841 L 1756.725 1510.054 L 1758.497 1511.424 L 1760.269 1512.686 L 1762.04 1516.151 L 1763.812 1515.793 L 1765.583 1509.775 L 1767.355 1513.646 L 1769.126 1513.646 L 1770.898 1514.664 L 1772.669 1509.94 L 1774.441 1512.181 L 1776.212 1514.522 L 1777.984 1512.312 L 1779.756 1516.964 L 1781.527 1516.915 L 1783.299 1515.972 L 1785.07 1513.269 L 1786.842 1519 L 1788.613 1515.364 L 1790.385 1515.323 L 1792.156 1515.166 L 1793.928 1513.075 L 1795.699 1524.646 L 1797.471 1516.282 L 1799.242 1513.54 L 1801.014 1521.945 L 1802.786 1524.37 L 1804.557 1518.609 L 1806.329 1517.933 L 1808.1 1518.234 L 1809.872 1516.076 L 1811.643 1515.468 L 1813.415 1516.551 L 1815.186 1509.816 L 1816.958 1512.709 L 1818.729 1516.677 L 1820.501 1514.958 L 1822.273 1511.937 L 1824.044 1508.206 L 1825.816 1505.946 L 1827.587 1514.895 L 1829.359 1510.458 L 1831.13 1509.196 L 1832.902 1512.219 L 1834.673 1505.33 L 1836.445 1508.086 L 1838.216 1504.516 L 1839.988 1503.47 L 1841.76 1507.688 L 1843.531 1500.797 L 1845.303 1503.101 L 1847.074 1496.746 L 1848.846 1492.852 L 1850.617 1501.889 L 1852.389 1500.11 L 1854.16 1503.091 L 1855.932 1502.721 L 1857.703 1499.57 L 1859.475 1496.679 L 1861.246 1497.143 L 1863.018 1497.284 L 1864.79 1497.809 L 1866.561 1488.182 L 1868.333 1501.35 L 1870.104 1494.012 L 1871.876 1498.057 L 1873.647 1496.045 L 1875.419 1488.324 L 1877.19 1497.648 L 1878.962 1491.214 L 1880.733 1494.565 L 1882.505 1496.578 L 1884.277 1488.879 L 1886.048 1496.97 L 1887.82 1497.362 L 1889.591 1494.341 L 1891.363 1496.055 L 1893.134 1498.473 L 1894.906 1494.198 L 1896.677 1499.044 L 1898.449 1495.407 L 1900.22 1500.787 L 1901.992 1497.691 L 1903.764 1508.338 L 1905.535 1497.923 L 1907.307 1496.4 L 1909.078 1499.059 L 1910.85 1505.439 L 1912.621 1507.603 L 1914.393 1513.283 L 1916.164 1507.605 L 1917.936 1510.265 L 1919.707 1508.531 L 1921.479 1513.673 L 1923.251 1510.501 L 1925.022 1513.763 L 1926.794 1512.836 L 1928.565 1515.734 L 1930.337 1518.663 L 1932.108 1516.21 L 1933.88 1513.513 L 1935.651 1517.828 L 1937.423 1512.517 L 1939.194 1524.156 L 1940.966 1522.795 L 1942.737 1517.419 L 1944.509 1518.496 L 1946.281 1520.782 L 1948.052 1517.985 L 1949.824 1524.744 L 1951.595 1519.052 L 1953.367 1528.99 L 1955.138 1521.148 L 1956.91 1521.108 L 1958.681 1529.112 L 1960.453 1526.433 L 1962.224 1518.992 L 1963.996 1518.271 L 1965.768 1521.053 L 1967.539 1515.259 L 1969.311 1521.182 L 1971.082 1520.534 L 1972.854 1516.839 L 1974.625 1521.236 L 1976.397 1524.374 L 1978.168 1518.002 L 1979.94 1518.65 L 1981.711 1515.112 L 1983.483 1517.418 L 1985.255 1515.251 L 1987.026 1515.858 L 1988.798 1514.959 L 1990.569 1514 L 1992.341 1509.65 L 1994.112 1509.273 L 1995.884 1509.023 L 1997.655 1510.074 L 1999.427 1510.112 L 2001.198 1507.253 L 2002.97 1503.183 L 2004.741 1499.267 L 2006.513 1504.918 L 2008.285 1504.839 L 2010.056 1503.284 L 2011.828 1497.568 L 2013.599 1496.368 L 2015.371 1493.272 L 2017.142 1499.384 L 2018.914 1501.336 L 2020.685 1496.513 L 2022.457 1491.249 L 2024.228 1495.533 L 2026 1498.554" fill="none" stroke="#7cc7ff" stroke-width="4" stroke-linejoin="round" stroke-linecap="round"/>
<path d="M 1142 1414.993 L 1143.772 1413.363 L 1145.543 1412.352 L 1147.315 1411.931 L 1149.086 1411.199 L 1150.858 1413.424 L 1152.629 1412.011 L 1154.401 1410.91 L 1156.172 1410.056 L 1157.944 1409.241 L 1159.715 1412.936 L 1161.487 1410.742 L 1163.259 1410.803 L 1165.03 1410.443 L 1166.802 1409.754 L 1168.573 1414.515 L 1170.345 1411.817 L 1172.116 1410.986 L 1173.888 1410.791 L 1175.659 1410.466 L 1177.431 1415.109 L 1179.202 1413.414 L 1180.974 1413.56 L 1182.745 1413.607 L 1184.517 1412.771 L 1186.289 1416.272 L 1188.06 1414.047 L 1189.832 1413.811 L 1191.603 1413.484 L 1193.375 1412.879 L 1195.146 1415.167 L 1196.918 1414.15 L 1198.689 1413.984 L 1200.461 1413.306 L 1202.232 1412.466 L 1204.004 1415.578 L 1205.776 1413.729 L 1207.547 1412.798 L 1209.319 1412.446 L 1211.09 1411.668 L 1212.862 1416.403 L 1214.633 1414.91 L 1216.405 1414.815 L 1218.176 1414.775 L 1219.948 1414.986 L 1221.719 1420.248 L 1223.491 1416.693 L 1225.263 1416.532 L 1227.034 1416.698 L 1228.806 1416.581 L 1230.577 1420.962 L 1232.349 1418.512 L 1234.12 1418.868 L 1235.892 1420.643 L 1237.663 1422.26 L 1239.435 1421.747 L 1241.206 1421.6 L 1242.978 1423.719 L 1244.749 1424.457 L 1246.521 1426.284 L 1248.293 1428.18 L 1250.064 1426.789 L 1251.836 1431.035 L 1253.607 1434.558 L 1255.379 1435.6 L 1257.15 1436.862 L 1258.922 1439.432 L 1260.693 1439.095 L 1262.465 1441.001 L 1264.236 1443.137 L 1266.008 1442.869 L 1267.78 1443.669 L 1269.551 1446.266 L 1271.323 1446.404 L 1273.094 1449.969 L 1274.866 1451.559 L 1276.637 1450.556 L 1278.409 1451.584 L 1280.18 1455.778 L 1281.952 1455.219 L 1283.723 1456.269 L 1285.495 1454.7 L 1287.267 1455.65 L 1289.038 1457.666 L 1290.81 1460.604 L 1292.581 1461.532 L 1294.353 1461.708 L 1296.124 1463.744 L 1297.896 1464.252 L 1299.667 1466.32 L 1301.439 1469.759 L 1303.21 1466.451 L 1304.982 1467.292 L 1306.754 1468.456 L 1308.525 1469.921 L 1310.297 1471.094 L 1312.068 1472.18 L 1313.84 1473.129 L 1315.611 1473.853 L 1317.383 1477.052 L 1319.154 1476.418 L 1320.926 1474.781 L 1322.697 1477.572 L 1324.469 1478.765 L 1326.24 1481.02 L 1328.012 1483.13 L 1329.784 1481.426 L 1331.555 1484.374 L 1333.327 1487.719 L 1335.098 1488.476 L 1336.87 1491.716 L 1338.641 1489.924 L 1340.413 1491.564 L 1342.184 1493.934 L 1343.956 1495.494 L 1345.727 1497.174 L 1347.499 1495.388 L 1349.271 1498.303 L 1351.042 1500.117 L 1352.814 1502.365 L 1354.585 1504.485 L 1356.357 1499.786 L 1358.128 1501.552 L 1359.9 1503.63 L 1361.671 1503.29 L 1363.443 1507.508 L 1365.214 1506.061 L 1366.986 1505.88 L 1368.758 1509.06 L 1370.529 1510.523 L 1372.301 1513.681 L 1374.072 1512.888 L 1375.844 1515.501 L 1377.615 1516.244 L 1379.387 1520.878 L 1381.158 1526.297 L 1382.93 1523.841 L 1384.701 1527.114 L 1386.473 1531.897 L 1388.244 1532.825 L 1390.016 1537.432 L 1391.788 1534.282 L 1393.559 1536.836 L 1395.331 1539.131 L 1397.102 1541.991 L 1398.874 1542.028 L 1400.645 1540.1 L 1402.417 1543.693 L 1404.188 1547.462 L 1405.96 1553.837 L 1407.731 1559.679 L 1409.503 1555.035 L 1411.275 1554.532 L 1413.046 1560.068 L 1414.818 1558.987 L 1416.589 1559.209 L 1418.361 1563.043 L 1420.132 1560.917 L 1421.904 1560.396 L 1423.675 1563.035 L 1425.447 1559.92 L 1427.218 1559.121 L 1428.99 1564.649 L 1430.762 1560.465 L 1432.533 1559.316 L 1434.305 1560.314 L 1436.076 1556.473 L 1437.848 1553.028 L 1439.619 1557.578 L 1441.391 1555.969 L 1443.162 1554.771 L 1444.934 1558.869 L 1446.705 1553.693 L 1448.477 1552.744 L 1450.248 1554.713 L 1452.02 1550.077 L 1453.792 1550.595 L 1455.563 1555.56 L 1457.335 1551.458 L 1459.106 1548.587 L 1460.878 1553.508 L 1462.649 1551.784 L 1464.421 1553.282 L 1466.192 1554.946 L 1467.964 1551.438 L 1469.735 1551.811 L 1471.507 1554.938 L 1473.279 1552.63 L 1475.05 1551.629 L 1476.822 1555.9 L 1478.593 1554.014 L 1480.365 1554.058 L 1482.136 1557.23 L 1483.908 1555.071 L 1485.679 1556.135 L 1487.451 1559.946 L 1489.222 1559.215 L 1490.994 1559.228 L 1492.766 1563.23 L 1494.537 1560.271 L 1496.309 1561.095 L 1498.08 1565.588 L 1499.852 1561 L 1501.623 1561.834 L 1503.395 1566.054 L 1505.166 1561.644 L 1506.938 1562.208 L 1508.709 1564.668 L 1510.481 1562.879 L 1512.253 1562.959 L 1514.024 1568.144 L 1515.796 1566.372 L 1517.567 1566.11 L 1519.339 1570.445 L 1521.11 1567.442 L 1522.882 1568.83 L 1524.653 1572.279 L 1526.425 1567.726 L 1528.196 1567.311 L 1529.968 1571.734 L 1531.739 1567.849 L 1533.511 1567.532 L 1535.283 1571.696 L 1537.054 1569.052 L 1538.826 1568.798 L 1540.597 1572.236 L 1542.369 1567.963 L 1544.14 1567.897 L 1545.912 1572.085 L 1547.683 1569.352 L 1549.455 1570.726 L 1551.226 1572.92 L 1552.998 1568.844 L 1554.77 1567.905 L 1556.541 1570.338 L 1558.313 1567.856 L 1560.084 1567.816 L 1561.856 1568.713 L 1563.627 1564.35 L 1565.399 1564.042 L 1567.17 1566.738 L 1568.942 1565.28 L 1570.713 1565.382 L 1572.485 1567.751 L 1574.257 1563.912 L 1576.028 1564.603 L 1577.8 1567.981 L 1579.571 1565.349 L 1581.343 1566.114 L 1583.114 1567.649 L 1584.886 1565.412 L 1586.657 1565.089 L 1588.429 1568.798 L 1590.2 1566.253 L 1591.972 1565.722 L 1593.743 1567.642 L 1595.515 1564.066 L 1597.287 1563.503 L 1599.058 1565.991 L 1600.83 1564.37 L 1602.601 1564.917 L 1604.373 1569.381 L 1606.144 1568.639 L 1607.916 1567.392 L 1609.687 1570.216 L 1611.459 1567.417 L 1613.23 1567.596 L 1615.002 1572.027 L 1616.774 1570.49 L 1618.545 1570.488 L 1620.317 1571.086 L 1622.088 1569.959 L 1623.86 1569.845 L 1625.631 1573.36 L 1627.403 1570.115 L 1629.174 1571.584 L 1630.946 1573.552 L 1632.717 1571.929 L 1634.489 1570.566 L 1636.261 1574.759 L 1638.032 1570.906 L 1639.804 1570.754 L 1641.575 1571.703 L 1643.347 1566.873 L 1645.118 1568.19 L 1646.89 1571.549 L 1648.661 1567.439 L 1650.433 1566.767 L 1652.204 1569.237 L 1653.976 1565.182 L 1655.747 1565.665 L 1657.519 1568.374 L 1659.291 1564.67 L 1661.062 1564.681 L 1662.834 1567.442 L 1664.605 1562.69 L 1666.377 1562.821 L 1668.148 1564.219 L 1669.92 1561.25 L 1671.691 1561.117 L 1673.463 1563.681 L 1675.234 1560.661 L 1677.006 1560.492 L 1678.778 1565.561 L 1680.549 1561.544 L 1682.321 1561.159 L 1684.092 1565.365 L 1685.864 1562.959 L 1687.635 1564.213 L 1689.407 1565.858 L 1691.178 1562.515 L 1692.95 1562.104 L 1694.721 1564.341 L 1696.493 1563.327 L 1698.265 1564.465 L 1700.036 1567.213 L 1701.808 1563.918 L 1703.579 1563.321 L 1705.351 1567.413 L 1707.122 1564.27 L 1708.894 1564.581 L 1710.665 1568.773 L 1712.437 1566.602 L 1714.208 1567.361 L 1715.98 1569.89 L 1717.752 1565.585 L 1719.523 1565.663 L 1721.295 1568.926 L 1723.066 1564.336 L 1724.838 1563.626 L 1726.609 1565.799 L 1728.381 1561.941 L 1730.152 1560.96 L 1731.924 1564.924 L 1733.695 1563.477 L 1735.467 1563.414 L 1737.238 1566.08 L 1739.01 1563.746 L 1740.782 1564.124 L 1742.553 1568.677 L 1744.325 1567.023 L 1746.096 1567.427 L 1747.868 1569.2 L 1749.639 1565.209 L 1751.411 1565.452 L 1753.182 1569.837 L 1754.954 1567.201 L 1756.725 1566.61 L 1758.497 1569.407 L 1760.269 1566.38 L 1762.04 1567.238 L 1763.812 1569.007 L 1765.583 1567.455 L 1767.355 1567.282 L 1769.126 1569.583 L 1770.898 1567.662 L 1772.669 1566.679 L 1774.441 1571.001 L 1776.212 1570.171 L 1777.984 1568.784 L 1779.756 1571.107 L 1781.527 1566.597 L 1783.299 1566.857 L 1785.07 1568.573 L 1786.842 1567.719 L 1788.613 1567.291 L 1790.385 1569.143 L 1792.156 1566.189 L 1793.928 1567.237 L 1795.699 1570.193 L 1797.471 1565.849 L 1799.242 1566.089 L 1801.014 1568.178 L 1802.786 1566.527 L 1804.557 1565.422 L 1806.329 1568.639 L 1808.1 1564.295 L 1809.872 1564.983 L 1811.643 1566.389 L 1813.415 1562.523 L 1815.186 1562.236 L 1816.958 1565.388 L 1818.729 1562.779 L 1820.501 1563.84 L 1822.273 1567.794 L 1824.044 1563.021 L 1825.816 1563.738 L 1827.587 1566.728 L 1829.359 1565.955 L 1831.13 1565.713 L 1832.902 1570.494 L 1834.673 1565.849 L 1836.445 1565.992 L 1838.216 1568.992 L 1839.988 1564.578 L 1841.76 1565.119 L 1843.531 1570.052 L 1845.303 1565.225 L 1847.074 1564.712 L 1848.846 1567.118 L 1850.617 1566.064 L 1852.389 1566.597 L 1854.16 1568.201 L 1855.932 1564.729 L 1857.703 1563.624 L 1859.475 1566.609 L 1861.246 1562.47 L 1863.018 1562.523 L 1864.79 1564.94 L 1866.561 1560.254 L 1868.333 1560.821 L 1870.104 1563.866 L 1871.876 1561.448 L 1873.647 1560.892 L 1875.419 1562.274 L 1877.19 1558.96 L 1878.962 1558.642 L 1880.733 1562.106 L 1882.505 1558.343 L 1884.277 1557.725 L 1886.048 1560.727 L 1887.82 1558.222 L 1889.591 1559.249 L 1891.363 1561.434 L 1893.134 1559.693 L 1894.906 1560.613 L 1896.677 1564.946 L 1898.449 1560.81 L 1900.22 1561.574 L 1901.992 1565.737 L 1903.764 1564.923 L 1905.535 1565.964 L 1907.307 1568.511 L 1909.078 1566.627 L 1910.85 1566.374 L 1912.621 1568.217 L 1914.393 1567.4 L 1916.164 1566.84 L 1917.936 1568.546 L 1919.707 1564.816 L 1921.479 1564.772 L 1923.251 1566.013 L 1925.022 1563.949 L 1926.794 1564.675 L 1928.565 1569.416 L 1930.337 1565.773 L 1932.108 1564.74 L 1933.88 1566.82 L 1935.651 1565.539 L 1937.423 1563.944 L 1939.194 1566.957 L 1940.966 1562.207 L 1942.737 1561.996 L 1944.509 1564.315 L 1946.281 1562.24 L 1948.052 1562.763 L 1949.824 1565.669 L 1951.595 1564.227 L 1953.367 1563.793 L 1955.138 1565.993 L 1956.91 1564.02 L 1958.681 1563.506 L 1960.453 1567.204 L 1962.224 1561.781 L 1963.996 1562.047 L 1965.768 1563.738 L 1967.539 1561.436 L 1969.311 1561.89 L 1971.082 1564.636 L 1972.854 1559.37 L 1974.625 1557.876 L 1976.397 1561.609 L 1978.168 1559.756 L 1979.94 1559.636 L 1981.711 1562.623 L 1983.483 1558.73 L 1985.255 1558.164 L 1987.026 1561.293 L 1988.798 1558.202 L 1990.569 1559.088 L 1992.341 1563.078 L 1994.112 1559.613 L 1995.884 1560.456 L 1997.655 1563.344 L 1999.427 1558.725 L 2001.198 1557.986 L 2002.97 1562.156 L 2004.741 1557.692 L 2006.513 1558.762 L 2008.285 1560.764 L 2010.056 1559.348 L 2011.828 1558.274 L 2013.599 1562.738 L 2015.371 1558.697 L 2017.142 1558.598 L 2018.914 1562.411 L 2020.685 1558.702 L 2022.457 1557.309 L 2024.228 1562.671 L 2026 1561.75" fill="none" stroke="#ff9f43" stroke-width="4" stroke-linejoin="round" stroke-linecap="round"/>
<line x1="1164" y1="1382" x2="1198" y2="1382" stroke="#7cc7ff" stroke-width="5" stroke-linecap="round"/>
<text x="1210" y="1388" class="legend">book OFI</text>
<line x1="1350" y1="1382" x2="1384" y2="1382" stroke="#ff9f43" stroke-width="5" stroke-linecap="round"/>
<text x="1396" y="1388" class="legend">trade imbalance</text>
<text x="2014" y="1618" text-anchor="end" class="tiny">ratio</text>
<line x1="1142" y1="1588" x2="1142" y2="1596" stroke="#2f4b62" stroke-width="2"/>
<text x="1142" y="1618" text-anchor="middle" class="tick">00:00:05</text>
<line x1="1363" y1="1588" x2="1363" y2="1596" stroke="#2f4b62" stroke-width="2"/>
<text x="1363" y="1618" text-anchor="middle" class="tick">00:00:06</text>
<line x1="1584" y1="1588" x2="1584" y2="1596" stroke="#2f4b62" stroke-width="2"/>
<text x="1584" y="1618" text-anchor="middle" class="tick">00:00:07</text>
<line x1="1805" y1="1588" x2="1805" y2="1596" stroke="#2f4b62" stroke-width="2"/>
<text x="1805" y="1618" text-anchor="middle" class="tick">00:00:08</text>
<line x1="2026" y1="1588" x2="2026" y2="1596" stroke="#2f4b62" stroke-width="2"/>
<text x="2026" y="1618" text-anchor="middle" class="tick">00:00:09</text>

  <rect x="150" y="1676" width="1900" height="350" rx="26" class="panel" filter="url(#shadow)"/>
  <text x="186" y="1722" class="panel-title">Dataset Health</text>
  <text x="186" y="1752" class="panel-subtitle">Rows written, sample timestamps, missing-data checks, and latency summary for the latest run.</text>
  <rect x="246" y="1794" width="1758" height="180" rx="18" fill="#0b1627" stroke="#263c56" stroke-width="2"/>
<text x="278" y="1836" class="label">dataset</text>
<text x="666" y="1836" class="label">rows</text>
<text x="766" y="1836" class="label">range (UTC)</text>
<text x="1166" y="1836" class="label">status</text>
<text x="1286" y="1836" class="label">research use</text>
<line x1="270" y1="1842" x2="1980" y2="1842" stroke="#24384f" stroke-width="1"/>
<text x="278" y="1864" class="legend">raw_agg_trades</text>
<text x="666" y="1864" class="legend">1000</text>
<text x="766" y="1864" class="legend">2026-01-01 00:00:00 - 2026-01-01 00:00:09 UTC</text>
<text x="1166" y="1864" class="legend">OK</text>
<text x="1286" y="1864" class="legend">price, quantity, trade side, receive latency</text>
<line x1="270" y1="1876" x2="1980" y2="1876" stroke="#24384f" stroke-width="1"/>
<text x="278" y="1898" class="legend">raw_depth</text>
<text x="666" y="1898" class="legend">1000</text>
<text x="766" y="1898" class="legend">2026-01-01 00:00:00 - 2026-01-01 00:00:09 UTC</text>
<text x="1166" y="1898" class="legend">OK</text>
<text x="1286" y="1898" class="legend">raw bid/ask deltas and update ids</text>
<line x1="270" y1="1910" x2="1980" y2="1910" stroke="#24384f" stroke-width="1"/>
<text x="278" y="1932" class="legend">book_change_events</text>
<text x="666" y="1932" class="legend">3990</text>
<text x="766" y="1932" class="legend">2026-01-01 00:00:00 - 2026-01-01 00:00:09 UTC</text>
<text x="1166" y="1932" class="legend">OK</text>
<text x="1286" y="1932" class="legend">per-level liquidity changes</text>
<line x1="270" y1="1944" x2="1980" y2="1944" stroke="#24384f" stroke-width="1"/>
<text x="278" y="1966" class="legend">features</text>
<text x="666" y="1966" class="legend">1000</text>
<text x="766" y="1966" class="legend">2026-01-01 00:00:00 - 2026-01-01 00:00:09 UTC</text>
<text x="1166" y="1966" class="legend">OK</text>
<text x="1286" y="1966" class="legend">spread, midprice, OFI, L5 depth</text>
<line x1="270" y1="1978" x2="1980" y2="1978" stroke="#24384f" stroke-width="1"/>
<text x="278" y="2000" class="legend">snapshots</text>
<text x="666" y="2000" class="legend">1</text>
<text x="766" y="2000" class="legend">2026-01-01 00:00:00 - 2026-01-01 00:00:00 UTC</text>
<text x="1166" y="2000" class="legend">OK</text>
<text x="1286" y="2000" class="legend">book bootstrap and synchronization anchor</text>
<text x="278" y="1958" class="tiny">latency summary: mock.aggTrade avg 6.532 ms, max 12.521 ms | mock.depth avg 6.566 ms, max 13.034 ms</text>


</svg>