<svg xmlns="http://www.w3.org/2000/svg" width="2200" height="2112" viewBox="0 0 2200 2112">
  <defs>
    <linearGradient id="bg" x1="0" x2="1" y1="0" y2="1">
      <stop offset="0%" stop-color="#07111e"/>
      <stop offset="55%" stop-color="#10233b"/>
      <stop offset="100%" stop-color="#091424"/>
    </linearGradient>
    <radialGradient id="glow" cx="0.5" cy="0.02" r="0.55">
      <stop offset="0%" stop-color="#4ddcff" stop-opacity="0.18"/>
      <stop offset="100%" stop-color="#4ddcff" stop-opacity="0"/>
    </radialGradient>
    <filter id="shadow" x="-15%" y="-15%" width="130%" height="130%">
      <feDropShadow dx="0" dy="18" stdDeviation="20" flood-color="#000000" flood-opacity="0.32"/>
    </filter>
    <style>
      text { font-family: 'Aptos', 'Segoe UI', sans-serif; fill: #f8fafc; }
      .title { font-size: 70px; font-weight: 900; letter-spacing: -1px; }
      .subtitle { fill: #adbbcf; font-size: 28px; }
      .eyebrow { fill: #6ee7ff; font-size: 20px; font-weight: 900; letter-spacing: 5px; }
      .metric { font-size: 44px; font-weight: 900; }
      .label { fill: #8393aa; font-size: 17px; font-weight: 900; letter-spacing: 1.4px; }
      .panel { fill: #101d31; stroke: #2c425e; stroke-width: 2; }
      .panel-title { font-size: 28px; font-weight: 900; }
      .panel-subtitle { fill: #98a8bd; font-size: 18px; }
      .axis { stroke: #38506b; stroke-width: 2; }
      .grid { stroke: #22384f; stroke-width: 1; opacity: 0.8; }
      .tick { fill: #93a4b8; font-size: 16px; }
      .legend { fill: #cdd6e2; font-size: 18px; }
      .tiny { fill: #91a5be; font-size: 16px; }
    </style>
  </defs>
  <rect width="2200" height="2112" fill="url(#bg)"/>
  <rect width="2200" height="2112" fill="url(#glow)"/>

  <text x="1100" y="90" text-anchor="middle" class="eyebrow">EVENT-LEVEL MARKET DATA RESEARCH ENGINE</text>
  <text x="1100" y="176" text-anchor="middle" class="title">BTCUSDT Market Data Research Dashboard</text>
  <text x="1100" y="224" text-anchor="middle" class="subtitle">High-frequency aggregate trades, L5 depth features, order-flow imbalance, OHLC candles, and latency diagnostics</text>

      <rect x="150" y="290" width="340" height="130" rx="24" fill="#101d31" stroke="#2c425e" stroke-width="2" filter="url(#shadow)"/>
  <text x="178" y="346" class="metric" fill="#7cc7ff">1000</text>
  <text x="178" y="386" class="label">DEPTH UPDATES</text>
      <rect x="540" y="290" width="340" height="130" rx="24" fill="#101d31" stroke="#2c425e" stroke-width="2" filter="url(#shadow)"/>
  <text x="568" y="346" class="metric" fill="#ffd166">1000</text>
  <text x="568" y="386" class="label">FEATURE ROWS</text>
      <rect x="930" y="290" width="340" height="130" rx="24" fill="#101d31" stroke="#2c425e" stroke-width="2" filter="url(#shadow)"/>
  <text x="958" y="346" class="metric" fill="#ffcf5c">1.462 USDT</text>
  <text x="958" y="386" class="label">AVG SPREAD</text>
      <rect x="1320" y="290" width="340" height="130" rx="24" fill="#101d31" stroke="#2c425e" stroke-width="2" filter="url(#shadow)"/>
  <text x="1348" y="346" class="metric" fill="#c4a7ff">6.551 ms</text>
  <text x="1348" y="386" class="label">AVG LATENCY</text>

    <rect x="150" y="500" width="1900" height="350" rx="26" class="panel" filter="url(#shadow)"/>
  <text x="186" y="546" class="panel-title">OHLC Candles From Aggregate Trades</text>
  <text x="186" y="576" class="panel-subtitle">Open, high, low, close candles built from event-level aggTrade prices.</text>
  <rect x="246" y="612" width="1758" height="192" rx="12" fill="#0b1627" stroke="#263c56" stroke-width="2"/>
<line x1="246" y1="660" x2="2004" y2="660" class="grid"/>
<line x1="246" y1="708" x2="2004" y2="708" class="grid"/>
<line x1="246" y1="756" x2="2004" y2="756" class="grid"/>
<line x1="539" y1="612" x2="539" y2="804" class="grid"/>
<line x1="832" y1="612" x2="832" y2="804" class="grid"/>
<line x1="1125" y1="612" x2="1125" y2="804" class="grid"/>
<line x1="1418" y1="612" x2="1418" y2="804" class="grid"/>
<line x1="1711" y1="612" x2="1711" y2="804" class="grid"/>
<line x1="246" y1="804" x2="2004" y2="804" class="axis"/>
<line x1="246" y1="612" x2="246" y2="804" class="axis"/>
<text x="232" y="617" text-anchor="end" class="tick">65044.46</text>
<text x="232" y="665" text-anchor="end" class="tick">65021.47</text>
<text x="232" y="713" text-anchor="end" class="tick">64998.48</text>
<text x="232" y="761" text-anchor="end" class="tick">64975.49</text>
<text x="232" y="809" text-anchor="end" class="tick">64952.50</text>
<line x1="277.393" y1="625.241" x2="277.393" y2="663.719" stroke="#ff6b8a" stroke-width="3"/>
<rect x="261.696" y="625.241" width="31.393" height="38.477" rx="3" fill="#ff6b8a" opacity="0.88"/>
<line x1="340.179" y1="666.036" x2="340.179" y2="691.047" stroke="#ff6b8a" stroke-width="3"/>
<rect x="324.482" y="666.036" width="31.393" height="25.011" rx="3" fill="#ff6b8a" opacity="0.88"/>
<line x1="402.964" y1="691.34" x2="402.964" y2="742.803" stroke="#ff6b8a" stroke-width="3"/>
<rect x="387.268" y="691.34" width="31.393" height="42.611" rx="3" fill="#ff6b8a" opacity="0.88"/>
<line x1="465.75" y1="704.43" x2="465.75" y2="732.531" stroke="#53f3c3" stroke-width="3"/>
<rect x="450.054" y="704.43" width="31.393" height="28.101" rx="3" fill="#53f3c3" opacity="0.88"/>
<line x1="528.536" y1="683.469" x2="528.536" y2="701.549" stroke="#53f3c3" stroke-width="3"/>
<rect x="512.839" y="683.636" width="31.393" height="17.913" rx="3" fill="#53f3c3" opacity="0.88"/>
<line x1="591.321" y1="682.154" x2="591.321" y2="693.949" stroke="#ff6b8a" stroke-width="3"/>
<rect x="575.625" y="682.884" width="31.393" height="11.065" rx="3" fill="#ff6b8a" opacity="0.88"/>
<line x1="654.107" y1="693.845" x2="654.107" y2="728.042" stroke="#ff6b8a" stroke-width="3"/>
<rect x="638.411" y="693.845" width="31.393" height="34.197" rx="3" fill="#ff6b8a" opacity="0.88"/>
<line x1="716.893" y1="729.462" x2="716.893" y2="756.812" stroke="#ff6b8a" stroke-width="3"/>
<rect x="701.196" y="729.462" width="31.393" height="27.35" rx="3" fill="#ff6b8a" opacity="0.88"/>
<line x1="779.679" y1="752.281" x2="779.679" y2="759.735" stroke="#53f3c3" stroke-width="3"/>
<rect x="763.982" y="752.281" width="31.393" height="4.76" rx="3" fill="#53f3c3" opacity="0.88"/>
<line x1="842.464" y1="718.251" x2="842.464" y2="751.53" stroke="#53f3c3" stroke-width="3"/>
<rect x="826.768" y="718.251" width="31.393" height="33.279" rx="3" fill="#53f3c3" opacity="0.88"/>
<line x1="905.25" y1="679.648" x2="905.25" y2="715.808" stroke="#53f3c3" stroke-width="3"/>
<rect x="889.554" y="679.648" width="31.393" height="36.16" rx="3" fill="#53f3c3" opacity="0.88"/>
<line x1="968.036" y1="674.387" x2="968.036" y2="703.428" stroke="#ff6b8a" stroke-width="3"/>
<rect x="952.339" y="679.335" width="31.393" height="19.959" rx="3" fill="#ff6b8a" opacity="0.88"/>
<line x1="1030.821" y1="699.524" x2="1030.821" y2="720.443" stroke="#ff6b8a" stroke-width="3"/>
<rect x="1015.125" y="699.524" width="31.393" height="20.919" rx="3" fill="#ff6b8a" opacity="0.88"/>
<line x1="1093.607" y1="722.74" x2="1093.607" y2="750.381" stroke="#ff6b8a" stroke-width="3"/>
<rect x="1077.911" y="722.74" width="31.393" height="27.642" rx="3" fill="#ff6b8a" opacity="0.88"/>
<line x1="1156.393" y1="751.363" x2="1156.393" y2="758.816" stroke="#ff6b8a" stroke-width="3"/>
<rect x="1140.696" y="751.363" width="31.393" height="4.677" rx="3" fill="#ff6b8a" opacity="0.88"/>
<line x1="1219.179" y1="730.214" x2="1219.179" y2="756.478" stroke="#53f3c3" stroke-width="3"/>
<rect x="1203.482" y="730.214" width="31.393" height="26.264" rx="3" fill="#53f3c3" opacity="0.88"/>
<line x1="1281.964" y1="695.62" x2="1281.964" y2="728.898" stroke="#53f3c3" stroke-width="3"/>
<rect x="1266.268" y="695.62" width="31.393" height="33.279" rx="3" fill="#53f3c3" opacity="0.88"/>
<line x1="1344.75" y1="678.02" x2="1344.75" y2="693.302" stroke="#53f3c3" stroke-width="3"/>
<rect x="1329.054" y="678.417" width="31.393" height="14.886" rx="3" fill="#53f3c3" opacity="0.88"/>
<line x1="1407.536" y1="678.521" x2="1407.536" y2="698.355" stroke="#ff6b8a" stroke-width="3"/>
<rect x="1391.839" y="678.521" width="31.393" height="19.834" rx="3" fill="#ff6b8a" opacity="0.88"/>
<line x1="1470.321" y1="700.317" x2="1470.321" y2="738.439" stroke="#ff6b8a" stroke-width="3"/>
<rect x="1454.625" y="700.317" width="31.393" height="38.122" rx="3" fill="#ff6b8a" opacity="0.88"/>
<line x1="1533.107" y1="739.838" x2="1533.107" y2="764.745" stroke="#ff6b8a" stroke-width="3"/>
<rect x="1517.411" y="739.838" width="31.393" height="24.74" rx="3" fill="#ff6b8a" opacity="0.88"/>
<line x1="1595.893" y1="757.563" x2="1595.893" y2="766.791" stroke="#53f3c3" stroke-width="3"/>
<rect x="1580.196" y="757.563" width="31.393" height="8.1" rx="3" fill="#53f3c3" opacity="0.88"/>
<line x1="1658.679" y1="730.047" x2="1658.679" y2="756.624" stroke="#53f3c3" stroke-width="3"/>
<rect x="1642.982" y="730.047" width="31.393" height="26.577" rx="3" fill="#53f3c3" opacity="0.88"/>
<line x1="1721.464" y1="708.418" x2="1721.464" y2="727.98" stroke="#53f3c3" stroke-width="3"/>
<rect x="1705.768" y="708.418" width="31.393" height="19.562" rx="3" fill="#53f3c3" opacity="0.88"/>
<line x1="1784.25" y1="707.603" x2="1784.25" y2="718.606" stroke="#ff6b8a" stroke-width="3"/>
<rect x="1768.554" y="708.48" width="31.393" height="10.126" rx="3" fill="#ff6b8a" opacity="0.88"/>
<line x1="1847.036" y1="720.735" x2="1847.036" y2="753.972" stroke="#ff6b8a" stroke-width="3"/>
<rect x="1831.339" y="720.735" width="31.393" height="33.237" rx="3" fill="#ff6b8a" opacity="0.88"/>
<line x1="1909.821" y1="757.125" x2="1909.821" y2="786.124" stroke="#ff6b8a" stroke-width="3"/>
<rect x="1894.125" y="757.125" width="31.393" height="28.999" rx="3" fill="#ff6b8a" opacity="0.88"/>
<line x1="1972.607" y1="784.621" x2="1972.607" y2="790.759" stroke="#53f3c3" stroke-width="3"/>
<rect x="1956.911" y="784.621" width="31.393" height="3" rx="3" fill="#53f3c3" opacity="0.88"/>
<line x1="268" y1="598" x2="302" y2="598" stroke="#53f3c3" stroke-width="5" stroke-linecap="round"/>
<text x="314" y="604" class="legend">up candle</text>
<line x1="466" y1="598" x2="500" y2="598" stroke="#ff6b8a" stroke-width="5" stroke-linecap="round"/>
<text x="512" y="604" class="legend">down candle</text>
<line x1="246" y1="804" x2="246" y2="812" stroke="#2f4b62" stroke-width="2"/>
<text x="246" y="834" text-anchor="middle" class="tick">00:00:05</text>
<line x1="685.5" y1="804" x2="685.5" y2="812" stroke="#2f4b62" stroke-width="2"/>
<text x="685.5" y="834" text-anchor="middle" class="tick">00:00:06</text>
<line x1="1125" y1="804" x2="1125" y2="812" stroke="#2f4b62" stroke-width="2"/>
<text x="1125" y="834" text-anchor="middle" class="tick">00:00:07</text>
<line x1="1564.5" y1="804" x2="1564.5" y2="812" stroke="#2f4b62" stroke-width="2"/>
<text x="1564.5" y="834" text-anchor="middle" class="tick">00:00:08</text>
<line x1="2004" y1="804" x2="2004" y2="812" stroke="#2f4b62" stroke-width="2"/>
<text x="2004" y="834" text-anchor="middle" class="tick">00:00:09</text>

  <rect x="150" y="892" width="932" height="350" rx="26" class="panel" filter="url(#shadow)"/>
  <text x="186" y="938" class="panel-title">Midprice And L1 Quote</text>
  <text x="186" y="968" class="panel-subtitle">Best bid, best ask, and midprice from the treated L5 book.</text>
  <rect x="174" y="1004" width="884" height="192" rx="12" fill="#0b1627" stroke="#263c56" stroke-width="2"/>
<line x1="174" y1="1052" x2="1058" y2="1052" class="grid"/>
<line x1="174" y1="1100" x2="1058" y2="1100" class="grid"/>
<line x1="174" y1="1148" x2="1058" y2="1148" class="grid"/>
<line x1="321.333" y1="1004" x2="321.333" y2="1196" class="grid"/>
<line x1="468.667" y1="1004" x2="468.667" y2="1196" class="grid"/>
<line x1="616" y1="1004" x2="616" y2="1196" class="grid"/>
<line x1="763.333" y1="1004" x2="763.333" y2="1196" class="grid"/>
<line x1="910.667" y1="1004" x2="910.667" y2="1196" class="grid"/>
<line x1="174" y1="1196" x2="1058" y2="1196" class="axis"/>
<line x1="174" y1="1004" x2="174" y2="1196" class="axis"/>
<text x="160" y="1009" text-anchor="end" class="tick">65045.49</text>
<text x="160" y="1057" text-anchor="end" class="tick">65022.12</text>
<text x="160" y="1105" text-anchor="end" class="tick">64998.75</text>
<text x="160" y="1153" text-anchor="end" class="tick">64975.37</text>
<text x="160" y="1201" text-anchor="end" class="tick">64952.00</text>
<path d="M 174 1019.295 L 175.772 1021.39 L 177.543 1023.526 L 179.315 1025.713 L 181.086 1027.952 L 182.858 1030.211 L 184.629 1032.501 L 186.401 1034.812 L 188.172 1037.143 L 189.944 1039.474 L 191.715 1041.815 L 193.487 1044.157 L 195.259 1046.477 L 197.03 1048.788 L 198.802 1051.068 L 200.573 1053.317 L 202.345 1055.545 L 204.116 1057.722 L 205.888 1059.848 L 207.659 1061.932 L 209.431 1063.955 L 211.202 1065.896 L 212.974 1067.796 L 214.745 1069.603 L 216.517 1071.339 L 218.289 1072.982 L 220.06 1074.543 L 221.832 1076.022 L 223.603 1077.387 L 225.375 1078.671 L 227.146 1079.842 L 228.918 1080.899 L 230.689 1081.875 L 232.461 1082.727 L 234.232 1083.467 L 236.004 1084.103 L 237.776 1084.627 L 239.547 1085.028 L 241.319 1085.325 L 243.09 1085.5 L 244.862 1134.843 L 246.633 1134.812 L 248.405 1134.638 L 250.176 1134.371 L 251.948 1133.991 L 253.719 1133.498 L 255.491 1132.912 L 257.263 1132.214 L 259.034 1131.423 L 260.806 1130.54 L 262.577 1129.554 L 264.349 1128.497 L 266.12 1127.347 L 267.892 1126.114 L 269.663 1124.81 L 271.435 1123.434 L 273.206 1121.996 L 274.978 1120.507 L 276.749 1118.957 L 278.521 1117.344 L 280.293 1115.712 L 282.064 1114.028 L 283.836 1112.333 L 285.607 1110.587 L 287.379 1108.842 L 289.15 1107.086 L 290.922 1105.319 L 292.693 1103.553 L 294.465 1101.787 L 296.236 1100.031 L 298.008 1098.306 L 299.78 1096.601 L 301.551 1094.927 L 303.323 1093.294 L 305.094 1091.703 L 306.866 1090.152 L 308.637 1088.663 L 310.409 1087.236 L 312.18 1085.87 L 313.952 1084.576 L 315.723 1083.344 L 317.495 1082.214 L 319.267 1081.146 L 321.038 1080.17 L 322.81 1079.287 L 324.581 1078.497 L 326.353 1077.798 L 328.124 1077.203 L 329.896 1076.71 L 331.667 1076.319 L 333.439 1076.032 L 335.21 1075.857 L 336.982 1075.775 L 338.754 1075.816 L 340.525 1075.981 L 342.297 1076.237 L 344.068 1076.597 L 345.84 1077.069 L 347.611 1077.654 L 349.383 1078.342 L 351.154 1079.133 L 352.926 1080.037 L 354.697 1081.033 L 356.469 1082.122 L 358.24 1083.313 L 360.012 1084.586 L 361.784 1085.952 L 363.555 1087.39 L 365.327 1088.92 L 367.098 1090.522 L 368.87 1092.195 L 370.641 1093.931 L 372.413 1095.738 L 374.184 1097.576 L 375.956 1099.487 L 377.727 1101.427 L 379.499 1103.42 L 381.271 1105.432 L 383.042 1107.466 L 384.814 1109.53 L 386.585 1111.614 L 388.357 1113.689 L 390.128 1115.773 L 391.9 1117.848 L 393.671 1119.912 L 395.443 1121.966 L 397.214 1123.989 L 398.986 1125.971 L 400.758 1127.932 L 402.529 1129.842 L 404.301 1131.701 L 406.072 1133.518 L 407.844 1135.264 L 409.615 1136.948 L 411.387 1138.56 L 413.158 1140.101 L 414.93 1141.549 L 416.701 1142.915 L 418.473 1144.198 L 420.244 1145.389 L 422.016 1146.478 L 423.788 1147.464 L 425.559 1148.357 L 427.331 1149.127 L 429.102 1149.795 L 430.874 1150.339 L 432.645 1150.781 L 434.417 1151.099 L 436.188 1151.294 L 437.96 1151.387 L 439.731 1151.356 L 441.503 1151.202 L 443.275 1150.935 L 445.046 1150.534 L 446.818 1150.031 L 448.589 1149.405 L 450.361 1148.665 L 452.132 1147.813 L 453.904 1146.848 L 455.675 1145.769 L 457.447 1144.588 L 459.218 1143.305 L 460.99 1141.929 L 462.762 1140.45 L 464.533 1138.889 L 466.305 1137.215 L 468.076 1135.48 L 469.848 1133.662 L 471.619 1131.783 L 473.391 1129.832 L 475.162 1127.809 L 476.934 1125.734 L 478.705 1123.598 L 480.477 1121.432 L 482.248 1119.224 L 484.02 1116.975 L 485.792 1114.716 L 487.563 1112.426 L 489.335 1110.125 L 491.106 1107.815 L 492.878 1105.504 L 494.649 1103.204 L 496.421 1100.914 L 498.192 1098.634 L 499.964 1096.375 L 501.735 1094.167 L 503.507 1091.99 L 505.279 1089.844 L 507.05 1087.749 L 508.822 1085.726 L 510.593 1083.744 L 512.365 1081.824 L 514.136 1079.986 L 515.908 1078.219 L 517.679 1076.535 L 519.451 1074.933 L 521.222 1073.413 L 522.994 1071.996 L 524.766 1070.671 L 526.537 1069.439 L 528.309 1068.32 L 530.08 1096.036 L 531.852 1095.122 L 533.623 1094.321 L 535.395 1093.623 L 537.166 1093.048 L 538.938 1092.565 L 540.709 1092.206 L 542.481 1091.959 L 544.253 1091.826 L 546.024 1091.805 L 547.796 1091.887 L 549.567 1092.093 L 551.339 1092.411 L 553.11 1092.822 L 554.882 1093.346 L 556.653 1093.972 L 558.425 1094.691 L 560.196 1095.502 L 561.968 1096.416 L 563.739 1097.433 L 565.511 1098.511 L 567.283 1099.692 L 569.054 1100.934 L 570.826 1102.239 L 572.597 1103.625 L 574.369 1105.073 L 576.14 1106.582 L 577.912 1108.133 L 579.683 1109.735 L 581.455 1111.368 L 583.226 1113.042 L 584.998 1114.736 L 586.77 1116.461 L 588.541 1118.197 L 590.313 1119.943 L 592.084 1121.688 L 593.856 1123.434 L 595.627 1125.17 L 597.399 1126.884 L 599.17 1128.579 L 600.942 1130.253 L 602.713 1131.886 L 604.485 1133.477 L 606.257 1135.018 L 608.028 1136.517 L 609.8 1137.955 L 611.571 1139.341 L 613.343 1140.655 L 615.114 1141.888 L 616.886 1143.048 L 618.657 1144.126 L 620.429 1145.122 L 622.2 1146.026 L 623.972 1146.858 L 625.743 1147.577 L 627.515 1148.203 L 629.287 1148.717 L 631.058 1149.138 L 632.83 1149.456 L 634.601 1149.651 L 636.373 1149.754 L 638.144 1149.743 L 639.916 1149.62 L 641.687 1149.394 L 643.459 1149.055 L 645.23 1148.604 L 647.002 1148.049 L 648.774 1147.382 L 650.545 1146.611 L 652.317 1145.739 L 654.088 1144.753 L 655.86 1143.685 L 657.631 1142.514 L 659.403 1141.251 L 661.174 1139.895 L 662.946 1138.447 L 664.717 1136.928 L 666.489 1135.326 L 668.261 1133.652 L 670.032 1131.896 L 671.804 1130.088 L 673.575 1128.219 L 675.347 1126.299 L 677.118 1124.327 L 678.89 1122.315 L 680.661 1120.281 L 682.433 1118.197 L 684.204 1116.092 L 685.976 1113.976 L 687.747 1111.851 L 689.519 1109.704 L 691.291 1107.579 L 693.062 1105.453 L 694.834 1103.348 L 696.605 1101.243 L 698.377 1099.178 L 700.148 1097.145 L 701.92 1095.153 L 703.691 1093.202 L 705.463 1091.302 L 707.234 1089.464 L 709.006 1087.677 L 710.778 1085.972 L 712.549 1084.329 L 714.321 1082.758 L 716.092 1081.29 L 717.864 1079.893 L 719.635 1078.589 L 721.407 1077.387 L 723.178 1076.289 L 724.95 1075.282 L 726.721 1074.389 L 728.493 1073.598 L 730.265 1072.92 L 732.036 1072.356 L 733.808 1071.904 L 735.579 1071.575 L 737.351 1071.359 L 739.122 1071.267 L 740.894 1071.298 L 742.665 1071.431 L 744.437 1071.698 L 746.208 1072.078 L 747.98 1072.582 L 749.752 1073.208 L 751.523 1073.937 L 753.295 1074.779 L 755.066 1075.744 L 756.838 1076.802 L 758.609 1077.963 L 760.381 1079.246 L 762.152 1080.612 L 763.924 1082.07 L 765.695 1083.631 L 767.467 1085.274 L 769.238 1086.999 L 771.01 1088.786 L 772.782 1090.665 L 774.553 1092.596 L 776.325 1094.598 L 778.096 1096.652 L 779.868 1098.747 L 781.639 1100.904 L 783.411 1103.081 L 785.182 1105.289 L 786.954 1107.527 L 788.725 1109.786 L 790.497 1112.056 L 792.269 1114.325 L 794.04 1116.595 L 795.812 1118.864 L 797.583 1121.124 L 799.355 1123.352 L 801.126 1125.56 L 802.898 1127.737 L 804.669 1129.873 L 806.441 1131.968 L 808.212 1134.011 L 809.984 1135.993 L 811.756 1137.913 L 813.527 1139.772 L 815.299 1141.569 L 817.07 1143.284 L 818.842 1144.907 L 820.613 1146.468 L 822.385 1147.926 L 824.156 1149.281 L 825.928 1150.565 L 827.699 1151.736 L 829.471 1152.804 L 831.242 1153.769 L 833.014 1154.632 L 834.786 1155.391 L 836.557 1156.018 L 838.329 1156.552 L 840.1 1156.973 L 841.872 1157.281 L 843.643 1157.476 L 845.415 1157.558 L 847.186 1157.527 L 848.958 1157.384 L 850.729 1157.148 L 852.501 1156.788 L 854.273 1156.326 L 856.044 1155.761 L 857.816 1155.094 L 859.587 1154.334 L 861.359 1153.481 L 863.13 1152.537 L 864.902 1151.5 L 866.673 1150.38 L 868.445 1149.179 L 870.216 1147.916 L 871.988 1146.581 L 873.76 1145.163 L 875.531 1143.705 L 877.303 1142.196 L 879.074 1140.625 L 880.846 1139.023 L 882.617 1137.379 L 884.389 1135.716 L 886.16 1134.011 L 887.932 1132.296 L 889.703 1130.571 L 891.475 1128.836 L 893.246 1127.1 L 895.018 1125.385 L 896.79 1123.67 L 898.561 1121.966 L 900.333 1120.302 L 902.104 1118.659 L 903.876 1117.067 L 905.647 1115.496 L 907.419 1113.987 L 909.19 1112.539 L 910.962 1111.142 L 912.733 1109.817 L 914.505 1108.554 L 916.277 1107.363 L 918.048 1106.254 L 919.82 1105.227 L 921.591 1104.292 L 923.363 1103.44 L 925.134 1102.691 L 926.906 1102.033 L 928.677 1101.468 L 930.449 1101.017 L 932.22 1100.678 L 933.992 1100.431 L 935.764 1100.288 L 937.535 1100.267 L 939.307 1100.349 L 941.078 1100.555 L 942.85 1100.852 L 944.621 1101.263 L 946.393 1101.797 L 948.164 1102.424 L 949.936 1103.173 L 951.707 1104.025 L 953.479 1104.96 L 955.251 1106.018 L 957.022 1107.178 L 958.794 1108.431 L 960.565 1109.766 L 962.337 1111.204 L 964.108 1112.703 L 965.88 1114.305 L 967.651 1115.979 L 969.423 1117.724 L 971.194 1119.542 L 972.966 1121.421 L 974.737 1123.362 L 976.509 1125.344 L 978.281 1127.377 L 980.052 1129.441 L 981.824 1131.557 L 983.595 1133.693 L 985.367 1135.849 L 987.138 1138.016 L 988.91 1140.193 L 990.681 1142.391 L 992.453 1144.568 L 994.224 1146.745 L 995.996 1148.901 L 997.768 1151.037 L 999.539 1153.143 L 1001.311 1155.217 L 1003.082 1157.25 L 1004.854 1159.232 L 1006.625 1161.163 L 1008.397 1163.042 L 1010.168 1164.849 L 1011.94 1166.585 L 1013.711 1168.259 L 1015.483 1169.84 L 1017.255 1171.339 L 1019.026 1172.757 L 1020.798 1174.081 L 1022.569 1175.303 L 1024.341 1176.433 L 1026.112 1177.439 L 1027.884 1178.363 L 1029.655 1179.164 L 1031.427 1179.842 L 1033.198 1180.428 L 1034.97 1180.89 L 1036.741 1181.229 L 1038.513 1181.454 L 1040.285 1181.567 L 1042.056 1181.537 L 1043.828 1181.413 L 1045.599 1181.157 L 1047.371 1180.787 L 1049.142 1180.294 L 1050.914 1179.688 L 1052.685 1178.969 L 1054.457 1178.138 L 1056.228 1177.193 L 1058 1176.145" fill="none" stroke="#f8fafc" stroke-width="4" stroke-linejoin="round" stroke-linecap="round"/>
<path d="M 174 1021.349 L 175.772 1023.444 L 177.543 1025.58 L 179.315 1027.757 L 181.086 1029.996 L 182.858 1032.255 L 184.629 1034.535 L 186.401 1036.835 L 188.172 1039.156 L 189.944 1041.476 L 191.715 1043.797 L 193.487 1046.118 L 195.259 1048.418 L 197.03 1050.719 L 198.802 1052.978 L 200.573 1055.196 L 202.345 1057.394 L 204.116 1059.55 L 205.888 1061.645 L 207.659 1063.699 L 209.431 1065.691 L 211.202 1067.601 L 212.974 1069.47 L 214.745 1071.236 L 216.517 1072.941 L 218.289 1074.543 L 220.06 1076.063 L 221.832 1077.5 L 223.603 1078.815 L 225.375 1080.068 L 227.146 1081.197 L 228.918 1082.204 L 230.689 1083.128 L 232.461 1083.929 L 234.232 1084.627 L 236.004 1085.223 L 237.776 1085.695 L 239.547 1086.044 L 241.319 1086.291 L 243.09 1086.414 L 244.862 1135.706 L 246.633 1135.623 L 248.405 1135.398 L 250.176 1135.069 L 251.948 1134.638 L 253.719 1134.104 L 255.491 1133.467 L 257.263 1132.748 L 259.034 1132.009 L 260.806 1131.187 L 262.577 1130.242 L 264.349 1129.236 L 266.12 1128.148 L 267.892 1126.956 L 269.663 1125.704 L 271.435 1124.389 L 273.206 1122.992 L 274.978 1121.555 L 276.749 1120.056 L 278.521 1118.495 L 280.293 1116.913 L 282.064 1115.27 L 283.836 1113.627 L 285.607 1111.922 L 287.379 1110.218 L 289.15 1108.513 L 290.922 1106.788 L 292.693 1105.063 L 294.465 1103.337 L 296.236 1101.612 L 298.008 1099.928 L 299.78 1098.265 L 301.551 1096.621 L 303.323 1095.019 L 305.094 1093.459 L 306.866 1091.939 L 308.637 1090.481 L 310.409 1089.084 L 312.18 1087.749 L 313.952 1086.476 L 315.723 1085.264 L 317.495 1084.155 L 319.267 1083.107 L 321.038 1082.142 L 322.81 1081.279 L 324.581 1080.499 L 326.353 1079.821 L 328.124 1079.226 L 329.896 1078.753 L 331.667 1078.363 L 333.439 1078.075 L 335.21 1077.911 L 336.982 1077.829 L 338.754 1077.87 L 340.525 1078.034 L 342.297 1078.281 L 344.068 1078.63 L 345.84 1079.102 L 347.611 1079.677 L 349.383 1080.355 L 351.154 1081.136 L 352.926 1082.019 L 354.697 1083.005 L 356.469 1084.073 L 358.24 1085.243 L 360.012 1086.496 L 361.784 1087.831 L 363.555 1089.248 L 365.327 1090.748 L 367.098 1092.329 L 368.87 1093.972 L 370.641 1095.677 L 372.413 1097.443 L 374.184 1099.25 L 375.956 1101.119 L 377.727 1103.029 L 379.499 1104.981 L 381.271 1106.952 L 383.042 1108.944 L 384.814 1110.978 L 386.585 1113.011 L 388.357 1115.044 L 390.128 1117.078 L 391.9 1119.111 L 393.671 1121.124 L 395.443 1123.136 L 397.214 1125.108 L 398.986 1127.039 L 400.758 1128.949 L 402.529 1130.818 L 404.301 1132.625 L 406.072 1134.391 L 407.844 1136.075 L 409.615 1137.718 L 411.387 1139.279 L 413.158 1140.758 L 414.93 1142.155 L 416.701 1143.469 L 418.473 1144.722 L 420.244 1145.975 L 422.016 1147.104 L 423.788 1148.152 L 425.559 1149.097 L 427.331 1149.918 L 429.102 1150.637 L 430.874 1151.233 L 432.645 1151.725 L 434.417 1152.095 L 436.188 1152.342 L 437.96 1152.485 L 439.731 1152.506 L 441.503 1152.403 L 443.275 1152.177 L 445.046 1151.828 L 446.818 1151.356 L 448.589 1150.781 L 450.361 1150.082 L 452.132 1149.281 L 453.904 1148.357 L 455.675 1147.31 L 457.447 1146.18 L 459.218 1144.927 L 460.99 1143.592 L 462.762 1142.134 L 464.533 1140.614 L 466.305 1138.971 L 468.076 1137.267 L 469.848 1135.48 L 471.619 1133.631 L 473.391 1131.701 L 475.162 1129.708 L 476.934 1127.655 L 478.705 1125.539 L 480.477 1123.383 L 482.248 1121.206 L 484.02 1118.967 L 485.792 1116.728 L 487.563 1114.449 L 489.335 1112.148 L 491.106 1109.848 L 492.878 1107.548 L 494.649 1105.248 L 496.421 1102.968 L 498.192 1100.688 L 499.964 1098.429 L 501.735 1096.211 L 503.507 1094.034 L 505.279 1091.877 L 507.05 1089.782 L 508.822 1087.749 L 510.593 1085.757 L 512.365 1083.826 L 514.136 1081.978 L 515.908 1080.191 L 517.679 1078.486 L 519.451 1076.864 L 521.222 1075.323 L 522.994 1073.886 L 524.766 1072.53 L 526.537 1071.277 L 528.309 1070.127 L 530.08 1097.813 L 531.852 1096.868 L 533.623 1096.026 L 535.395 1095.307 L 537.166 1094.691 L 538.938 1094.177 L 540.709 1093.767 L 542.481 1093.479 L 544.253 1093.315 L 546.024 1093.253 L 547.796 1093.294 L 549.567 1093.459 L 551.339 1093.726 L 553.11 1094.095 L 554.882 1094.568 L 556.653 1095.143 L 558.425 1095.82 L 560.196 1096.58 L 561.968 1097.443 L 563.739 1098.408 L 565.511 1099.435 L 567.283 1100.565 L 569.054 1101.756 L 570.826 1103.009 L 572.597 1104.344 L 574.369 1105.74 L 576.14 1107.199 L 577.912 1108.698 L 579.683 1110.259 L 581.455 1111.943 L 583.226 1113.668 L 584.998 1115.414 L 586.77 1117.201 L 588.541 1118.988 L 590.313 1120.774 L 592.084 1122.582 L 593.856 1124.369 L 595.627 1126.155 L 597.399 1127.922 L 599.17 1129.667 L 600.942 1131.393 L 602.713 1133.077 L 604.485 1134.72 L 606.257 1136.301 L 608.028 1137.842 L 609.8 1139.32 L 611.571 1140.758 L 613.343 1142.114 L 615.114 1143.387 L 616.886 1144.578 L 618.657 1145.708 L 620.429 1146.735 L 622.2 1147.679 L 623.972 1148.542 L 625.743 1149.302 L 627.515 1149.959 L 629.287 1150.493 L 631.058 1150.945 L 632.83 1151.294 L 634.601 1151.52 L 636.373 1151.643 L 638.144 1151.664 L 639.916 1151.561 L 641.687 1151.356 L 643.459 1151.027 L 645.23 1150.596 L 647.002 1150.062 L 648.774 1149.405 L 650.545 1148.645 L 652.317 1147.782 L 654.088 1146.796 L 655.86 1145.728 L 657.631 1144.558 L 659.403 1143.305 L 661.174 1141.949 L 662.946 1140.491 L 664.717 1138.971 L 666.489 1137.369 L 668.261 1135.685 L 670.032 1133.919 L 671.804 1132.111 L 673.575 1130.222 L 675.347 1128.291 L 677.118 1126.299 L 678.89 1124.266 L 680.661 1122.212 L 682.433 1120.117 L 684.204 1117.981 L 685.976 1115.845 L 687.747 1113.689 L 689.519 1111.512 L 691.291 1109.355 L 693.062 1107.199 L 694.834 1105.063 L 696.605 1102.927 L 698.377 1100.832 L 700.148 1098.757 L 701.92 1096.724 L 703.691 1094.732 L 705.463 1092.801 L 707.234 1090.912 L 709.006 1089.084 L 710.778 1087.338 L 712.549 1085.654 L 714.321 1084.032 L 716.092 1082.512 L 717.864 1081.074 L 719.635 1079.719 L 721.407 1078.466 L 723.178 1077.316 L 724.95 1076.268 L 726.721 1075.323 L 728.493 1074.481 L 730.265 1073.742 L 732.036 1073.126 L 733.808 1072.633 L 735.579 1072.243 L 737.351 1071.976 L 739.122 1071.832 L 740.894 1071.811 L 742.665 1071.996 L 744.437 1072.325 L 746.208 1072.756 L 747.98 1073.311 L 749.752 1073.988 L 751.523 1074.769 L 753.295 1075.673 L 755.066 1076.679 L 756.838 1077.788 L 758.609 1079 L 760.381 1080.335 L 762.152 1081.752 L 763.924 1083.251 L 765.695 1084.853 L 767.467 1086.558 L 769.238 1088.324 L 771.01 1090.152 L 772.782 1092.083 L 774.553 1094.054 L 776.325 1096.087 L 778.096 1098.182 L 779.868 1100.318 L 781.639 1102.516 L 783.411 1104.734 L 785.182 1106.973 L 786.954 1109.252 L 788.725 1111.532 L 790.497 1113.832 L 792.269 1116.133 L 794.04 1118.433 L 795.812 1120.733 L 797.583 1123.013 L 799.355 1125.272 L 801.126 1127.49 L 802.898 1129.688 L 804.669 1131.844 L 806.441 1133.96 L 808.212 1136.014 L 809.984 1138.006 L 811.756 1139.937 L 813.527 1141.805 L 815.299 1143.613 L 817.07 1145.338 L 818.842 1146.961 L 820.613 1148.521 L 822.385 1149.98 L 824.156 1151.335 L 825.928 1152.609 L 827.699 1153.779 L 829.471 1154.847 L 831.242 1155.792 L 833.014 1156.655 L 834.786 1157.394 L 836.557 1158.01 L 838.329 1158.524 L 840.1 1158.934 L 841.872 1159.222 L 843.643 1159.386 L 845.415 1159.448 L 847.186 1159.386 L 848.958 1159.222 L 850.729 1158.955 L 852.501 1158.565 L 854.273 1158.072 L 856.044 1157.476 L 857.816 1156.778 L 859.587 1155.977 L 861.359 1155.094 L 863.13 1154.108 L 864.902 1153.04 L 866.673 1151.869 L 868.445 1150.637 L 870.216 1149.322 L 871.988 1147.946 L 873.76 1146.488 L 875.531 1144.989 L 877.303 1143.428 L 879.074 1141.805 L 880.846 1140.162 L 882.617 1138.458 L 884.389 1136.753 L 886.16 1135.007 L 887.932 1133.241 L 889.703 1131.454 L 891.475 1129.667 L 893.246 1127.881 L 895.018 1126.114 L 896.79 1124.348 L 898.561 1122.582 L 900.333 1120.877 L 902.104 1119.172 L 903.876 1117.632 L 905.647 1116.112 L 907.419 1114.654 L 909.19 1113.257 L 910.962 1111.922 L 912.733 1110.649 L 914.505 1109.437 L 916.277 1108.287 L 918.048 1107.24 L 919.82 1106.254 L 921.591 1105.371 L 923.363 1104.57 L 925.134 1103.871 L 926.906 1103.255 L 928.677 1102.742 L 930.449 1102.331 L 932.22 1102.044 L 933.992 1101.838 L 935.764 1101.735 L 937.535 1101.756 L 939.307 1101.879 L 941.078 1102.126 L 942.85 1102.454 L 944.621 1102.906 L 946.393 1103.481 L 948.164 1104.138 L 949.936 1104.919 L 951.707 1105.802 L 953.479 1106.767 L 955.251 1107.856 L 957.022 1109.047 L 958.794 1110.32 L 960.565 1111.676 L 962.337 1113.134 L 964.108 1114.654 L 965.88 1116.277 L 967.651 1117.961 L 969.423 1119.727 L 971.194 1121.555 L 972.966 1123.444 L 974.737 1125.395 L 976.509 1127.388 L 978.281 1129.421 L 980.052 1131.495 L 981.824 1133.611 L 983.595 1135.747 L 985.367 1137.903 L 987.138 1140.06 L 988.91 1142.237 L 990.681 1144.434 L 992.453 1146.591 L 994.224 1148.768 L 995.996 1150.904 L 997.768 1153.019 L 999.539 1155.114 L 1001.311 1157.168 L 1003.082 1159.181 L 1004.854 1161.152 L 1006.625 1163.063 L 1008.397 1164.911 L 1010.168 1166.698 L 1011.94 1168.402 L 1013.711 1170.045 L 1015.483 1171.586 L 1017.255 1173.065 L 1019.026 1174.441 L 1020.798 1175.735 L 1022.569 1176.926 L 1024.341 1178.014 L 1026.112 1178.98 L 1027.884 1179.863 L 1029.655 1180.623 L 1031.427 1181.259 L 1033.198 1181.793 L 1034.97 1182.225 L 1036.741 1182.512 L 1038.513 1182.697 L 1040.285 1182.759 L 1042.056 1182.676 L 1043.828 1182.512 L 1045.599 1182.204 L 1047.371 1181.773 L 1049.142 1181.239 L 1050.914 1180.582 L 1052.685 1179.801 L 1054.457 1178.918 L 1056.228 1177.932 L 1058 1176.823" fill="none" stroke="#53f3c3" stroke-width="4" stroke-linejoin="round" stroke-linecap="round"/>
<path d="M 174 1017.241 L 175.772 1019.336 L 177.543 1021.472 L 179.315 1023.67 L 181.086 1025.908 L 182.858 1028.168 L 184.629 1030.468 L 186.401 1032.789 L 188.172 1035.13 L 189.944 1037.471 L 191.715 1039.833 L 193.487 1042.195 L 195.259 1044.537 L 197.03 1046.857 L 198.802 1049.158 L 200.573 1051.437 L 202.345 1053.697 L 204.116 1055.894 L 205.888 1058.051 L 207.659 1060.166 L 209.431 1062.22 L 211.202 1064.192 L 212.974 1066.122 L 214.745 1067.971 L 216.517 1069.737 L 218.289 1071.421 L 220.06 1073.023 L 221.832 1074.543 L 223.603 1075.96 L 225.375 1077.274 L 227.146 1078.486 L 228.918 1079.595 L 230.689 1080.622 L 232.461 1081.526 L 234.232 1082.306 L 236.004 1082.984 L 237.776 1083.559 L 239.547 1084.011 L 241.319 1084.36 L 243.09 1084.586 L 244.862 1133.98 L 246.633 1134.001 L 248.405 1133.878 L 250.176 1133.672 L 251.948 1133.344 L 253.719 1132.892 L 255.491 1132.358 L 257.263 1131.68 L 259.034 1130.838 L 260.806 1129.893 L 262.577 1128.866 L 264.349 1127.757 L 266.12 1126.546 L 267.892 1125.272 L 269.663 1123.917 L 271.435 1122.479 L 273.206 1121 L 274.978 1119.46 L 276.749 1117.858 L 278.521 1116.194 L 280.293 1114.51 L 282.064 1112.785 L 283.836 1111.039 L 285.607 1109.252 L 287.379 1107.466 L 289.15 1105.658 L 290.922 1103.851 L 292.693 1102.044 L 294.465 1100.236 L 296.236 1098.449 L 298.008 1096.683 L 299.78 1094.937 L 301.551 1093.233 L 303.323 1091.569 L 305.094 1089.947 L 306.866 1088.365 L 308.637 1086.845 L 310.409 1085.387 L 312.18 1083.99 L 313.952 1082.676 L 315.723 1081.423 L 317.495 1080.273 L 319.267 1079.185 L 321.038 1078.199 L 322.81 1077.295 L 324.581 1076.494 L 326.353 1075.775 L 328.124 1075.18 L 329.896 1074.666 L 331.667 1074.276 L 333.439 1073.988 L 335.21 1073.804 L 336.982 1073.721 L 338.754 1073.762 L 340.525 1073.927 L 342.297 1074.194 L 344.068 1074.563 L 345.84 1075.036 L 347.611 1075.631 L 349.383 1076.33 L 351.154 1077.131 L 352.926 1078.055 L 354.697 1079.061 L 356.469 1080.17 L 358.24 1081.382 L 360.012 1082.676 L 361.784 1084.073 L 363.555 1085.531 L 365.327 1087.092 L 367.098 1088.714 L 368.87 1090.419 L 370.641 1092.185 L 372.413 1094.034 L 374.184 1095.903 L 375.956 1097.854 L 377.727 1099.825 L 379.499 1101.859 L 381.271 1103.913 L 383.042 1105.987 L 384.814 1108.082 L 386.585 1110.218 L 388.357 1112.333 L 390.128 1114.469 L 391.9 1116.585 L 393.671 1118.7 L 395.443 1120.795 L 397.214 1122.869 L 398.986 1124.903 L 400.758 1126.915 L 402.529 1128.866 L 404.301 1130.776 L 406.072 1132.645 L 407.844 1134.453 L 409.615 1136.178 L 411.387 1137.842 L 413.158 1139.444 L 414.93 1140.943 L 416.701 1142.36 L 418.473 1143.674 L 420.244 1144.804 L 422.016 1145.852 L 423.788 1146.776 L 425.559 1147.618 L 427.331 1148.337 L 429.102 1148.953 L 430.874 1149.446 L 432.645 1149.836 L 434.417 1150.103 L 436.188 1150.247 L 437.96 1150.288 L 439.731 1150.206 L 441.503 1150 L 443.275 1149.692 L 445.046 1149.24 L 446.818 1148.706 L 448.589 1148.029 L 450.361 1147.248 L 452.132 1146.344 L 453.904 1145.338 L 455.675 1144.229 L 457.447 1142.997 L 459.218 1141.682 L 460.99 1140.265 L 462.762 1138.766 L 464.533 1137.164 L 466.305 1135.459 L 468.076 1133.693 L 469.848 1131.844 L 471.619 1129.934 L 473.391 1127.963 L 475.162 1125.909 L 476.934 1123.814 L 478.705 1121.658 L 480.477 1119.48 L 482.248 1117.242 L 484.02 1114.983 L 485.792 1112.703 L 487.563 1110.403 L 489.335 1108.102 L 491.106 1105.781 L 492.878 1103.461 L 494.649 1101.16 L 496.421 1098.86 L 498.192 1096.58 L 499.964 1094.321 L 501.735 1092.124 L 503.507 1089.947 L 505.279 1087.811 L 507.05 1085.716 L 508.822 1083.703 L 510.593 1081.731 L 512.365 1079.821 L 514.136 1077.993 L 515.908 1076.248 L 517.679 1074.584 L 519.451 1073.003 L 521.222 1071.503 L 522.994 1070.107 L 524.766 1068.813 L 526.537 1067.601 L 528.309 1066.512 L 530.08 1094.26 L 531.852 1093.376 L 533.623 1092.617 L 535.395 1091.939 L 537.166 1091.405 L 538.938 1090.953 L 540.709 1090.645 L 542.481 1090.439 L 544.253 1090.337 L 546.024 1090.357 L 547.796 1090.481 L 549.567 1090.727 L 551.339 1091.097 L 553.11 1091.549 L 554.882 1092.124 L 556.653 1092.801 L 558.425 1093.561 L 560.196 1094.424 L 561.968 1095.389 L 563.739 1096.457 L 565.511 1097.587 L 567.283 1098.819 L 569.054 1100.113 L 570.826 1101.468 L 572.597 1102.906 L 574.369 1104.405 L 576.14 1105.966 L 577.912 1107.568 L 579.683 1109.211 L 581.455 1110.793 L 583.226 1112.415 L 584.998 1114.058 L 586.77 1115.722 L 588.541 1117.406 L 590.313 1119.111 L 592.084 1120.795 L 593.856 1122.5 L 595.627 1124.184 L 597.399 1125.847 L 599.17 1127.49 L 600.942 1129.113 L 602.713 1130.694 L 604.485 1132.235 L 606.257 1133.734 L 608.028 1135.192 L 609.8 1136.589 L 611.571 1137.924 L 613.343 1139.197 L 615.114 1140.388 L 616.886 1141.518 L 618.657 1142.545 L 620.429 1143.51 L 622.2 1144.373 L 623.972 1145.174 L 625.743 1145.852 L 627.515 1146.447 L 629.287 1146.94 L 631.058 1147.33 L 632.83 1147.618 L 634.601 1147.782 L 636.373 1147.864 L 638.144 1147.823 L 639.916 1147.679 L 641.687 1147.433 L 643.459 1147.084 L 645.23 1146.611 L 647.002 1146.036 L 648.774 1145.359 L 650.545 1144.578 L 652.317 1143.695 L 654.088 1142.709 L 655.86 1141.641 L 657.631 1140.47 L 659.403 1139.197 L 661.174 1137.842 L 662.946 1136.404 L 664.717 1134.884 L 666.489 1133.282 L 668.261 1131.619 L 670.032 1129.873 L 671.804 1128.065 L 673.575 1126.217 L 675.347 1124.307 L 677.118 1122.356 L 678.89 1120.364 L 680.661 1118.351 L 682.433 1116.277 L 684.204 1114.202 L 685.976 1112.107 L 687.747 1110.012 L 689.519 1107.897 L 691.291 1105.802 L 693.062 1103.707 L 694.834 1101.633 L 696.605 1099.558 L 698.377 1097.525 L 700.148 1095.533 L 701.92 1093.582 L 703.691 1091.672 L 705.463 1089.803 L 707.234 1088.016 L 709.006 1086.27 L 710.778 1084.607 L 712.549 1083.005 L 714.321 1081.485 L 716.092 1080.068 L 717.864 1078.712 L 719.635 1077.459 L 721.407 1076.309 L 723.178 1075.262 L 724.95 1074.296 L 726.721 1073.454 L 728.493 1072.715 L 730.265 1072.099 L 732.036 1071.585 L 733.808 1071.175 L 735.579 1070.908 L 737.351 1070.743 L 739.122 1070.702 L 740.894 1070.784 L 742.665 1070.867 L 744.437 1071.072 L 746.208 1071.401 L 747.98 1071.852 L 749.752 1072.427 L 751.523 1073.105 L 753.295 1073.886 L 755.066 1074.81 L 756.838 1075.816 L 758.609 1076.925 L 760.381 1078.158 L 762.152 1079.472 L 763.924 1080.889 L 765.695 1082.409 L 767.467 1083.99 L 769.238 1085.675 L 771.01 1087.42 L 772.782 1089.248 L 774.553 1091.138 L 776.325 1093.109 L 778.096 1095.122 L 779.868 1097.176 L 781.639 1099.291 L 783.411 1101.427 L 785.182 1103.604 L 786.954 1105.802 L 788.725 1108.041 L 790.497 1110.279 L 792.269 1112.518 L 794.04 1114.757 L 795.812 1116.995 L 797.583 1119.234 L 799.355 1121.432 L 801.126 1123.629 L 802.898 1125.786 L 804.669 1127.901 L 806.441 1129.975 L 808.212 1132.009 L 809.984 1133.98 L 811.756 1135.89 L 813.527 1137.739 L 815.299 1139.526 L 817.07 1141.23 L 818.842 1142.853 L 820.613 1144.414 L 822.385 1145.872 L 824.156 1147.228 L 825.928 1148.521 L 827.699 1149.692 L 829.471 1150.76 L 831.242 1151.746 L 833.014 1152.609 L 834.786 1153.389 L 836.557 1154.026 L 838.329 1154.58 L 840.1 1155.012 L 841.872 1155.34 L 843.643 1155.566 L 845.415 1155.669 L 847.186 1155.669 L 848.958 1155.546 L 850.729 1155.34 L 852.501 1155.012 L 854.273 1154.58 L 856.044 1154.046 L 857.816 1153.41 L 859.587 1152.691 L 861.359 1151.869 L 863.13 1150.966 L 864.902 1149.959 L 866.673 1148.891 L 868.445 1147.72 L 870.216 1146.509 L 871.988 1145.215 L 873.76 1143.839 L 875.531 1142.422 L 877.303 1140.963 L 879.074 1139.444 L 880.846 1137.883 L 882.617 1136.301 L 884.389 1134.679 L 886.16 1133.015 L 887.932 1131.352 L 889.703 1129.688 L 891.475 1128.004 L 893.246 1126.32 L 895.018 1124.656 L 896.79 1122.992 L 898.561 1121.349 L 900.333 1119.727 L 902.104 1118.145 L 903.876 1116.502 L 905.647 1114.88 L 907.419 1113.319 L 909.19 1111.82 L 910.962 1110.362 L 912.733 1108.985 L 914.505 1107.671 L 916.277 1106.439 L 918.048 1105.268 L 919.82 1104.2 L 921.591 1103.214 L 923.363 1102.311 L 925.134 1101.51 L 926.906 1100.811 L 928.677 1100.195 L 930.449 1099.702 L 932.22 1099.312 L 933.992 1099.024 L 935.764 1098.84 L 937.535 1098.778 L 939.307 1098.819 L 941.078 1098.983 L 942.85 1099.25 L 944.621 1099.62 L 946.393 1100.113 L 948.164 1100.709 L 949.936 1101.427 L 951.707 1102.249 L 953.479 1103.153 L 955.251 1104.18 L 957.022 1105.309 L 958.794 1106.541 L 960.565 1107.856 L 962.337 1109.273 L 964.108 1110.752 L 965.88 1112.333 L 967.651 1113.997 L 969.423 1115.722 L 971.194 1117.529 L 972.966 1119.398 L 974.737 1121.329 L 976.509 1123.301 L 978.281 1125.334 L 980.052 1127.388 L 981.824 1129.503 L 983.595 1131.639 L 985.367 1133.796 L 987.138 1135.973 L 988.91 1138.15 L 990.681 1140.347 L 992.453 1142.545 L 994.224 1144.722 L 995.996 1146.899 L 997.768 1149.055 L 999.539 1151.171 L 1001.311 1153.266 L 1003.082 1155.32 L 1004.854 1157.312 L 1006.625 1159.263 L 1008.397 1161.173 L 1010.168 1163.001 L 1011.94 1164.767 L 1013.711 1166.472 L 1015.483 1168.094 L 1017.255 1169.614 L 1019.026 1171.072 L 1020.798 1172.428 L 1022.569 1173.681 L 1024.341 1174.851 L 1026.112 1175.899 L 1027.884 1176.864 L 1029.655 1177.706 L 1031.427 1178.425 L 1033.198 1179.062 L 1034.97 1179.555 L 1036.741 1179.945 L 1038.513 1180.212 L 1040.285 1180.376 L 1042.056 1180.397 L 1043.828 1180.315 L 1045.599 1180.109 L 1047.371 1179.801 L 1049.142 1179.349 L 1050.914 1178.795 L 1052.685 1178.138 L 1054.457 1177.357 L 1056.228 1176.453 L 1058 1175.468" fill="none" stroke="#ff6b8a" stroke-width="4" stroke-linejoin="round" stroke-linecap="round"/>
<line x1="196" y1="990" x2="230" y2="990" stroke="#f8fafc" stroke-width="5" stroke-linecap="round"/>
<text x="242" y="996" class="legend">midprice</text>
<line x1="382" y1="990" x2="416" y2="990" stroke="#53f3c3" stroke-width="5" stroke-linecap="round"/>
<text x="428" y="996" class="legend">best bid</text>
<line x1="568" y1="990" x2="602" y2="990" stroke="#ff6b8a" stroke-width="5" stroke-linecap="round"/>
<text x="614" y="996" class="legend">best ask</text>
<text x="1046" y="1226" text-anchor="end" class="tiny">USDT</text>
<line x1="174" y1="1196" x2="174" y2="1204" stroke="#2f4b62" stroke-width="2"/>
<text x="174" y="1226" text-anchor="middle" class="tick">00:00:05</text>
<line x1="395" y1="1196" x2="395" y2="1204" stroke="#2f4b62" stroke-width="2"/>
<text x="395" y="1226" text-anchor="middle" class="tick">00:00:06</text>
<line x1="616" y1="1196" x2="616" y2="1204" stroke="#2f4b62" stroke-width="2"/>
<text x="616" y="1226" text-anchor="middle" class="tick">00:00:07</text>
<line x1="837" y1="1196" x2="837" y2="1204" stroke="#2f4b62" stroke-width="2"/>
<text x="837" y="1226" text-anchor="middle" class="tick">00:00:08</text>
<line x1="1058" y1="1196" x2="1058" y2="1204" stroke="#2f4b62" stroke-width="2"/>
<text x="1058" y="1226" text-anchor="middle" class="tick">00:00:09</text>

  <rect x="1118" y="892" width="932" height="350" rx="26" class="panel" filter="url(#shadow)"/>
  <text x="1154" y="938" class="panel-title">Aggregate Trade Volume</text>
  <text x="1154" y="968" class="panel-subtitle">Stacked buy and sell volume per time bucket.</text>
  <rect x="1142" y="1004" width="884" height="192" rx="12" fill="#0b1627" stroke="#263c56" stroke-width="2"/>
<line x1="1142" y1="1052" x2="2026" y2="1052" class="grid"/>
<line x1="1142" y1="1100" x2="2026" y2="1100" class="grid"/>
<line x1="1142" y1="1148" x2="2026" y2="1148" class="grid"/>
<line x1="1289.333" y1="1004" x2="1289.333" y2="1196" class="grid"/>
<line x1="1436.667" y1="1004" x2="1436.667" y2="1196" class="grid"/>
<line x1="1584" y1="1004" x2="1584" y2="1196" class="grid"/>
<line x1="1731.333" y1="1004" x2="1731.333" y2="1196" class="grid"/>
<line x1="1878.667" y1="1004" x2="1878.667" y2="1196" class="grid"/>
<line x1="1142" y1="1196" x2="2026" y2="1196" class="axis"/>
<line x1="1142" y1="1004" x2="1142" y2="1196" class="axis"/>
<text x="1128" y="1009" text-anchor="end" class="tick">9.949</text>
<text x="1128" y="1057" text-anchor="end" class="tick">7.462</text>
<text x="1128" y="1105" text-anchor="end" class="tick">4.975</text>
<text x="1128" y="1153" text-anchor="end" class="tick">2.487</text>
<text x="1128" y="1201" text-anchor="end" class="tick">0</text>
<rect x="1147.46" y="1044.474" width="15.08" height="151.526" rx="3" fill="#39d353" opacity="0.9"/>
<rect x="1147.46" y="1024.571" width="15.08" height="19.903" rx="3" fill="#ff5f6d" opacity="0.9"/>
<rect x="1173.46" y="1069.878" width="15.08" height="126.122" rx="3" fill="#39d353" opacity="0.9"/>
<rect x="1173.46" y="1035.453" width="15.08" height="34.425" rx="3" fill="#ff5f6d" opacity="0.9"/>
<rect x="1199.46" y="1081.796" width="15.08" height="114.204" rx="3" fill="#39d353" opacity="0.9"/>
<rect x="1199.46" y="1063.46" width="15.08" height="18.336" rx="3" fill="#ff5f6d" opacity="0.9"/>
<rect x="1225.46" y="1133.385" width="15.08" height="62.615" rx="3" fill="#39d353" opacity="0.9"/>
<rect x="1225.46" y="1037.326" width="15.08" height="96.06" rx="3" fill="#ff5f6d" opacity="0.9"/>
<rect x="1251.46" y="1152.333" width="15.08" height="43.667" rx="3" fill="#39d353" opacity="0.9"/>
<rect x="1251.46" y="1081.542" width="15.08" height="70.791" rx="3" fill="#ff5f6d" opacity="0.9"/>
<rect x="1277.46" y="1149.221" width="15.08" height="46.779" rx="3" fill="#39d353" opacity="0.9"/>
<rect x="1277.46" y="1085.55" width="15.08" height="63.672" rx="3" fill="#ff5f6d" opacity="0.9"/>
<rect x="1303.46" y="1170.022" width="15.08" height="25.978" rx="3" fill="#39d353" opacity="0.9"/>
<rect x="1303.46" y="1118.295" width="15.08" height="51.727" rx="3" fill="#ff5f6d" opacity="0.9"/>
<rect x="1329.46" y="1162.951" width="15.08" height="33.049" rx="3" fill="#39d353" opacity="0.9"/>
<rect x="1329.46" y="1116.383" width="15.08" height="46.567" rx="3" fill="#ff5f6d" opacity="0.9"/>
<rect x="1355.46" y="1166.911" width="15.08" height="29.089" rx="3" fill="#39d353" opacity="0.9"/>
<rect x="1355.46" y="1122.633" width="15.08" height="44.278" rx="3" fill="#ff5f6d" opacity="0.9"/>
<rect x="1381.46" y="1169.224" width="15.08" height="26.776" rx="3" fill="#39d353" opacity="0.9"/>
<rect x="1381.46" y="1113.61" width="15.08" height="55.614" rx="3" fill="#ff5f6d" opacity="0.9"/>
<rect x="1407.46" y="1172.775" width="15.08" height="23.225" rx="3" fill="#39d353" opacity="0.9"/>
<rect x="1407.46" y="1126.02" width="15.08" height="46.755" rx="3" fill="#ff5f6d" opacity="0.9"/>
<rect x="1433.46" y="1177.719" width="15.08" height="18.281" rx="3" fill="#39d353" opacity="0.9"/>
<rect x="1433.46" y="1122.763" width="15.08" height="54.956" rx="3" fill="#ff5f6d" opacity="0.9"/>
<rect x="1459.46" y="1173.103" width="15.08" height="22.897" rx="3" fill="#39d353" opacity="0.9"/>
<rect x="1459.46" y="1130.378" width="15.08" height="42.725" rx="3" fill="#ff5f6d" opacity="0.9"/>
<rect x="1485.46" y="1170.663" width="15.08" height="25.337" rx="3" fill="#39d353" opacity="0.9"/>
<rect x="1485.46" y="1109.276" width="15.08" height="61.387" rx="3" fill="#ff5f6d" opacity="0.9"/>
<rect x="1511.46" y="1167.299" width="15.08" height="28.701" rx="3" fill="#39d353" opacity="0.9"/>
<rect x="1511.46" y="1110.025" width="15.08" height="57.274" rx="3" fill="#ff5f6d" opacity="0.9"/>
<rect x="1537.46" y="1177.268" width="15.08" height="18.732" rx="3" fill="#39d353" opacity="0.9"/>
<rect x="1537.46" y="1131.15" width="15.08" height="46.118" rx="3" fill="#ff5f6d" opacity="0.9"/>
<rect x="1563.46" y="1165.165" width="15.08" height="30.835" rx="3" fill="#39d353" opacity="0.9"/>
<rect x="1563.46" y="1113.426" width="15.08" height="51.739" rx="3" fill="#ff5f6d" opacity="0.9"/>
<rect x="1589.46" y="1157.716" width="15.08" height="38.284" rx="3" fill="#39d353" opacity="0.9"/>
<rect x="1589.46" y="1095.272" width="15.08" height="62.445" rx="3" fill="#ff5f6d" opacity="0.9"/>
<rect x="1615.46" y="1166.942" width="15.08" height="29.058" rx="3" fill="#39d353" opacity="0.9"/>
<rect x="1615.46" y="1128.233" width="15.08" height="38.709" rx="3" fill="#ff5f6d" opacity="0.9"/>
<rect x="1641.46" y="1169.395" width="15.08" height="26.605" rx="3" fill="#39d353" opacity="0.9"/>
<rect x="1641.46" y="1103.495" width="15.08" height="65.9" rx="3" fill="#ff5f6d" opacity="0.9"/>
<rect x="1667.46" y="1163.537" width="15.08" height="32.463" rx="3" fill="#39d353" opacity="0.9"/>
<rect x="1667.46" y="1110.583" width="15.08" height="52.954" rx="3" fill="#ff5f6d" opacity="0.9"/>
<rect x="1693.46" y="1182.688" width="15.08" height="13.312" rx="3" fill="#39d353" opacity="0.9"/>
<rect x="1693.46" y="1132.38" width="15.08" height="50.308" rx="3" fill="#ff5f6d" opacity="0.9"/>
<rect x="1719.46" y="1175.616" width="15.08" height="20.384" rx="3" fill="#39d353" opacity="0.9"/>
<rect x="1719.46" y="1126.989" width="15.08" height="48.627" rx="3" fill="#ff5f6d" opacity="0.9"/>
<rect x="1745.46" y="1172.761" width="15.08" height="23.239" rx="3" fill="#39d353" opacity="0.9"/>
<rect x="1745.46" y="1106.616" width="15.08" height="66.145" rx="3" fill="#ff5f6d" opacity="0.9"/>
<rect x="1771.46" y="1166.664" width="15.08" height="29.336" rx="3" fill="#39d353" opacity="0.9"/>
<rect x="1771.46" y="1121.199" width="15.08" height="45.465" rx="3" fill="#ff5f6d" opacity="0.9"/>
<rect x="1797.46" y="1153.94" width="15.08" height="42.06" rx="3" fill="#39d353" opacity="0.9"/>
<rect x="1797.46" y="1096.827" width="15.08" height="57.112" rx="3" fill="#ff5f6d" opacity="0.9"/>
<rect x="1823.46" y="1168.892" width="15.08" height="27.108" rx="3" fill="#39d353" opacity="0.9"/>
<rect x="1823.46" y="1124.29" width="15.08" height="44.601" rx="3" fill="#ff5f6d" opacity="0.9"/>
<rect x="1849.46" y="1175.738" width="15.08" height="20.262" rx="3" fill="#39d353" opacity="0.9"/>
<rect x="1849.46" y="1125.053" width="15.08" height="50.685" rx="3" fill="#ff5f6d" opacity="0.9"/>
<rect x="1875.46" y="1163.879" width="15.08" height="32.121" rx="3" fill="#39d353" opacity="0.9"/>
<rect x="1875.46" y="1115.057" width="15.08" height="48.821" rx="3" fill="#ff5f6d" opacity="0.9"/>
<rect x="1901.46" y="1161.879" width="15.08" height="34.121" rx="3" fill="#39d353" opacity="0.9"/>
<rect x="1901.46" y="1110.169" width="15.08" height="51.71" rx="3" fill="#ff5f6d" opacity="0.9"/>
<rect x="1927.46" y="1164.327" width="15.08" height="31.673" rx="3" fill="#39d353" opacity="0.9"/>
<rect x="1927.46" y="1124.546" width="15.08" height="39.781" rx="3" fill="#ff5f6d" opacity="0.9"/>
<rect x="1953.46" y="1171.725" width="15.08" height="24.275" rx="3" fill="#39d353" opacity="0.9"/>
<rect x="1953.46" y="1111.692" width="15.08" height="60.033" rx="3" fill="#ff5f6d" opacity="0.9"/>
<rect x="1979.46" y="1167.769" width="15.08" height="28.231" rx="3" fill="#39d353" opacity="0.9"/>
<rect x="1979.46" y="1099.804" width="15.08" height="67.965" rx="3" fill="#ff5f6d" opacity="0.9"/>
<rect x="2005.46" y="1161.177" width="15.08" height="34.823" rx="3" fill="#39d353" opacity="0.9"/>
<rect x="2005.46" y="1116.243" width="15.08" height="44.933" rx="3" fill="#ff5f6d" opacity="0.9"/>
<line x1="1164" y1="990" x2="1198" y2="990" stroke="#39d353" stroke-width="5" stroke-linecap="round"/>
<text x="1210" y="996" class="legend">buy volume</text>
<line x1="1374" y1="990" x2="1408" y2="990" stroke="#ff5f6d" stroke-width="5" stroke-linecap="round"/>
<text x="1420" y="996" class="legend">sell volume</text>
<line x1="1142" y1="1196" x2="1142" y2="1204" stroke="#2f4b62" stroke-width="2"/>
<text x="1142" y="1226" text-anchor="middle" class="tick">00:00:05</text>
<line x1="1363" y1="1196" x2="1363" y2="1204" stroke="#2f4b62" stroke-width="2"/>
<text x="1363" y="1226" text-anchor="middle" class="tick">00:00:06</text>
<line x1="1584" y1="1196" x2="1584" y2="1204" stroke="#2f4b62" stroke-width="2"/>
<text x="1584" y="1226" text-anchor="middle" class="tick">00:00:07</text>
<line x1="1805" y1="1196" x2="1805" y2="1204" stroke="#2f4b62" stroke-width="2"/>
<text x="1805" y="1226" text-anchor="middle" class="tick">00:00:08</text>
<line x1="2026" y1="1196" x2="2026" y2="1204" stroke="#2f4b62" stroke-width="2"/>
<text x="2026" y="1226" text-anchor="middle" class="tick">00:00:09</text>

  <rect x="150" y="1284" width="932" height="350" rx="26" class="panel" filter="url(#shadow)"/>
  <text x="186" y="1330" class="panel-title">Bid-Ask Spread</text>
  <text x="186" y="1360" class="panel-subtitle">Quoted spread from the treated book.</text>
  <rect x="174" y="1396" width="884" height="192" rx="12" fill="#0b1627" stroke="#263c56" stroke-width="2"/>
<line x1="174" y1="1444" x2="1058" y2="1444" class="grid"/>
<line x1="174" y1="1492" x2="1058" y2="1492" class="grid"/>
<line x1="174" y1="1540" x2="1058" y2="1540" class="grid"/>
<line x1="321.333" y1="1396" x2="321.333" y2="1588" class="grid"/>
<line x1="468.667" y1="1396" x2="468.667" y2="1588" class="grid"/>
<line x1="616" y1="1396" x2="616" y2="1588" class="grid"/>
<line x1="763.333" y1="1396" x2="763.333" y2="1588" class="grid"/>
<line x1="910.667" y1="1396" x2="910.667" y2="1588" class="grid"/>
<line x1="174" y1="1588" x2="1058" y2="1588" class="axis"/>
<line x1="174" y1="1396" x2="174" y2="1588" class="axis"/>
<text x="160" y="1401" text-anchor="end" class="tick">2.12</text>
<text x="160" y="1449" text-anchor="end" class="tick">1.685</text>
<text x="160" y="1497" text-anchor="end" class="tick">1.25</text>
<text x="160" y="1545" text-anchor="end" class="tick">0.815</text>
<text x="160" y="1593" text-anchor="end" class="tick">0.38</text>
<path d="M 174 1409.241 L 175.772 1409.241 L 177.543 1409.241 L 179.315 1410.345 L 181.086 1410.345 L 182.858 1410.345 L 184.629 1411.448 L 186.401 1412.552 L 188.172 1413.655 L 189.944 1414.759 L 191.715 1416.966 L 193.487 1419.172 L 195.259 1421.379 L 197.03 1422.483 L 198.802 1424.69 L 200.573 1428 L 202.345 1431.31 L 204.116 1433.517 L 205.888 1436.828 L 207.659 1440.138 L 209.431 1443.448 L 211.202 1446.759 L 212.974 1450.069 L 214.745 1454.483 L 216.517 1457.793 L 218.289 1462.207 L 220.06 1466.621 L 221.832 1471.034 L 223.603 1476.552 L 225.375 1479.862 L 227.146 1484.276 L 228.918 1489.793 L 230.689 1495.31 L 232.461 1500.828 L 234.232 1505.241 L 236.004 1509.655 L 237.776 1515.172 L 239.547 1520.69 L 241.319 1526.207 L 243.09 1531.724 L 244.862 1537.241 L 246.633 1542.759 L 248.405 1548.276 L 250.176 1554.897 L 251.948 1560.414 L 253.719 1564.828 L 255.491 1570.345 L 257.263 1572.552 L 259.034 1567.034 L 260.806 1560.414 L 262.577 1556 L 264.349 1550.483 L 266.12 1543.862 L 267.892 1539.448 L 269.663 1533.931 L 271.435 1527.31 L 273.206 1522.897 L 274.978 1517.379 L 276.749 1511.862 L 278.521 1506.345 L 280.293 1500.828 L 282.064 1496.414 L 283.836 1490.897 L 285.607 1486.483 L 287.379 1482.069 L 289.15 1476.552 L 290.922 1472.138 L 292.693 1467.724 L 294.465 1463.31 L 296.236 1460 L 298.008 1455.586 L 299.78 1451.172 L 301.551 1447.862 L 303.323 1444.552 L 305.094 1441.241 L 306.866 1437.931 L 308.637 1434.621 L 310.409 1431.31 L 312.18 1428 L 313.952 1425.793 L 315.723 1423.586 L 317.495 1421.379 L 319.267 1419.172 L 321.038 1418.069 L 322.81 1415.862 L 324.581 1414.759 L 326.353 1412.552 L 328.124 1412.552 L 329.896 1410.345 L 331.667 1410.345 L 333.439 1410.345 L 335.21 1409.241 L 336.982 1409.241 L 338.754 1409.241 L 340.525 1409.241 L 342.297 1410.345 L 344.068 1411.448 L 345.84 1411.448 L 347.611 1412.552 L 349.383 1413.655 L 351.154 1414.759 L 352.926 1416.966 L 354.697 1418.069 L 356.469 1420.276 L 358.24 1422.483 L 360.012 1424.69 L 361.784 1428 L 363.555 1430.207 L 365.327 1433.517 L 367.098 1435.724 L 368.87 1439.034 L 370.641 1442.345 L 372.413 1446.759 L 374.184 1450.069 L 375.956 1454.483 L 377.727 1457.793 L 379.499 1462.207 L 381.271 1466.621 L 383.042 1471.034 L 384.814 1474.345 L 386.585 1479.862 L 388.357 1484.276 L 390.128 1489.793 L 391.9 1494.207 L 393.671 1499.724 L 395.443 1504.138 L 397.214 1509.655 L 398.986 1515.172 L 400.758 1520.69 L 402.529 1525.103 L 404.301 1530.621 L 406.072 1536.138 L 407.844 1542.759 L 409.615 1547.172 L 411.387 1552.69 L 413.158 1559.31 L 414.93 1564.828 L 416.701 1570.345 L 418.473 1573.655 L 420.244 1567.034 L 422.016 1562.621 L 423.788 1556 L 425.559 1550.483 L 427.331 1544.966 L 429.102 1539.448 L 430.874 1533.931 L 432.645 1528.414 L 434.417 1522.897 L 436.188 1517.379 L 437.96 1511.862 L 439.731 1506.345 L 441.503 1500.828 L 443.275 1496.414 L 445.046 1490.897 L 446.818 1487.586 L 448.589 1482.069 L 450.361 1477.655 L 452.132 1472.138 L 453.904 1467.724 L 455.675 1464.414 L 457.447 1458.897 L 459.218 1455.586 L 460.99 1451.172 L 462.762 1448.966 L 464.533 1444.552 L 466.305 1441.241 L 468.076 1437.931 L 469.848 1434.621 L 471.619 1431.31 L 473.391 1429.103 L 475.162 1425.793 L 476.934 1423.586 L 478.705 1421.379 L 480.477 1420.276 L 482.248 1416.966 L 484.02 1415.862 L 485.792 1413.655 L 487.563 1412.552 L 489.335 1412.552 L 491.106 1411.448 L 492.878 1410.345 L 494.649 1410.345 L 496.421 1409.241 L 498.192 1409.241 L 499.964 1409.241 L 501.735 1410.345 L 503.507 1410.345 L 505.279 1411.448 L 507.05 1411.448 L 508.822 1412.552 L 510.593 1413.655 L 512.365 1414.759 L 514.136 1415.862 L 515.908 1418.069 L 517.679 1420.276 L 519.451 1422.483 L 521.222 1424.69 L 522.994 1426.897 L 524.766 1430.207 L 526.537 1432.414 L 528.309 1435.724 L 530.08 1439.034 L 531.852 1442.345 L 533.623 1446.759 L 535.395 1448.966 L 537.166 1453.379 L 538.938 1456.69 L 540.709 1462.207 L 542.481 1466.621 L 544.253 1469.931 L 546.024 1474.345 L 547.796 1478.759 L 549.567 1483.172 L 551.339 1488.69 L 553.11 1493.103 L 554.882 1498.621 L 556.653 1504.138 L 558.425 1508.552 L 560.196 1514.069 L 561.968 1519.586 L 563.739 1525.103 L 565.511 1530.621 L 567.283 1536.138 L 569.054 1541.655 L 570.826 1547.172 L 572.597 1552.69 L 574.369 1558.207 L 576.14 1563.724 L 577.912 1569.241 L 579.683 1573.655 L 581.455 1568.138 L 583.226 1562.621 L 584.998 1557.103 L 586.77 1550.483 L 588.541 1544.966 L 590.313 1540.552 L 592.084 1533.931 L 593.856 1529.517 L 595.627 1524 L 597.399 1518.483 L 599.17 1512.966 L 600.942 1507.448 L 602.713 1501.931 L 604.485 1496.414 L 606.257 1492 L 608.028 1487.586 L 609.8 1483.172 L 611.571 1477.655 L 613.343 1473.241 L 615.114 1468.828 L 616.886 1465.517 L 618.657 1460 L 620.429 1456.69 L 622.2 1452.276 L 623.972 1448.966 L 625.743 1444.552 L 627.515 1441.241 L 629.287 1439.034 L 631.058 1435.724 L 632.83 1432.414 L 634.601 1429.103 L 636.373 1426.897 L 638.144 1423.586 L 639.916 1421.379 L 641.687 1419.172 L 643.459 1418.069 L 645.23 1415.862 L 647.002 1413.655 L 648.774 1412.552 L 650.545 1411.448 L 652.317 1410.345 L 654.088 1410.345 L 655.86 1410.345 L 657.631 1410.345 L 659.403 1409.241 L 661.174 1409.241 L 662.946 1410.345 L 664.717 1410.345 L 666.489 1410.345 L 668.261 1411.448 L 670.032 1412.552 L 671.804 1412.552 L 673.575 1414.759 L 675.347 1415.862 L 677.118 1418.069 L 678.89 1420.276 L 680.661 1422.483 L 682.433 1423.586 L 684.204 1426.897 L 685.976 1429.103 L 687.747 1432.414 L 689.519 1435.724 L 691.291 1439.034 L 693.062 1442.345 L 694.834 1445.655 L 696.605 1448.966 L 698.377 1452.276 L 700.148 1456.69 L 701.92 1461.103 L 703.691 1465.517 L 705.463 1468.828 L 707.234 1474.345 L 709.006 1478.759 L 710.778 1483.172 L 712.549 1487.586 L 714.321 1493.103 L 716.092 1498.621 L 717.864 1503.034 L 719.635 1508.552 L 721.407 1514.069 L 723.178 1519.586 L 724.95 1524 L 726.721 1529.517 L 728.493 1535.034 L 730.265 1541.655 L 732.036 1547.172 L 733.808 1551.586 L 735.579 1558.207 L 737.351 1563.724 L 739.122 1569.241 L 740.894 1574.759 L 742.665 1569.241 L 744.437 1562.621 L 746.208 1557.103 L 747.98 1551.586 L 749.752 1546.069 L 751.523 1540.552 L 753.295 1533.931 L 755.066 1529.517 L 756.838 1524 L 758.609 1518.483 L 760.381 1512.966 L 762.152 1507.448 L 763.924 1503.034 L 765.695 1498.621 L 767.467 1492 L 769.238 1487.586 L 771.01 1483.172 L 772.782 1477.655 L 774.553 1473.241 L 776.325 1469.931 L 778.096 1465.517 L 779.868 1461.103 L 781.639 1456.69 L 783.411 1452.276 L 785.182 1448.966 L 786.954 1444.552 L 788.725 1442.345 L 790.497 1439.034 L 792.269 1435.724 L 794.04 1432.414 L 795.812 1429.103 L 797.583 1426.897 L 799.355 1423.586 L 801.126 1422.483 L 802.898 1420.276 L 804.669 1418.069 L 806.441 1415.862 L 808.212 1414.759 L 809.984 1413.655 L 811.756 1412.552 L 813.527 1411.448 L 815.299 1410.345 L 817.07 1409.241 L 818.842 1409.241 L 820.613 1409.241 L 822.385 1409.241 L 824.156 1409.241 L 825.928 1410.345 L 827.699 1410.345 L 829.471 1410.345 L 831.242 1412.552 L 833.014 1412.552 L 834.786 1414.759 L 836.557 1415.862 L 838.329 1418.069 L 840.1 1419.172 L 841.872 1421.379 L 843.643 1424.69 L 845.415 1426.897 L 847.186 1430.207 L 848.958 1432.414 L 850.729 1435.724 L 852.501 1439.034 L 854.273 1442.345 L 856.044 1445.655 L 857.816 1448.966 L 859.587 1453.379 L 861.359 1456.69 L 863.13 1461.103 L 864.902 1464.414 L 866.673 1469.931 L 868.445 1473.241 L 870.216 1478.759 L 871.988 1483.172 L 873.76 1487.586 L 875.531 1492 L 877.303 1497.517 L 879.074 1503.034 L 880.846 1507.448 L 882.617 1514.069 L 884.389 1518.483 L 886.16 1522.897 L 887.932 1528.414 L 889.703 1535.034 L 891.475 1540.552 L 893.246 1546.069 L 895.018 1551.586 L 896.79 1557.103 L 898.561 1563.724 L 900.333 1568.138 L 902.104 1574.759 L 903.876 1569.241 L 905.647 1563.724 L 907.419 1558.207 L 909.19 1552.69 L 910.962 1546.069 L 912.733 1540.552 L 914.505 1535.034 L 916.277 1530.621 L 918.048 1524 L 919.82 1519.586 L 921.591 1514.069 L 923.363 1508.552 L 925.134 1503.034 L 926.906 1498.621 L 928.677 1493.103 L 930.449 1488.69 L 932.22 1483.172 L 933.992 1478.759 L 935.764 1474.345 L 937.535 1469.931 L 939.307 1465.517 L 941.078 1461.103 L 942.85 1457.793 L 944.621 1453.379 L 946.393 1448.966 L 948.164 1445.655 L 949.936 1442.345 L 951.707 1439.034 L 953.479 1435.724 L 955.251 1432.414 L 957.022 1429.103 L 958.794 1426.897 L 960.565 1424.69 L 962.337 1422.483 L 964.108 1420.276 L 965.88 1418.069 L 967.651 1416.966 L 969.423 1414.759 L 971.194 1413.655 L 972.966 1412.552 L 974.737 1411.448 L 976.509 1410.345 L 978.281 1410.345 L 980.052 1409.241 L 981.824 1409.241 L 983.595 1409.241 L 985.367 1409.241 L 987.138 1410.345 L 988.91 1410.345 L 990.681 1410.345 L 992.453 1412.552 L 994.224 1412.552 L 995.996 1414.759 L 997.768 1416.966 L 999.539 1418.069 L 1001.311 1420.276 L 1003.082 1422.483 L 1004.854 1423.586 L 1006.625 1425.793 L 1008.397 1429.103 L 1010.168 1431.31 L 1011.94 1434.621 L 1013.711 1437.931 L 1015.483 1442.345 L 1017.255 1444.552 L 1019.026 1448.966 L 1020.798 1452.276 L 1022.569 1455.586 L 1024.341 1460 L 1026.112 1464.414 L 1027.884 1468.828 L 1029.655 1473.241 L 1031.427 1477.655 L 1033.198 1483.172 L 1034.97 1486.483 L 1036.741 1492 L 1038.513 1496.414 L 1040.285 1501.931 L 1042.056 1507.448 L 1043.828 1511.862 L 1045.599 1517.379 L 1047.371 1524 L 1049.142 1528.414 L 1050.914 1533.931 L 1052.685 1540.552 L 1054.457 1546.069 L 1056.228 1550.483 L 1058 1557.103" fill="none" stroke="#ffd166" stroke-width="4" stroke-linejoin="round" stroke-linecap="round"/>
<line x1="196" y1="1382" x2="230" y2="1382" stroke="#ffd166" stroke-width="5" stroke-linecap="round"/>
<text x="242" y="1388" class="legend">spread</text>
<text x="1046" y="1618" text-anchor="end" class="tiny">USDT</text>
<line x1="174" y1="1588" x2="174" y2="1596" stroke="#2f4b62" stroke-width="2"/>
<text x="174" y="1618" text-anchor="middle" class="tick">00:00:05</text>
<line x1="395" y1="1588" x2="395" y2="1596" stroke="#2f4b62" stroke-width="2"/>
<text x="395" y="1618" text-anchor="middle" class="tick">00:00:06</text>
<line x1="616" y1="1588" x2="616" y2="1596" stroke="#2f4b62" stroke-width="2"/>
<text x="616" y="1618" text-anchor="middle" class="tick">00:00:07</text>
<line x1="837" y1="1588" x2="837" y2="1596" stroke="#2f4b62" stroke-width="2"/>
<text x="837" y="1618" text-anchor="middle" class="tick">00:00:08</text>
<line x1="1058" y1="1588" x2="1058" y2="1596" stroke="#2f4b62" stroke-width="2"/>
<text x="1058" y="1618" text-anchor="middle" class="tick">00:00:09</text>

  <rect x="1118" y="1284" width="932" height="350" rx="26" class="panel" filter="url(#shadow)"/>
  <text x="1154" y="1330" class="panel-title">Order-Flow Imbalance</text>
  <text x="1154" y="1360" class="panel-subtitle">Book imbalance and trade imbalance on the configured rolling window.</text>
  <rect x="1142" y="1396" width="884" height="192" rx="12" fill="#0b1627" stroke="#263c56" stroke-width="2"/>
<line x1="1142" y1="1444" x2="2026" y2="1444" class="grid"/>
<line x1="1142" y1="1492" x2="2026" y2="1492" class="grid"/>
<line x1="1142" y1="1540" x2="2026" y2="1540" class="grid"/>
<line x1="1289.333" y1="1396" x2="1289.333" y2="1588" class="grid"/>
<line x1="1436.667" y1="1396" x2="1436.667" y2="1588" class="grid"/>
<line x1="1584" y1="1396" x2="1584" y2="1588" class="grid"/>
<line x1="1731.333" y1="1396" x2="1731.333" y2="1588" class="grid"/>
<line x1="1878.667" y1="1396" x2="1878.667" y2="1588" class="grid"/>
<line x1="1142" y1="1588" x2="2026" y2="1588" class="axis"/>
<line x1="1142" y1="1396" x2="1142" y2="1588" class="axis"/>
<text x="1128" y="1401" text-anchor="end" class="tick">0.781</text>
<text x="1128" y="1449" text-anchor="end" class="tick">0.46</text>
<text x="1128" y="1497" text-anchor="end" class="tick">0.139</text>
<text x="1128" y="1545" text-anchor="end" class="tick">-0.182</text>
<text x="1128" y="1593" text-anchor="end" class="tick">-0.502</text>
<line x1="1142" y1="1512.849" x2="2026" y2="1512.849" stroke="#b6c2d1" stroke-width="2" opacity="0.5"/>
<path d="M 1142 1504.595 L 1143.772 1505.725 L 1145.543 1500.481 L 1147.315 1501.83 L 1149.086 1507.251 L 1150.858 1502.469 L 1152.629 1503.27 L 1154.401 1504.863 L 1156.172 1509.208 L 1157.944 1504.423 L 1159.715 1506.82 L 1161.487 1509.358 L 1163.259 1510.371 L 1165.03 1511.484 L 1166.802 1507.17 L 1168.573 1515.199 L 1170.345 1505.76 L 1172.116 1512.544 L 1173.888 1514.796 L 1175.659 1511.731 L 1177.431 1515.846 L 1179.202 1506.446 L 1180.974 1507.675 L 1182.745 1511.885 L 1184.517 1511.499 L 1186.289 1510.274 L 1188.06 1517.12 L 1189.832 1515.906 L 1191.603 1518.201 L 1193.375 1519.945 L 1195.146 1516.963 L 1196.918 1523.776 L 1198.689 1520.318 L 1200.461 1522.03 L 1202.232 1518.063 L 1204.004 1527.02 L 1205.776 1524.286 L 1207.547 1523.646 L 1209.319 1522.791 L 1211.09 1526.644 L 1212.862 1528.587 L 1214.633 1528.349 L 1216.405 1520.894 L 1218.176 1527.079 L 1219.948 1520.75 L 1221.719 1520.589 L 1223.491 1527.365 L 1225.263 1529.659 L 1227.034 1524.612 L 1228.806 1525.942 L 1230.577 1527.037 L 1232.349 1518.575 L 1234.12 1522.499 L 1235.892 1521.917 L 1237.663 1524.917 L 1239.435 1519.09 L 1241.206 1518.922 L 1242.978 1521.971 L 1244.749 1518.061 L 1246.521 1518.032 L 1248.293 1517.693 L 1250.064 1517.477 L 1251.836 1523.278 L 1253.607 1518.198 L 1255.379 1512.203 L 1257.15 1512.906 L 1258.922 1515.308 L 1260.693 1509.111 L 1262.465 1516.471 L 1264.236 1514.837 L 1266.008 1504.824 L 1267.78 1501.418 L 1269.551 1510.174 L 1271.323 1506.958 L 1273.094 1507.661 L 1274.866 1504.41 L 1276.637 1504.767 L 1278.409 1505.467 L 1280.18 1504.528 L 1281.952 1503.426 L 1283.723 1500.401 L 1285.495 1494.432 L 1287.267 1497.987 L 1289.038 1496.409 L 1290.81 1500.418 L 1292.581 1492.783 L 1294.353 1503.562 L 1296.124 1497.482 L 1297.896 1500.104 L 1299.667 1502.177 L 1301.439 1496.577 L 1303.21 1500.513 L 1304.982 1499.155 L 1306.754 1501.367 L 1308.525 1495.617 L 1310.297 1503.678 L 1312.068 1500.25 L 1313.84 1504.054 L 1315.611 1499.091 L 1317.383 1501.466 L 1319.154 1500.557 L 1320.926 1499.215 L 1322.697 1506.839 L 1324.469 1504.017 L 1326.24 1501.792 L 1328.012 1507.769 L 1329.784 1507.077 L 1331.555 1509.926 L 1333.327 1500.925 L 1335.098 1507.257 L 1336.87 1510.526 L 1338.641 1513.296 L 1340.413 1509.602 L 1342.184 1512.926 L 1343.956 1512.875 L 1345.727 1514.544 L 1347.499 1516.341 L 1349.271 1511.492 L 1351.042 1520.582 L 1352.814 1523.01 L 1354.585 1520.189 L 1356.357 1522.096 L 1358.128 1519.672 L 1359.9 1521.176 L 1361.671 1517.901 L 1363.443 1527.731 L 1365.214 1528.879 L 1366.986 1520.035 L 1368.758 1523.14 L 1370.529 1524.928 L 1372.301 1525.59 L 1374.072 1526.697 L 1375.844 1525.818 L 1377.615 1528.857 L 1379.387 1528.435 L 1381.158 1523.785 L 1382.93 1527.7 L 1384.701 1528.151 L 1386.473 1529.037 L 1388.244 1524.844 L 1390.016 1525.462 L 1391.788 1520.715 L 1393.559 1529.726 L 1395.331 1528.7 L 1397.102 1523.565 L 1398.874 1517.658 L 1400.645 1523.919 L 1402.417 1516.431 L 1404.188 1522.802 L 1405.96 1521.65 L 1407.731 1513.966 L 1409.503 1515.481 L 1411.275 1511.917 L 1413.046 1516.937 L 1414.818 1511.693 L 1416.589 1518.878 L 1418.361 1516.289 L 1420.132 1514.581 L 1421.904 1511.25 L 1423.675 1509.434 L 1425.447 1513.628 L 1427.218 1508.791 L 1428.99 1514.042 L 1430.762 1508.219 L 1432.533 1508.792 L 1434.305 1508.415 L 1436.076 1506.664 L 1437.848 1511.477 L 1439.619 1508.251 L 1441.391 1510.158 L 1443.162 1507.33 L 1444.934 1508.286 L 1446.705 1504.244 L 1448.477 1507.244 L 1450.248 1501.124 L 1452.02 1502.97 L 1453.792 1507.492 L 1455.563 1501.881 L 1457.335 1505.42 L 1459.106 1504.503 L 1460.878 1503.637 L 1462.649 1499.522 L 1464.421 1502.172 L 1466.192 1499.549 L 1467.964 1499.724 L 1469.735 1497.36 L 1471.507 1496.353 L 1473.279 1498.789 L 1475.05 1498.146 L 1476.822 1505.073 L 1478.593 1501.733 L 1480.365 1498.381 L 1482.136 1504.646 L 1483.908 1503.4 L 1485.679 1508.829 L 1487.451 1505.09 L 1489.222 1505.997 L 1490.994 1504.221 L 1492.766 1504.209 L 1494.537 1510.89 L 1496.309 1503.519 L 1498.08 1511.963 L 1499.852 1515.749 L 1501.623 1513.362 L 1503.395 1512.73 L 1505.166 1515.6 L 1506.938 1514.351 L 1508.709 1508.13 L 1510.481 1505.519 L 1512.253 1513.215 L 1514.024 1511.264 L 1515.796 1514.456 L 1517.567 1517.718 L 1519.339 1517.468 L 1521.11 1513.753 L 1522.882 1514.638 L 1524.653 1517.436 L 1526.425 1516.034 L 1528.196 1518.889 L 1529.968 1524.244 L 1531.739 1522.694 L 1533.511 1521.448 L 1535.283 1521.55 L 1537.054 1521.866 L 1538.826 1518.149 L 1540.597 1515.237 L 1542.369 1523.191 L 1544.14 1522.065 L 1545.912 1518.104 L 1547.683 1517.945 L 1549.455 1522.181 L 1551.226 1516.148 L 1552.998 1517.161 L 1554.77 1519.245 L 1556.541 1518.313 L 1558.313 1520.964 L 1560.084 1521.379 L 1561.856 1517.431 L 1563.627 1519.479 L 1565.399 1516.681 L 1567.17 1519.248 L 1568.942 1514.156 L 1570.713 1517.488 L 1572.485 1512.209 L 1574.257 1512.467 L 1576.028 1511.471 L 1577.8 1511.759 L 1579.571 1509.567 L 1581.343 1515.136 L 1583.114 1510.989 L 1584.886 1515.199 L 1586.657 1515.142 L 1588.429 1515.291 L 1590.2 1516.373 L 1591.972 1517.091 L 1593.743 1507.707 L 1595.515 1512.866 L 1597.287 1514.858 L 1599.058 1509.203 L 1600.83 1508.944 L 1602.601 1514.488 L 1604.373 1509.886 L 1606.144 1509.161 L 1607.916 1509.71 L 1609.687 1509.487 L 1611.459 1514.307 L 1613.23 1517.033 L 1615.002 1515.494 L 1616.774 1514.015 L 1618.545 1511.43 L 1620.317 1512.591 L 1622.088 1507.71 L 1623.86 1513.792 L 1625.631 1519.077 L 1627.403 1512.961 L 1629.174 1518.475 L 1630.946 1514.997 L 1632.717 1511.105 L 1634.489 1515.349 L 1636.261 1506.407 L 1638.032 1505.345 L 1639.804 1512.467 L 1641.575 1510.283 L 1643.347 1508.452 L 1645.118 1508.771 L 1646.89 1510.469 L 1648.661 1512.642 L 1650.433 1515.939 L 1652.204 1512.615 L 1653.976 1513.301 L 1655.747 1517.384 L 1657.519 1510.576 L 1659.291 1519.444 L 1661.062 1506.903 L 1662.834 1510.541 L 1664.605 1517.067 L 1666.377 1519.993 L 1668.148 1514.721 L 1669.92 1509.339 L 1671.691 1516.313 L 1673.463 1511.694 L 1675.234 1509.327 L 1677.006 1513.028 L 1678.778 1508.188 L 1680.549 1512.535 L 1682.321 1504.649 L 1684.092 1511.549 L 1685.864 1511.127 L 1687.635 1513.81 L 1689.407 1510.221 L 1691.178 1508.994 L 1692.95 1511.268 L 1694.721 1510.479 L 1696.493 1506.081 L 1698.265 1510.163 L 1700.036 1508.178 L 1701.808 1506.501 L 1703.579 1515.224 L 1705.351 1508.25 L 1707.122 1507.135 L 1708.894 1507.063 L 1710.665 1507.173 L 1712.437 1506.911 L 1714.208 1504.013 L 1715.98 1503.615 L 1717.752 1505.626 L 1719.523 1510.207 L 1721.295 1512.292 L 1723.066 1505.651 L 1724.838 1505.555 L 1726.609 1509.717 L 1728.381 1504.365 L 1730.152 1505.99 L 1731.924 1502.915 L 1733.695 1513.503 L 1735.467 1505.607 L 1737.238 1508.465 L 1739.01 1506.336 L 1740.782 1509.697 L 1742.553 1514.609 L 1744.325 1511.961 L 1746.096 1510.434 L 1747.868 1513.37 L 1749.639 1510.366 L 1751.411 1512.769 L 1753.182 1511.793 L 1754.954 1518.149 L 1756.725 1507.027 L 1758.497 1517.784 L 1760.269 1507.4 L 1762.04 1513.833 L 1763.812 1515.879 L 1765.583 1515.614 L 1767.355 1517.783 L 1769.126 1515.566 L 1770.898 1517.543 L 1772.669 1520.085 L 1774.441 1516.984 L 1776.212 1522.764 L 1777.984 1520.264 L 1779.756 1525.766 L 1781.527 1518.799 L 1783.299 1524.531 L 1785.07 1521.943 L 1786.842 1522.287 L 1788.613 1522.807 L 1790.385 1524.557 L 1792.156 1521.272 L 1793.928 1522.829 L 1795.699 1524.217 L 1797.471 1528.959 L 1799.242 1516.966 L 1801.014 1521.545 L 1802.786 1523.022 L 1804.557 1519.531 L 1806.329 1519.437 L 1808.1 1522.716 L 1809.872 1521.611 L 1811.643 1520.67 L 1813.415 1520.302 L 1815.186 1519.757 L 1816.958 1517.378 L 1818.729 1527.685 L 1820.501 1512.788 L 1822.273 1522.896 L 1824.044 1514.945 L 1825.816 1519.089 L 1827.587 1512.445 L 1829.359 1516.694 L 1831.13 1512.608 L 1832.902 1511.694 L 1834.673 1513.873 L 1836.445 1513.381 L 1838.216 1508.665 L 1839.988 1513.985 L 1841.76 1502.943 L 1843.531 1515.301 L 1845.303 1506.144 L 1847.074 1513.553 L 1848.846 1505.123 L 1850.617 1510.331 L 1852.389 1501.928 L 1854.16 1509.488 L 1855.932 1504.102 L 1857.703 1498.022 L 1859.475 1503.102 L 1861.246 1502.113 L 1863.018 1501.313 L 1864.79 1499.865 L 1866.561 1504.374 L 1868.333 1501.324 L 1870.104 1500.451 L 1871.876 1493.791 L 1873.647 1503.901 L 1875.419 1495.441 L 1877.19 1500.692 L 1878.962 1500.006 L 1880.733 1501.3 L 1882.505 1493.974 L 1884.277 1501.248 L 1886.048 1500.62 L 1887.82 1501.77 L 1889.591 1501.062 L 1891.363 1498.228 L 1893.134 1504.822 L 1894.906 1510.094 L 1896.677 1508.413 L 1898.449 1501.322 L 1900.22 1501.71 L 1901.992 1503.478 L 1903.764 1502.245 L 1905.535 1507.27 L 1907.307 1506.658 L 1909.078 1510.318 L 1910.85 1509.347 L 1912.621 1508.706 L 1914.393 1512.807 L 1916.164 1514.692 L 1917.936 1519.439 L 1919.707 1513.651 L 1921.479 1514.169 L 1923.251 1520.052 L 1925.022 1516.979 L 1926.794 1523.453 L 1928.565 1519.665 L 1930.337 1519.724 L 1932.108 1517.21 L 1933.88 1519.288 L 1935.651 1526.561 L 1937.423 1522.99 L 1939.194 1528.937 L 1940.966 1530.347 L 1942.737 1524.814 L 1944.509 1523.136 L 1946.281 1523.231 L 1948.052 1527.195 L 1949.824 1526.958 L 1951.595 1526.504 L 1953.367 1529.922 L 1955.138 1524.326 L 1956.91 1525.918 L 1958.681 1528.196 L 1960.453 1525.427 L 1962.224 1522.003 L 1963.996 1528.391 L 1965.768 1525.67 L 1967.539 1530.825 L 1969.311 1521.602 L 1971.082 1531.665 L 1972.854 1528.06 L 1974.625 1520.794 L 1976.397 1523.97 L 1978.168 1526.949 L 1979.94 1519.055 L 1981.711 1522.677 L 1983.483 1525.154 L 1985.255 1520.773 L 1987.026 1524.529 L 1988.798 1514.604 L 1990.569 1519.431 L 1992.341 1512.325 L 1994.112 1519.416 L 1995.884 1506.488 L 1997.655 1513.709 L 1999.427 1507.96 L 2001.198 1510.421 L 2002.97 1510.692 L 2004.741 1507.61 L 2006.513 1509.939 L 2008.285 1508.239 L 2010.056 1508.136 L 2011.828 1505.441 L 2013.599 1505.649 L 2015.371 1509.142 L 2017.142 1502.118 L 2018.914 1506.868 L 2020.685 1502.562 L 2022.457 1502.739 L 2024.228 1505.605 L 2026 1501.644" fill="none" stroke="#7cc7ff" stroke-width="4" stroke-linejoin="round" stroke-linecap="round"/>
<path d="M 1142 1422.083 L 1143.772 1420.036 L 1145.543 1419.626 L 1147.315 1419.369 L 1149.086 1418.623 L 1150.858 1419.088 L 1152.629 1417.185 L 1154.401 1416.965 L 1156.172 1416.9 L 1157.944 1416.655 L 1159.715 1418.284 L 1161.487 1414.813 L 1163.259 1414.49 L 1165.03 1413.589 L 1166.802 1413.773 L 1168.573 1416.483 L 1170.345 1413.755 L 1172.116 1413.389 L 1173.888 1413 L 1175.659 1412.094 L 1177.431 1414.405 L 1179.202 1413.518 L 1180.974 1413.158 L 1182.745 1412.477 L 1184.517 1412.512 L 1186.289 1416.755 L 1188.06 1414.753 L 1189.832 1414.464 L 1191.603 1414.098 L 1193.375 1413.983 L 1195.146 1414.839 L 1196.918 1412.033 L 1198.689 1411.365 L 1200.461 1411.162 L 1202.232 1410.935 L 1204.004 1411.353 L 1205.776 1409.766 L 1207.547 1409.241 L 1209.319 1409.489 L 1211.09 1409.612 L 1212.862 1413.513 L 1214.633 1412.345 L 1216.405 1412.117 L 1218.176 1412.763 L 1219.948 1413.118 L 1221.719 1415.877 L 1223.491 1411.327 L 1225.263 1412.058 L 1227.034 1411.395 L 1228.806 1411.6 L 1230.577 1416.922 L 1232.349 1416.494 L 1234.12 1417.255 L 1235.892 1421.87 L 1237.663 1424.653 L 1239.435 1424.591 L 1241.206 1426.958 L 1242.978 1430.302 L 1244.749 1430.508 L 1246.521 1432.435 L 1248.293 1434.006 L 1250.064 1431.939 L 1251.836 1436.524 L 1253.607 1438.95 L 1255.379 1438.442 L 1257.15 1439.068 L 1258.922 1439.108 L 1260.693 1439.498 L 1262.465 1441.229 L 1264.236 1442.089 L 1266.008 1442.265 L 1267.78 1442.584 L 1269.551 1446.408 L 1271.323 1446.819 L 1273.094 1447.899 L 1274.866 1451.064 L 1276.637 1449.07 L 1278.409 1453.083 L 1280.18 1454.847 L 1281.952 1453.475 L 1283.723 1453.967 L 1285.495 1451.281 L 1287.267 1452.587 L 1289.038 1454.918 L 1290.81 1458.195 L 1292.581 1459.28 L 1294.353 1459.716 L 1296.124 1461.719 L 1297.896 1461.651 L 1299.667 1462.61 L 1301.439 1463.792 L 1303.21 1460.923 L 1304.982 1462.89 L 1306.754 1465.384 L 1308.525 1466.218 L 1310.297 1468.703 L 1312.068 1466.97 L 1313.84 1468.146 L 1315.611 1471.262 L 1317.383 1473.098 L 1319.154 1474.839 L 1320.926 1473.635 L 1322.697 1477.601 L 1324.469 1479.006 L 1326.24 1482.548 L 1328.012 1485.922 L 1329.784 1484.713 L 1331.555 1486.918 L 1333.327 1489.19 L 1335.098 1488.73 L 1336.87 1490.319 L 1338.641 1489.982 L 1340.413 1491.631 L 1342.184 1494.839 L 1343.956 1498.701 L 1345.727 1498.558 L 1347.499 1498.063 L 1349.271 1500.362 L 1351.042 1501.519 L 1352.814 1504.709 L 1354.585 1508.609 L 1356.357 1505.847 L 1358.128 1508.6 L 1359.9 1511.266 L 1361.671 1513.447 L 1363.443 1515.566 L 1365.214 1512.725 L 1366.986 1513.371 L 1368.758 1515.528 L 1370.529 1518.874 L 1372.301 1518.335 L 1374.072 1518.448 L 1375.844 1521.722 L 1377.615 1524.892 L 1379.387 1528.662 L 1381.158 1531.881 L 1382.93 1529.531 L 1384.701 1532.483 L 1386.473 1536.663 L 1388.244 1536.697 L 1390.016 1538.351 L 1391.788 1537.335 L 1393.559 1538.621 L 1395.331 1542.319 L 1397.102 1544.543 L 1398.874 1546.62 L 1400.645 1546.103 L 1402.417 1549.312 L 1404.188 1549.283 L 1405.96 1554.336 L 1407.731 1556.839 L 1409.503 1551.451 L 1411.275 1549.457 L 1413.046 1553.099 L 1414.818 1549.197 L 1416.589 1547.616 L 1418.361 1552.986 L 1420.132 1547.834 L 1421.904 1546.624 L 1423.675 1550.228 L 1425.447 1548.258 L 1427.218 1548.311 L 1428.99 1550.27 L 1430.762 1546.183 L 1432.533 1545.273 L 1434.305 1553.243 L 1436.076 1551.575 L 1437.848 1551.84 L 1439.619 1556.677 L 1441.391 1553.227 L 1443.162 1553.753 L 1444.934 1557.144 L 1446.705 1555.105 L 1448.477 1553.641 L 1450.248 1555.208 L 1452.02 1553.932 L 1453.792 1553.01 L 1455.563 1560.096 L 1457.335 1557.08 L 1459.106 1556.751 L 1460.878 1565.822 L 1462.649 1564.116 L 1464.421 1562.723 L 1466.192 1565.197 L 1467.964 1563.253 L 1469.735 1563.107 L 1471.507 1563.726 L 1473.279 1559.721 L 1475.05 1559.708 L 1476.822 1562.545 L 1478.593 1558.835 L 1480.365 1559.317 L 1482.136 1561.848 L 1483.908 1559.906 L 1485.679 1559.837 L 1487.451 1564.991 L 1489.222 1562.468 L 1490.994 1562.592 L 1492.766 1566.499 L 1494.537 1563.772 L 1496.309 1563.961 L 1498.08 1566.978 L 1499.852 1561.646 L 1501.623 1561.474 L 1503.395 1565.054 L 1505.166 1561.818 L 1506.938 1561.215 L 1508.709 1564.964 L 1510.481 1559.545 L 1512.253 1560.509 L 1514.024 1565.174 L 1515.796 1563.238 L 1517.567 1564.304 L 1519.339 1567.38 L 1521.11 1565.161 L 1522.882 1565.912 L 1524.653 1569.974 L 1526.425 1567.602 L 1528.196 1568.468 L 1529.968 1569.863 L 1531.739 1565.381 L 1533.511 1566.218 L 1535.283 1569.556 L 1537.054 1566.347 L 1538.826 1566.113 L 1540.597 1569.184 L 1542.369 1565.708 L 1544.14 1566.863 L 1545.912 1570.271 L 1547.683 1567.725 L 1549.455 1567.937 L 1551.226 1571.444 L 1552.998 1570.527 L 1554.77 1569.556 L 1556.541 1569.881 L 1558.313 1565.869 L 1560.084 1565.715 L 1561.856 1569.457 L 1563.627 1566.247 L 1565.399 1567.097 L 1567.17 1569.602 L 1568.942 1565.792 L 1570.713 1564.22 L 1572.485 1568.501 L 1574.257 1566.389 L 1576.028 1566.648 L 1577.8 1569.375 L 1579.571 1565.392 L 1581.343 1564.822 L 1583.114 1567.653 L 1584.886 1564.108 L 1586.657 1564.996 L 1588.429 1568.844 L 1590.2 1564.831 L 1591.972 1563.287 L 1593.743 1564.565 L 1595.515 1560.79 L 1597.287 1560.924 L 1599.058 1564.836 L 1600.83 1562.937 L 1602.601 1562.592 L 1604.373 1565.721 L 1606.144 1562.068 L 1607.916 1562.663 L 1609.687 1563.822 L 1611.459 1561.614 L 1613.23 1560.779 L 1615.002 1563.289 L 1616.774 1559.614 L 1618.545 1558.3 L 1620.317 1561.058 L 1622.088 1558.161 L 1623.86 1558.546 L 1625.631 1561.036 L 1627.403 1555.826 L 1629.174 1556.515 L 1630.946 1558.044 L 1632.717 1556.474 L 1634.489 1556.865 L 1636.261 1558.368 L 1638.032 1556.551 L 1639.804 1557.038 L 1641.575 1560.047 L 1643.347 1558.637 L 1645.118 1558.631 L 1646.89 1560.966 L 1648.661 1557.053 L 1650.433 1557.234 L 1652.204 1560.526 L 1653.976 1556.81 L 1655.747 1558.18 L 1657.519 1561.586 L 1659.291 1558.75 L 1661.062 1559.055 L 1662.834 1561.821 L 1664.605 1558.928 L 1666.377 1558.823 L 1668.148 1560.418 L 1669.92 1555.432 L 1671.691 1554.808 L 1673.463 1556.884 L 1675.234 1553.321 L 1677.006 1553.541 L 1678.778 1557.051 L 1680.549 1554.154 L 1682.321 1554.248 L 1684.092 1557.094 L 1685.864 1556.213 L 1687.635 1555.261 L 1689.407 1559.572 L 1691.178 1556.78 L 1692.95 1556.799 L 1694.721 1558.779 L 1696.493 1557.102 L 1698.265 1557.886 L 1700.036 1560.018 L 1701.808 1558.337 L 1703.579 1557.909 L 1705.351 1559.78 L 1707.122 1558.279 L 1708.894 1559.71 L 1710.665 1563.268 L 1712.437 1559.82 L 1714.208 1560.229 L 1715.98 1562.283 L 1717.752 1561.191 L 1719.523 1561.17 L 1721.295 1565.296 L 1723.066 1562.123 L 1724.838 1561.417 L 1726.609 1565.077 L 1728.381 1563.246 L 1730.152 1563.19 L 1731.924 1563.785 L 1733.695 1561.201 L 1735.467 1562.282 L 1737.238 1566.029 L 1739.01 1561.605 L 1740.782 1562.721 L 1742.553 1565.702 L 1744.325 1563.441 L 1746.096 1563.459 L 1747.868 1567.802 L 1749.639 1565.671 L 1751.411 1566.455 L 1753.182 1568.529 L 1754.954 1565.88 L 1756.725 1565.852 L 1758.497 1569.347 L 1760.269 1566.282 L 1762.04 1566.057 L 1763.812 1570.539 L 1765.583 1567.707 L 1767.355 1567.794 L 1769.126 1572.111 L 1770.898 1570.626 L 1772.669 1570.552 L 1774.441 1574.759 L 1776.212 1570.013 L 1777.984 1569.763 L 1779.756 1571.697 L 1781.527 1567.644 L 1783.299 1567.08 L 1785.07 1570.044 L 1786.842 1564.81 L 1788.613 1565.576 L 1790.385 1567.704 L 1792.156 1564.623 L 1793.928 1564.637 L 1795.699 1567.426 L 1797.471 1563.503 L 1799.242 1563.652 L 1801.014 1566.124 L 1802.786 1562.199 L 1804.557 1561.981 L 1806.329 1566.612 L 1808.1 1561.71 L 1809.872 1562.566 L 1811.643 1565.174 L 1813.415 1561.387 L 1815.186 1562.104 L 1816.958 1564.505 L 1818.729 1561.571 L 1820.501 1561.51 L 1822.273 1563.297 L 1824.044 1558.926 L 1825.816 1558.036 L 1827.587 1561.795 L 1829.359 1558.456 L 1831.13 1558.668 L 1832.902 1562.414 L 1834.673 1558.586 L 1836.445 1558.19 L 1838.216 1561.125 L 1839.988 1559.483 L 1841.76 1558.678 L 1843.531 1561.658 L 1845.303 1559.325 L 1847.074 1560.119 L 1848.846 1564.653 L 1850.617 1560.998 L 1852.389 1561.598 L 1854.16 1566.938 L 1855.932 1563.911 L 1857.703 1564.254 L 1859.475 1567.82 L 1861.246 1565.769 L 1863.018 1565.377 L 1864.79 1566.219 L 1866.561 1564.255 L 1868.333 1563.697 L 1870.104 1566.652 L 1871.876 1562.343 L 1873.647 1562.929 L 1875.419 1564.574 L 1877.19 1561.254 L 1878.962 1560.889 L 1880.733 1561.852 L 1882.505 1559.018 L 1884.277 1558.339 L 1886.048 1559.417 L 1887.82 1555.982 L 1889.591 1556.078 L 1891.363 1559.898 L 1893.134 1554.921 L 1894.906 1555.721 L 1896.677 1557.5 L 1898.449 1554.83 L 1900.22 1553.893 L 1901.992 1556.39 L 1903.764 1553.859 L 1905.535 1552.357 L 1907.307 1553.458 L 1909.078 1549.714 L 1910.85 1549.904 L 1912.621 1553.954 L 1914.393 1550.836 L 1916.164 1551.245 L 1917.936 1554.578 L 1919.707 1550.981 L 1921.479 1550.9 L 1923.251 1552.396 L 1925.022 1550.231 L 1926.794 1550.114 L 1928.565 1552.465 L 1930.337 1547.557 L 1932.108 1547.354 L 1933.88 1548.994 L 1935.651 1545.059 L 1937.423 1545.645 L 1939.194 1549.826 L 1940.966 1545.951 L 1942.737 1544.688 L 1944.509 1547.009 L 1946.281 1543.96 L 1948.052 1544.597 L 1949.824 1547.385 L 1951.595 1544.669 L 1953.367 1544.366 L 1955.138 1548.642 L 1956.91 1546.577 L 1958.681 1547.664 L 1960.453 1552.181 L 1962.224 1548.84 L 1963.996 1548.595 L 1965.768 1552.136 L 1967.539 1550.015 L 1969.311 1550.877 L 1971.082 1554.773 L 1972.854 1551.393 L 1974.625 1552.473 L 1976.397 1556.888 L 1978.168 1555.275 L 1979.94 1555.754 L 1981.711 1559.495 L 1983.483 1555.576 L 1985.255 1556.28 L 1987.026 1560.299 L 1988.798 1557.067 L 1990.569 1556.761 L 1992.341 1561.084 L 1994.112 1558.015 L 1995.884 1557.968 L 1997.655 1560.977 L 1999.427 1556.591 L 2001.198 1557.477 L 2002.97 1561.31 L 2004.741 1557.675 L 2006.513 1556.959 L 2008.285 1560.059 L 2010.056 1556.167 L 2011.828 1557.126 L 2013.599 1559.811 L 2015.371 1557.157 L 2017.142 1556.674 L 2018.914 1558.487 L 2020.685 1554.981 L 2022.457 1554.477 L 2024.228 1556.263 L 2026 1553.862" fill="none" stroke="#ff9f43" stroke-width="4" stroke-linejoin="round" stroke-linecap="round"/>
<line x1="1164" y1="1382" x2="1198" y2="1382" stroke="#7cc7ff" stroke-width="5" stroke-linecap="round"/>
<text x="1210" y="1388" class="legend">book OFI</text>
<line x1="1350" y1="1382" x2="1384" y2="1382" stroke="#ff9f43" stroke-width="5" stroke-linecap="round"/>
<text x="1396" y="1388" class="legend">trade imbalance</text>
<text x="2014" y="1618" text-anchor="end" class="tiny">ratio</text>
<line x1="1142" y1="1588" x2="1142" y2="1596" stroke="#2f4b62" stroke-width="2"/>
<text x="1142" y="1618" text-anchor="middle" class="tick">00:00:05</text>
<line x1="1363" y1="1588" x2="1363" y2="1596" stroke="#2f4b62" stroke-width="2"/>
<text x="1363" y="1618" text-anchor="middle" class="tick">00:00:06</text>
<line x1="1584" y1="1588" x2="1584" y2="1596" stroke="#2f4b62" stroke-width="2"/>
<text x="1584" y="1618" text-anchor="middle" class="tick">00:00:07</text>
<line x1="1805" y1="1588" x2="1805" y2="1596" stroke="#2f4b62" stroke-width="2"/>
<text x="1805" y="1618" text-anchor="middle" class="tick">00:00:08</text>
<line x1="2026" y1="1588" x2="2026" y2="1596" stroke="#2f4b62" stroke-width="2"/>
<text x="2026" y="1618" text-anchor="middle" class="tick">00:00:09</text>

  <rect x="150" y="1676" width="1900" height="350" rx="26" class="panel" filter="url(#shadow)"/>
  <text x="186" y="1722" class="panel-title">Dataset Health</text>
  <text x="186" y="1752" class="panel-subtitle">Rows written, sample timestamps, missing-data checks, and latency summary for the latest run.</text>
  <rect x="246" y="1794" width="1758" height="180" rx="18" fill="#0b1627" stroke="#263c56" stroke-width="2"/>
<text x="278" y="1836" class="label">dataset</text>
<text x="666" y="1836" class="label">rows</text>
<text x="766" y="1836" class="label">range (UTC)</text>
<text x="1166" y="1836" class="label">status</text>
<text x="1286" y="1836" class="label">research use</text>
<line x1="270" y1="1842" x2="1980" y2="1842" stroke="#24384f" stroke-width="1"/>
<text x="278" y="1864" class="legend">raw_agg_trades</text>
<text x="666" y="1864" class="legend">1000</text>
<text x="766" y="1864" class="legend">2026-01-01 00:00:00 - 2026-01-01 00:00:09 UTC</text>
<text x="1166" y="1864" class="legend">OK</text>
<text x="1286" y="1864" class="legend">price, quantity, trade side, receive latency</text>
<line x1="270" y1="1876" x2="1980" y2="1876" stroke="#24384f" stroke-width="1"/>
<text x="278" y="1898" class="legend">raw_depth</text>
<text x="666" y="1898" class="legend">1000</text>
<text x="766" y="1898" class="legend">2026-01-01 00:00:00 - 2026-01-01 00:00:09 UTC</text>
<text x="1166" y="1898" class="legend">OK</text>
<text x="1286" y="1898" class="legend">raw bid/ask deltas and update ids</text>
<line x1="270" y1="1910" x2="1980" y2="1910" stroke="#24384f" stroke-width="1"/>
<text x="278" y="1932" class="legend">book_change_events</text>
<text x="666" y="1932" class="legend">3995</text>
<text x="766" y="1932" class="legend">2026-01-01 00:00:00 - 2026-01-01 00:00:09 UTC</text>
<text x="1166" y="1932" class="legend">OK</text>
<text x="1286" y="1932" class="legend">per-level liquidity changes</text>
<line x1="270" y1="1944" x2="1980" y2="1944" stroke="#24384f" stroke-width="1"/>
<text x="278" y="1966" class="legend">features</text>
<text x="666" y="1966" class="legend">1000</text>
<text x="766" y="1966" class="legend">2026-01-01 00:00:00 - 2026-01-01 00:00:09 UTC</text>
<text x="1166" y="1966" class="legend">OK</text>
<text x="1286" y="1966" class="legend">spread, midprice, OFI, L5 depth</text>
<line x1="270" y1="1978" x2="1980" y2="1978" stroke="#24384f" stroke-width="1"/>
<text x="278" y="2000" class="legend">snapshots</text>
<text x="666" y="2000" class="legend">1</text>
<text x="766" y="2000" class="legend">2026-01-01 00:00:00 - 2026-01-01 00:00:00 UTC</text>
<text x="1166" y="2000" class="legend">OK</text>
<text x="1286" y="2000" class="legend">book bootstrap and synchronization anchor</text>
<text x="278" y="1958" class="tiny">latency summary: mock.aggTrade avg 6.548 ms, max 12.822 ms | mock.depth avg 6.554 ms, max 12.435 ms</text>


</svg>